M48
METRIC,LZ,000.000
;FILE_FORMAT=3:3
;TYPE=PLATED
;Layer: PTH_Through
;EasyEDA v6.5.23, 2023-06-03 16:32:00
;4babc638b9e54a0eac15f07bdc89f0ce,0997c0c323a540828c61b468e30a80a1,10
;Gerber Generator version 0.2
;Holesize 1 = 0.889 mm
T01C0.889
;Holesize 2 = 0.901 mm
T02C0.901
;Holesize 3 = 0.915 mm
T03C0.915
;Holesize 4 = 1.000 mm
T04C1.000
;Holesize 5 = 1.101 mm
T05C1.101
;Holesize 6 = 1.200 mm
T06C1.200
%
G05
G90
T01
X090170Y-034770
X087630Y-034770
X090170Y-032230
X087630Y-032230
X090070Y-052970
X087530Y-052970
X090070Y-050430
X087530Y-050430
X061460Y-017120
X064000Y-017120
X061460Y-019660
X064000Y-019660
X061460Y-022200
X064000Y-022200
X074560Y-017120
X077100Y-017120
X074560Y-019660
X077100Y-019660
X074560Y-022200
X077100Y-022200
X082730Y-060300
X080190Y-060300
X077650Y-060300
X075110Y-060300
X072570Y-060300
X070030Y-060300
X067490Y-060300
X064950Y-060300
X062410Y-060300
X059870Y-060300
X057330Y-060300
X054790Y-060300
X052250Y-060300
X049710Y-060300
X047170Y-060300
X044630Y-060300
X042090Y-060300
X039550Y-060300
X037010Y-060300
X034470Y-060300
X082830Y-027500
X080290Y-027500
X077750Y-027500
X075210Y-027500
X072670Y-027500
X070130Y-027500
X067590Y-027500
X065050Y-027500
X062510Y-027500
X059970Y-027500
X057430Y-027500
X054890Y-027500
X052350Y-027500
X049810Y-027500
X047270Y-027500
X044730Y-027500
X042190Y-027500
X039650Y-027500
X037110Y-027500
X034570Y-027500
X001500Y-051680
X001500Y-049140
X001500Y-046600
X001500Y-044060
X001500Y-041520
X001500Y-038980
X001500Y-036440
X001500Y-033900
X001500Y-031360
X001500Y-028820
T02
X010184Y-021924G85X012284Y-021924
X007734Y-016174G85X007734Y-018374
X013734Y-018374G85X013734Y-016174
X013034Y-007530
X013034Y-010070
X058627Y-007249
X058627Y-004709
X066400Y-005930
X066400Y-008470
T03
X080160Y-055330
X077620Y-055330
X075080Y-055330
X072540Y-055330
X070000Y-055330
X067460Y-055330
X064920Y-055330
X062380Y-055330
X059840Y-055330
X057300Y-055330
X054760Y-055330
X052220Y-055330
X049680Y-055330
X047140Y-055330
X044600Y-055330
X042060Y-055330
X039520Y-055330
X036980Y-055330
X034440Y-055330
X080160Y-032470
X077620Y-032470
X075080Y-032470
X072540Y-032470
X070000Y-032470
X067460Y-032470
X064920Y-032470
X062380Y-032470
X059840Y-032470
X057300Y-032470
X054760Y-032470
X052220Y-032470
X049680Y-032470
X047140Y-032470
X044600Y-032470
X042060Y-032470
X039520Y-032470
X036980Y-032470
X034440Y-032470
T04
X016934Y-016049
X015934Y-021150
T05
X001630Y-058400
X004170Y-058400
T06
X049183Y-014600
X054284Y-014600
X024950Y-052350
X024950Y-058850
X029450Y-058850
X029450Y-052350
X047034Y-003495
X049574Y-003505
X044494Y-003495
X028034Y-003495
X030574Y-003505
X025494Y-003495
M30
