G04 Layer: BottomSolderMaskLayer*
G04 EasyEDA v6.5.23, 2023-06-03 16:32:00*
G04 4babc638b9e54a0eac15f07bdc89f0ce,0997c0c323a540828c61b468e30a80a1,10*
G04 Gerber Generator version 0.2*
G04 Scale: 100 percent, Rotated: No, Reflected: No *
G04 Dimensions in millimeters *
G04 leading zeros omitted , absolute positions ,4 integer and 5 decimal *
%FSLAX45Y45*%
%MOMM*%

%AMMACRO1*1,1,$1,$2,$3*1,1,$1,$4,$5*1,1,$1,0-$2,0-$3*1,1,$1,0-$4,0-$5*20,1,$1,$2,$3,$4,$5,0*20,1,$1,$4,$5,0-$2,0-$3,0*20,1,$1,0-$2,0-$3,0-$4,0-$5,0*20,1,$1,0-$4,0-$5,$2,$3,0*4,1,4,$2,$3,$4,$5,0-$2,0-$3,0-$4,0-$5,$2,$3,0*%
%ADD10O,3.8015926X1.6015970000000002*%
%ADD11O,1.6015970000000002X3.9015924*%
%ADD12C,1.7016*%
%ADD13C,1.9016*%
%ADD14MACRO1,0.1016X-0.85X0.7874X0.85X0.7874*%
%ADD15C,1.8016*%
%ADD16MACRO1,0.1016X-0.7874X-0.7874X-0.7874X0.7874*%
%ADD17C,1.6764*%
%ADD18MACRO1,0.1016X-0.7874X0.7874X0.7874X0.7874*%
%ADD19MACRO1,0.1016X0.7874X0.7874X0.7874X-0.7874*%
%ADD20C,1.5016*%
%ADD21C,2.1016*%
%ADD22O,1.9015964X2.7015948*%
%ADD23MACRO1,0.1016X-0.9X1.3X0.9X1.3*%
%ADD24C,1.6240*%

%LPD*%
D10*
G01*
X1123416Y-2192502D03*
D11*
G01*
X773404Y-1727428D03*
G01*
X1373352Y-1727428D03*
D12*
G01*
X1693367Y-1604949D03*
G01*
X1593367Y-2114981D03*
D13*
G01*
X4918354Y-1459966D03*
G01*
X5428386Y-1459966D03*
D14*
G01*
X163000Y-5839988D03*
D15*
G01*
X416991Y-5839993D03*
D16*
G01*
X9016982Y-3476993D03*
D17*
G01*
X8762974Y-3477005D03*
G01*
X9016974Y-3223005D03*
G01*
X8762974Y-3223005D03*
D16*
G01*
X9006982Y-5296989D03*
D17*
G01*
X8752992Y-5296992D03*
G01*
X9006992Y-5042992D03*
G01*
X8752992Y-5042992D03*
G01*
X6146012Y-1711985D03*
G01*
X6400012Y-1711985D03*
G01*
X6146012Y-1965985D03*
G01*
X6400012Y-1965985D03*
G01*
X6146012Y-2219985D03*
D16*
G01*
X6399987Y-2219995D03*
D17*
G01*
X7455992Y-1711985D03*
G01*
X7709992Y-1711985D03*
G01*
X7455992Y-1965985D03*
G01*
X7709992Y-1965985D03*
G01*
X7455992Y-2219985D03*
D16*
G01*
X7709984Y-2219995D03*
D17*
G01*
X8272983Y-6030010D03*
G01*
X8018983Y-6030010D03*
G01*
X7764983Y-6030010D03*
G01*
X7510983Y-6030010D03*
G01*
X7256983Y-6030010D03*
G01*
X7002983Y-6030010D03*
G01*
X6748983Y-6030010D03*
G01*
X6494983Y-6030010D03*
G01*
X6240983Y-6030010D03*
G01*
X5986983Y-6030010D03*
G01*
X5732983Y-6030010D03*
G01*
X5478983Y-6030010D03*
G01*
X5224983Y-6030010D03*
G01*
X4970983Y-6030010D03*
G01*
X4716983Y-6030010D03*
G01*
X4462983Y-6030010D03*
G01*
X4208983Y-6030010D03*
G01*
X3954983Y-6030010D03*
G01*
X3700983Y-6030010D03*
D18*
G01*
X3446988Y-6029987D03*
D17*
G01*
X8282990Y-2750007D03*
G01*
X8028990Y-2750007D03*
G01*
X7774990Y-2750007D03*
G01*
X7520990Y-2750007D03*
G01*
X7266990Y-2750007D03*
G01*
X7012990Y-2750007D03*
G01*
X6758990Y-2750007D03*
G01*
X6504990Y-2750007D03*
G01*
X6250990Y-2750007D03*
G01*
X5996990Y-2750007D03*
G01*
X5742990Y-2750007D03*
G01*
X5488990Y-2750007D03*
G01*
X5234990Y-2750007D03*
G01*
X4980990Y-2750007D03*
G01*
X4726990Y-2750007D03*
G01*
X4472990Y-2750007D03*
G01*
X4218990Y-2750007D03*
G01*
X3964990Y-2750007D03*
G01*
X3710990Y-2750007D03*
D18*
G01*
X3456988Y-2749994D03*
D17*
G01*
X150012Y-5167985D03*
G01*
X150012Y-4913985D03*
G01*
X150012Y-4659985D03*
G01*
X150012Y-4405985D03*
G01*
X150012Y-4151985D03*
G01*
X150012Y-3897985D03*
G01*
X150012Y-3643985D03*
G01*
X150012Y-3389985D03*
G01*
X150012Y-3135985D03*
D19*
G01*
X149999Y-2881993D03*
D20*
G01*
X1303375Y-752957D03*
G01*
X1303375Y-1006957D03*
G01*
X5862700Y-724915D03*
G01*
X5862700Y-470915D03*
G01*
X6639991Y-592988D03*
G01*
X6639991Y-846988D03*
D21*
G01*
X2494991Y-5234990D03*
G01*
X2494991Y-5884976D03*
G01*
X2944977Y-5884976D03*
G01*
X2944977Y-5234990D03*
D22*
G01*
X4703343Y-349478D03*
G01*
X4957368Y-350469D03*
D23*
G01*
X4449353Y-349465D03*
D22*
G01*
X2803347Y-349478D03*
G01*
X3057372Y-350469D03*
D23*
G01*
X2549357Y-349465D03*
D24*
G01*
X8015986Y-5533009D03*
G01*
X7761986Y-5533009D03*
G01*
X7507986Y-5533009D03*
G01*
X7253986Y-5533009D03*
G01*
X6999986Y-5533009D03*
G01*
X6745986Y-5533009D03*
G01*
X6491986Y-5533009D03*
G01*
X6237986Y-5533009D03*
G01*
X5983986Y-5533009D03*
G01*
X5729986Y-5533009D03*
G01*
X5475986Y-5533009D03*
G01*
X5221986Y-5533009D03*
G01*
X4967986Y-5533009D03*
G01*
X4713986Y-5533009D03*
G01*
X4459986Y-5533009D03*
G01*
X4205986Y-5533009D03*
G01*
X3951986Y-5533009D03*
G01*
X3697986Y-5533009D03*
G01*
X3443986Y-5533009D03*
G01*
X8015986Y-3247009D03*
G01*
X7761986Y-3247009D03*
G01*
X7507986Y-3247009D03*
G01*
X7253986Y-3247009D03*
G01*
X6999986Y-3247009D03*
G01*
X6745986Y-3247009D03*
G01*
X6491986Y-3247009D03*
G01*
X6237986Y-3247009D03*
G01*
X5983986Y-3247009D03*
G01*
X5729986Y-3247009D03*
G01*
X5475986Y-3247009D03*
G01*
X5221986Y-3247009D03*
G01*
X4967986Y-3247009D03*
G01*
X4713986Y-3247009D03*
G01*
X4459986Y-3247009D03*
G01*
X4205986Y-3247009D03*
G01*
X3951986Y-3247009D03*
G01*
X3697986Y-3247009D03*
G01*
X3443986Y-3247009D03*
M02*
