G04 Layer: TopPasteMaskLayer*
G04 EasyEDA v6.5.23, 2023-06-03 16:32:00*
G04 4babc638b9e54a0eac15f07bdc89f0ce,0997c0c323a540828c61b468e30a80a1,10*
G04 Gerber Generator version 0.2*
G04 Scale: 100 percent, Rotated: No, Reflected: No *
G04 Dimensions in millimeters *
G04 leading zeros omitted , absolute positions ,4 integer and 5 decimal *
%FSLAX45Y45*%
%MOMM*%

%AMMACRO1*21,1,$1,$2,0,0,$3*%
%ADD10MACRO1,1.296X1.7575X0.0000*%
%ADD11R,1.2960X1.7575*%
%ADD12MACRO1,1.296X1.7575X-90.0000*%
%ADD13R,2.0000X2.0000*%
%ADD14R,0.9500X1.1500*%
%ADD15R,1.2500X0.7000*%
%ADD16R,0.9360X0.5000*%
%ADD17O,0.5684012X1.950212*%
%ADD18O,0.0141X1.950212*%

%LPD*%
G36*
X2906014Y-3849979D02*
G01*
X2900984Y-3855008D01*
X2900984Y-3969969D01*
X2906014Y-3974998D01*
X2947974Y-3974490D01*
X2947974Y-3930497D01*
X2992983Y-3930497D01*
X2992983Y-3975506D01*
X3033979Y-3974998D01*
X3039008Y-3969969D01*
X3039008Y-3855008D01*
X3033979Y-3849979D01*
G37*
G36*
X2906014Y-4065015D02*
G01*
X2900984Y-4069994D01*
X2900984Y-4185005D01*
X2906014Y-4189984D01*
X3033979Y-4189984D01*
X3039008Y-4185005D01*
X3039008Y-4069994D01*
X3033979Y-4065015D01*
X2992983Y-4065473D01*
X2992983Y-4109516D01*
X2947974Y-4109516D01*
X2947974Y-4065015D01*
G37*
G36*
X2937002Y-3404514D02*
G01*
X2896006Y-3404971D01*
X2890977Y-3410000D01*
X2890977Y-3525012D01*
X2896006Y-3529990D01*
X3023971Y-3529990D01*
X3029000Y-3525012D01*
X3029000Y-3410000D01*
X3023971Y-3404971D01*
X2982010Y-3405479D01*
X2982010Y-3449472D01*
X2937002Y-3449472D01*
G37*
G36*
X2896006Y-3189986D02*
G01*
X2890977Y-3195015D01*
X2890977Y-3309975D01*
X2896006Y-3315004D01*
X2937002Y-3314496D01*
X2937002Y-3270503D01*
X2982010Y-3270503D01*
X2982010Y-3315004D01*
X3023971Y-3315004D01*
X3029000Y-3309975D01*
X3029000Y-3195015D01*
X3023971Y-3189986D01*
G37*
G36*
X7209993Y-1211021D02*
G01*
X7204964Y-1215999D01*
X7205472Y-1258011D01*
X7249464Y-1258011D01*
X7249464Y-1302969D01*
X7204506Y-1302969D01*
X7204964Y-1344015D01*
X7209993Y-1348994D01*
X7325004Y-1348994D01*
X7329982Y-1344015D01*
X7329982Y-1215999D01*
X7325004Y-1211021D01*
G37*
G36*
X6995007Y-1211021D02*
G01*
X6989978Y-1215999D01*
X6989978Y-1344015D01*
X6995007Y-1348994D01*
X7109968Y-1348994D01*
X7114997Y-1344015D01*
X7114489Y-1302969D01*
X7070496Y-1302969D01*
X7070496Y-1258011D01*
X7114997Y-1258011D01*
X7114997Y-1215999D01*
X7109968Y-1211021D01*
G37*
G36*
X5809996Y-2420975D02*
G01*
X5804966Y-2426004D01*
X5805474Y-2467965D01*
X5849467Y-2467965D01*
X5849467Y-2512974D01*
X5804509Y-2512974D01*
X5804966Y-2553970D01*
X5809996Y-2558999D01*
X5925007Y-2558999D01*
X5929985Y-2553970D01*
X5929985Y-2426004D01*
X5925007Y-2420975D01*
G37*
G36*
X5595010Y-2420975D02*
G01*
X5589981Y-2426004D01*
X5589981Y-2553970D01*
X5595010Y-2558999D01*
X5709970Y-2558999D01*
X5715000Y-2553970D01*
X5714492Y-2512974D01*
X5670499Y-2512974D01*
X5670499Y-2467965D01*
X5715000Y-2467965D01*
X5715000Y-2426004D01*
X5709970Y-2420975D01*
G37*
G36*
X2113483Y-391007D02*
G01*
X2108504Y-395986D01*
X2109012Y-437997D01*
X2153005Y-437997D01*
X2153005Y-483006D01*
X2107996Y-483006D01*
X2108504Y-524001D01*
X2113483Y-528980D01*
X2228494Y-528980D01*
X2233523Y-524001D01*
X2233523Y-395986D01*
X2228494Y-391007D01*
G37*
G36*
X1898497Y-391007D02*
G01*
X1893519Y-395986D01*
X1893519Y-524001D01*
X1898497Y-528980D01*
X2013508Y-528980D01*
X2018487Y-524001D01*
X2017979Y-483006D01*
X1973986Y-483006D01*
X1973986Y-437997D01*
X2018487Y-437997D01*
X2018487Y-395986D01*
X2013508Y-391007D01*
G37*
G36*
X5140858Y-572973D02*
G01*
X5135880Y-577951D01*
X5136388Y-619963D01*
X5180380Y-619963D01*
X5180380Y-664972D01*
X5135372Y-664972D01*
X5135880Y-705967D01*
X5140858Y-710946D01*
X5255869Y-710946D01*
X5260848Y-705967D01*
X5260848Y-577951D01*
X5255869Y-572973D01*
G37*
G36*
X4925872Y-572973D02*
G01*
X4920843Y-577951D01*
X4920843Y-705967D01*
X4925872Y-710946D01*
X5040884Y-710946D01*
X5045862Y-705967D01*
X5045354Y-664972D01*
X5001361Y-664972D01*
X5001361Y-619963D01*
X5045862Y-619963D01*
X5045862Y-577951D01*
X5040884Y-572973D01*
G37*
G36*
X3780891Y-258978D02*
G01*
X3775862Y-263956D01*
X3775862Y-391972D01*
X3780891Y-396951D01*
X3895851Y-396951D01*
X3900881Y-391972D01*
X3900373Y-349961D01*
X3856380Y-349961D01*
X3856380Y-304952D01*
X3901389Y-304952D01*
X3900881Y-263956D01*
X3895851Y-258978D01*
G37*
G36*
X3995877Y-258978D02*
G01*
X3990848Y-263956D01*
X3991356Y-304952D01*
X4035348Y-304952D01*
X4035348Y-349961D01*
X3990848Y-349961D01*
X3990848Y-391972D01*
X3995877Y-396951D01*
X4110888Y-396951D01*
X4115866Y-391972D01*
X4115866Y-263956D01*
X4110888Y-258978D01*
G37*
G36*
X5140858Y-772972D02*
G01*
X5135880Y-777951D01*
X5136388Y-819962D01*
X5180380Y-819962D01*
X5180380Y-864971D01*
X5135372Y-864971D01*
X5135880Y-905967D01*
X5140858Y-910945D01*
X5255869Y-910945D01*
X5260848Y-905967D01*
X5260848Y-777951D01*
X5255869Y-772972D01*
G37*
G36*
X4925872Y-772972D02*
G01*
X4920843Y-777951D01*
X4920843Y-905967D01*
X4925872Y-910945D01*
X5040884Y-910945D01*
X5045862Y-905967D01*
X5045354Y-864971D01*
X5001361Y-864971D01*
X5001361Y-819962D01*
X5045862Y-819962D01*
X5045862Y-777951D01*
X5040884Y-772972D01*
G37*
G36*
X3200857Y-792988D02*
G01*
X3195878Y-797966D01*
X3196386Y-839978D01*
X3240379Y-839978D01*
X3240379Y-884936D01*
X3195370Y-884936D01*
X3195878Y-925982D01*
X3200857Y-930960D01*
X3315868Y-930960D01*
X3320897Y-925982D01*
X3320897Y-797966D01*
X3315868Y-792988D01*
G37*
G36*
X2985871Y-792988D02*
G01*
X2980893Y-797966D01*
X2980893Y-925982D01*
X2985871Y-930960D01*
X3100882Y-930960D01*
X3105861Y-925982D01*
X3105353Y-884936D01*
X3061360Y-884936D01*
X3061360Y-839978D01*
X3105861Y-839978D01*
X3105861Y-797966D01*
X3100882Y-792988D01*
G37*
G36*
X1890877Y-158953D02*
G01*
X1885848Y-163982D01*
X1885848Y-291947D01*
X1890877Y-296976D01*
X2005888Y-296976D01*
X2010867Y-291947D01*
X2010359Y-249936D01*
X1966366Y-249936D01*
X1966366Y-204978D01*
X2011375Y-204978D01*
X2010867Y-163982D01*
X2005888Y-158953D01*
G37*
G36*
X2105863Y-158953D02*
G01*
X2100884Y-163982D01*
X2101392Y-204978D01*
X2145385Y-204978D01*
X2145385Y-249936D01*
X2100884Y-249936D01*
X2100884Y-291947D01*
X2105863Y-296976D01*
X2220874Y-296976D01*
X2225852Y-291947D01*
X2225852Y-163982D01*
X2220874Y-158953D01*
G37*
G36*
X3200857Y-582980D02*
G01*
X3195878Y-587959D01*
X3196386Y-629970D01*
X3240379Y-629970D01*
X3240379Y-674979D01*
X3195370Y-674979D01*
X3195878Y-715975D01*
X3200857Y-720953D01*
X3315868Y-720953D01*
X3320897Y-715975D01*
X3320897Y-587959D01*
X3315868Y-582980D01*
G37*
G36*
X2985871Y-582980D02*
G01*
X2980893Y-587959D01*
X2980893Y-715975D01*
X2985871Y-720953D01*
X3100882Y-720953D01*
X3105861Y-715975D01*
X3105353Y-674979D01*
X3061360Y-674979D01*
X3061360Y-629970D01*
X3105861Y-629970D01*
X3105861Y-587959D01*
X3100882Y-582980D01*
G37*
G36*
X1830882Y-858977D02*
G01*
X1825853Y-863955D01*
X1825853Y-991971D01*
X1830882Y-996950D01*
X1945893Y-996950D01*
X1950872Y-991971D01*
X1950364Y-949960D01*
X1906371Y-949960D01*
X1906371Y-904951D01*
X1951380Y-904951D01*
X1950872Y-863955D01*
X1945893Y-858977D01*
G37*
G36*
X2045868Y-858977D02*
G01*
X2040889Y-863955D01*
X2041347Y-904951D01*
X2085390Y-904951D01*
X2085390Y-949960D01*
X2040889Y-949960D01*
X2040889Y-991971D01*
X2045868Y-996950D01*
X2160879Y-996950D01*
X2165858Y-991971D01*
X2165858Y-863955D01*
X2160879Y-858977D01*
G37*
G36*
X2368397Y-2061972D02*
G01*
X2327351Y-2062480D01*
X2322372Y-2067458D01*
X2322372Y-2182469D01*
X2327351Y-2187448D01*
X2455367Y-2187448D01*
X2460345Y-2182469D01*
X2460345Y-2067458D01*
X2455367Y-2062480D01*
X2413355Y-2062937D01*
X2413355Y-2106980D01*
X2368397Y-2106980D01*
G37*
G36*
X2327351Y-1847443D02*
G01*
X2322372Y-1852472D01*
X2322372Y-1967433D01*
X2327351Y-1972462D01*
X2368397Y-1971954D01*
X2368397Y-1927961D01*
X2413355Y-1927961D01*
X2413355Y-1972462D01*
X2455367Y-1972462D01*
X2460345Y-1967433D01*
X2460345Y-1852472D01*
X2455367Y-1847443D01*
G37*
G36*
X2568397Y-2061972D02*
G01*
X2527350Y-2062480D01*
X2522372Y-2067458D01*
X2522372Y-2182469D01*
X2527350Y-2187448D01*
X2655366Y-2187448D01*
X2660345Y-2182469D01*
X2660345Y-2067458D01*
X2655366Y-2062480D01*
X2613355Y-2062937D01*
X2613355Y-2106980D01*
X2568397Y-2106980D01*
G37*
G36*
X2527350Y-1847443D02*
G01*
X2522372Y-1852472D01*
X2522372Y-1967433D01*
X2527350Y-1972462D01*
X2568397Y-1971954D01*
X2568397Y-1927961D01*
X2613355Y-1927961D01*
X2613355Y-1972462D01*
X2655366Y-1972462D01*
X2660345Y-1967433D01*
X2660345Y-1852472D01*
X2655366Y-1847443D01*
G37*
G36*
X2507488Y-2938983D02*
G01*
X2502509Y-2944012D01*
X2502509Y-3071977D01*
X2507488Y-3077006D01*
X2622499Y-3077006D01*
X2627477Y-3071977D01*
X2627020Y-3030016D01*
X2582976Y-3030016D01*
X2582976Y-2985008D01*
X2627985Y-2985008D01*
X2627477Y-2944012D01*
X2622499Y-2938983D01*
G37*
G36*
X2722473Y-2938983D02*
G01*
X2717495Y-2944012D01*
X2718003Y-2985008D01*
X2761996Y-2985008D01*
X2761996Y-3030016D01*
X2717495Y-3030016D01*
X2717495Y-3071977D01*
X2722473Y-3077006D01*
X2837484Y-3077006D01*
X2842514Y-3071977D01*
X2842514Y-2944012D01*
X2837484Y-2938983D01*
G37*
G36*
X8417458Y-5452973D02*
G01*
X8412480Y-5458002D01*
X8412988Y-5499963D01*
X8456980Y-5499963D01*
X8456980Y-5544972D01*
X8411972Y-5544972D01*
X8412480Y-5585968D01*
X8417458Y-5590997D01*
X8532469Y-5590997D01*
X8537498Y-5585968D01*
X8537498Y-5458002D01*
X8532469Y-5452973D01*
G37*
G36*
X8202472Y-5452973D02*
G01*
X8197494Y-5458002D01*
X8197494Y-5585968D01*
X8202472Y-5590997D01*
X8317484Y-5590997D01*
X8322462Y-5585968D01*
X8322005Y-5544972D01*
X8277961Y-5544972D01*
X8277961Y-5499963D01*
X8322462Y-5499963D01*
X8322462Y-5458002D01*
X8317484Y-5452973D01*
G37*
G36*
X8717483Y-4579010D02*
G01*
X8712504Y-4583988D01*
X8712504Y-4712004D01*
X8717483Y-4716983D01*
X8832494Y-4716983D01*
X8837472Y-4712004D01*
X8836964Y-4669993D01*
X8792972Y-4669993D01*
X8792972Y-4624984D01*
X8837980Y-4624984D01*
X8837472Y-4583988D01*
X8832494Y-4579010D01*
G37*
G36*
X8932468Y-4579010D02*
G01*
X8927490Y-4583988D01*
X8927998Y-4624984D01*
X8971991Y-4624984D01*
X8971991Y-4669993D01*
X8927490Y-4669993D01*
X8927490Y-4712004D01*
X8932468Y-4716983D01*
X9047480Y-4716983D01*
X9052458Y-4712004D01*
X9052458Y-4583988D01*
X9047480Y-4579010D01*
G37*
G36*
X297484Y-2413000D02*
G01*
X292506Y-2417978D01*
X293014Y-2459990D01*
X337007Y-2459990D01*
X337007Y-2504998D01*
X291998Y-2504998D01*
X292506Y-2545994D01*
X297484Y-2550972D01*
X412496Y-2550972D01*
X417525Y-2545994D01*
X417525Y-2417978D01*
X412496Y-2413000D01*
G37*
G36*
X82499Y-2413000D02*
G01*
X77520Y-2417978D01*
X77520Y-2545994D01*
X82499Y-2550972D01*
X197510Y-2550972D01*
X202488Y-2545994D01*
X201980Y-2504998D01*
X157988Y-2504998D01*
X157988Y-2459990D01*
X202488Y-2459990D01*
X202488Y-2417978D01*
X197510Y-2413000D01*
G37*
G36*
X1347470Y-2558999D02*
G01*
X1342491Y-2563977D01*
X1342491Y-2691993D01*
X1347470Y-2696972D01*
X1462481Y-2696972D01*
X1467510Y-2691993D01*
X1467002Y-2649982D01*
X1423009Y-2649982D01*
X1423009Y-2604973D01*
X1468018Y-2604973D01*
X1467510Y-2563977D01*
X1462481Y-2558999D01*
G37*
G36*
X1562506Y-2558999D02*
G01*
X1557477Y-2563977D01*
X1557985Y-2604973D01*
X1601978Y-2604973D01*
X1601978Y-2649982D01*
X1557477Y-2649982D01*
X1557477Y-2691993D01*
X1562506Y-2696972D01*
X1677517Y-2696972D01*
X1682496Y-2691993D01*
X1682496Y-2563977D01*
X1677517Y-2558999D01*
G37*
G36*
X8707475Y-2758998D02*
G01*
X8702497Y-2763977D01*
X8702497Y-2891993D01*
X8707475Y-2896971D01*
X8822486Y-2896971D01*
X8827465Y-2891993D01*
X8827008Y-2849981D01*
X8782964Y-2849981D01*
X8782964Y-2804972D01*
X8827973Y-2804972D01*
X8827465Y-2763977D01*
X8822486Y-2758998D01*
G37*
G36*
X8922461Y-2758998D02*
G01*
X8917482Y-2763977D01*
X8917990Y-2804972D01*
X8961983Y-2804972D01*
X8961983Y-2849981D01*
X8917482Y-2849981D01*
X8917482Y-2891993D01*
X8922461Y-2896971D01*
X9037472Y-2896971D01*
X9042501Y-2891993D01*
X9042501Y-2763977D01*
X9037472Y-2758998D01*
G37*
G36*
X6117488Y-1268984D02*
G01*
X6112510Y-1274013D01*
X6112510Y-1401978D01*
X6117488Y-1407007D01*
X6232499Y-1407007D01*
X6237478Y-1401978D01*
X6236970Y-1360017D01*
X6192977Y-1360017D01*
X6192977Y-1315008D01*
X6237986Y-1315008D01*
X6237478Y-1274013D01*
X6232499Y-1268984D01*
G37*
G36*
X6332474Y-1268984D02*
G01*
X6327495Y-1274013D01*
X6328003Y-1315008D01*
X6371996Y-1315008D01*
X6371996Y-1360017D01*
X6327495Y-1360017D01*
X6327495Y-1401978D01*
X6332474Y-1407007D01*
X6447485Y-1407007D01*
X6452463Y-1401978D01*
X6452463Y-1274013D01*
X6447485Y-1268984D01*
G37*
G36*
X3118002Y-5182463D02*
G01*
X3112973Y-5187492D01*
X3112973Y-5302504D01*
X3118002Y-5307482D01*
X3160014Y-5306974D01*
X3160014Y-5262981D01*
X3204972Y-5262981D01*
X3204972Y-5307990D01*
X3246018Y-5307482D01*
X3250996Y-5302504D01*
X3250996Y-5187492D01*
X3246018Y-5182463D01*
G37*
G36*
X3118002Y-5397500D02*
G01*
X3112973Y-5402478D01*
X3112973Y-5517489D01*
X3118002Y-5522468D01*
X3246018Y-5522468D01*
X3250996Y-5517489D01*
X3250996Y-5402478D01*
X3246018Y-5397500D01*
X3204972Y-5398008D01*
X3204972Y-5442000D01*
X3160014Y-5442000D01*
X3160014Y-5397500D01*
G37*
G36*
X4228388Y-1120952D02*
G01*
X4223359Y-1125982D01*
X4223359Y-1253947D01*
X4228388Y-1258976D01*
X4343349Y-1258976D01*
X4348378Y-1253947D01*
X4347870Y-1211986D01*
X4303877Y-1211986D01*
X4303877Y-1166977D01*
X4348886Y-1166977D01*
X4348378Y-1125982D01*
X4343349Y-1120952D01*
G37*
G36*
X4443374Y-1120952D02*
G01*
X4438345Y-1125982D01*
X4438853Y-1166977D01*
X4482846Y-1166977D01*
X4482846Y-1211986D01*
X4438345Y-1211986D01*
X4438345Y-1253947D01*
X4443374Y-1258976D01*
X4558385Y-1258976D01*
X4563364Y-1253947D01*
X4563364Y-1125982D01*
X4558385Y-1120952D01*
G37*
G36*
X3668369Y-470966D02*
G01*
X3663340Y-475945D01*
X3663340Y-603961D01*
X3668369Y-608939D01*
X3783380Y-608939D01*
X3788359Y-603961D01*
X3787851Y-561949D01*
X3743858Y-561949D01*
X3743858Y-516991D01*
X3788867Y-516991D01*
X3788359Y-475945D01*
X3783380Y-470966D01*
G37*
G36*
X3883355Y-470966D02*
G01*
X3878376Y-475945D01*
X3878884Y-516991D01*
X3922877Y-516991D01*
X3922877Y-561949D01*
X3878376Y-561949D01*
X3878376Y-603961D01*
X3883355Y-608939D01*
X3998366Y-608939D01*
X4003344Y-603961D01*
X4003344Y-475945D01*
X3998366Y-470966D01*
G37*
G36*
X2718358Y-1850948D02*
G01*
X2713380Y-1855978D01*
X2713380Y-1983943D01*
X2718358Y-1988972D01*
X2833370Y-1988972D01*
X2838348Y-1983943D01*
X2837891Y-1941982D01*
X2793847Y-1941982D01*
X2793847Y-1896973D01*
X2838856Y-1896973D01*
X2838348Y-1855978D01*
X2833370Y-1850948D01*
G37*
G36*
X2933395Y-1850948D02*
G01*
X2928366Y-1855978D01*
X2928874Y-1896973D01*
X2972866Y-1896973D01*
X2972866Y-1941982D01*
X2928366Y-1941982D01*
X2928366Y-1983943D01*
X2933395Y-1988972D01*
X3048355Y-1988972D01*
X3053384Y-1983943D01*
X3053384Y-1855978D01*
X3048355Y-1850948D01*
G37*
G36*
X2718358Y-1640941D02*
G01*
X2713380Y-1645970D01*
X2713380Y-1773936D01*
X2718358Y-1778965D01*
X2833370Y-1778965D01*
X2838348Y-1773936D01*
X2837891Y-1731975D01*
X2793847Y-1731975D01*
X2793847Y-1686966D01*
X2838856Y-1686966D01*
X2838348Y-1645970D01*
X2833370Y-1640941D01*
G37*
G36*
X2933395Y-1640941D02*
G01*
X2928366Y-1645970D01*
X2928874Y-1686966D01*
X2972866Y-1686966D01*
X2972866Y-1731975D01*
X2928366Y-1731975D01*
X2928366Y-1773936D01*
X2933395Y-1778965D01*
X3048355Y-1778965D01*
X3053384Y-1773936D01*
X3053384Y-1645970D01*
X3048355Y-1640941D01*
G37*
G36*
X2133346Y-1840941D02*
G01*
X2128367Y-1845970D01*
X2128875Y-1887931D01*
X2172868Y-1887931D01*
X2172868Y-1932939D01*
X2127859Y-1932939D01*
X2128367Y-1973935D01*
X2133346Y-1978964D01*
X2248357Y-1978964D01*
X2253386Y-1973935D01*
X2253386Y-1845970D01*
X2248357Y-1840941D01*
G37*
G36*
X1918360Y-1840941D02*
G01*
X1913382Y-1845970D01*
X1913382Y-1973935D01*
X1918360Y-1978964D01*
X2033371Y-1978964D01*
X2038350Y-1973935D01*
X2037892Y-1932939D01*
X1993849Y-1932939D01*
X1993849Y-1887931D01*
X2038350Y-1887931D01*
X2038350Y-1845970D01*
X2033371Y-1840941D01*
G37*
G36*
X1859381Y-1249934D02*
G01*
X1854352Y-1254963D01*
X1854352Y-1369974D01*
X1859381Y-1374952D01*
X1901342Y-1374444D01*
X1901342Y-1330452D01*
X1946351Y-1330452D01*
X1946351Y-1375460D01*
X1987346Y-1374952D01*
X1992375Y-1369974D01*
X1992375Y-1254963D01*
X1987346Y-1249934D01*
G37*
G36*
X1859381Y-1464970D02*
G01*
X1854352Y-1469948D01*
X1854352Y-1584960D01*
X1859381Y-1589938D01*
X1987346Y-1589938D01*
X1992375Y-1584960D01*
X1992375Y-1469948D01*
X1987346Y-1464970D01*
X1946351Y-1465478D01*
X1946351Y-1509471D01*
X1901342Y-1509471D01*
X1901342Y-1464970D01*
G37*
G36*
X3115970Y-5609996D02*
G01*
X3110992Y-5614974D01*
X3110992Y-5729986D01*
X3115970Y-5734964D01*
X3157982Y-5734507D01*
X3157982Y-5690463D01*
X3202990Y-5690463D01*
X3202990Y-5735472D01*
X3243986Y-5734964D01*
X3249015Y-5729986D01*
X3249015Y-5614974D01*
X3243986Y-5609996D01*
G37*
G36*
X3115970Y-5824982D02*
G01*
X3110992Y-5830011D01*
X3110992Y-5944971D01*
X3115970Y-5950000D01*
X3243986Y-5950000D01*
X3249015Y-5944971D01*
X3249015Y-5830011D01*
X3243986Y-5824982D01*
X3202990Y-5825490D01*
X3202990Y-5869482D01*
X3157982Y-5869482D01*
X3157982Y-5824982D01*
G37*
G36*
X1859991Y-4170984D02*
G01*
X1855012Y-4176014D01*
X1855470Y-4217974D01*
X1899513Y-4217974D01*
X1899513Y-4262983D01*
X1854504Y-4262983D01*
X1855012Y-4303979D01*
X1859991Y-4309008D01*
X1975002Y-4309008D01*
X1979980Y-4303979D01*
X1979980Y-4176014D01*
X1975002Y-4170984D01*
G37*
G36*
X1645005Y-4170984D02*
G01*
X1639976Y-4176014D01*
X1639976Y-4303979D01*
X1645005Y-4309008D01*
X1760016Y-4309008D01*
X1764995Y-4303979D01*
X1764487Y-4262983D01*
X1720494Y-4262983D01*
X1720494Y-4217974D01*
X1764995Y-4217974D01*
X1764995Y-4176014D01*
X1760016Y-4170984D01*
G37*
G36*
X2515006Y-2541016D02*
G01*
X2509977Y-2545994D01*
X2509977Y-2674010D01*
X2515006Y-2678988D01*
X2630017Y-2678988D01*
X2634996Y-2674010D01*
X2634488Y-2631998D01*
X2590495Y-2631998D01*
X2590495Y-2586990D01*
X2635504Y-2586990D01*
X2634996Y-2545994D01*
X2630017Y-2541016D01*
G37*
G36*
X2729992Y-2541016D02*
G01*
X2725013Y-2545994D01*
X2725470Y-2586990D01*
X2769514Y-2586990D01*
X2769514Y-2631998D01*
X2725013Y-2631998D01*
X2725013Y-2674010D01*
X2729992Y-2678988D01*
X2845003Y-2678988D01*
X2849981Y-2674010D01*
X2849981Y-2545994D01*
X2845003Y-2541016D01*
G37*
G36*
X2515006Y-2741015D02*
G01*
X2509977Y-2745994D01*
X2509977Y-2874010D01*
X2515006Y-2878988D01*
X2630017Y-2878988D01*
X2634996Y-2874010D01*
X2634488Y-2831998D01*
X2590495Y-2831998D01*
X2590495Y-2786989D01*
X2635504Y-2786989D01*
X2634996Y-2745994D01*
X2630017Y-2741015D01*
G37*
G36*
X2729992Y-2741015D02*
G01*
X2725013Y-2745994D01*
X2725470Y-2786989D01*
X2769514Y-2786989D01*
X2769514Y-2831998D01*
X2725013Y-2831998D01*
X2725013Y-2874010D01*
X2729992Y-2878988D01*
X2845003Y-2878988D01*
X2849981Y-2874010D01*
X2849981Y-2745994D01*
X2845003Y-2741015D01*
G37*
G36*
X830021Y-4610963D02*
G01*
X824992Y-4615992D01*
X825500Y-4658004D01*
X869492Y-4658004D01*
X869492Y-4702962D01*
X824484Y-4702962D01*
X824992Y-4744008D01*
X830021Y-4748987D01*
X944981Y-4748987D01*
X950010Y-4744008D01*
X950010Y-4615992D01*
X944981Y-4610963D01*
G37*
G36*
X614984Y-4610963D02*
G01*
X610006Y-4615992D01*
X610006Y-4744008D01*
X614984Y-4748987D01*
X729996Y-4748987D01*
X734974Y-4744008D01*
X734517Y-4702962D01*
X690473Y-4702962D01*
X690473Y-4658004D01*
X734974Y-4658004D01*
X734974Y-4615992D01*
X729996Y-4610963D01*
G37*
G36*
X1660398Y-1144473D02*
G01*
X1619351Y-1144981D01*
X1614373Y-1149959D01*
X1614373Y-1264970D01*
X1619351Y-1269949D01*
X1747367Y-1269949D01*
X1752396Y-1264970D01*
X1752396Y-1149959D01*
X1747367Y-1144981D01*
X1705356Y-1145438D01*
X1705356Y-1189482D01*
X1660398Y-1189482D01*
G37*
G36*
X1619351Y-929944D02*
G01*
X1614373Y-934974D01*
X1614373Y-1049934D01*
X1619351Y-1054963D01*
X1660398Y-1054455D01*
X1660398Y-1010462D01*
X1705356Y-1010462D01*
X1705356Y-1054963D01*
X1747367Y-1054963D01*
X1752396Y-1049934D01*
X1752396Y-934974D01*
X1747367Y-929944D01*
G37*
G36*
X2138375Y-660958D02*
G01*
X2133346Y-665988D01*
X2133346Y-793953D01*
X2138375Y-798982D01*
X2253386Y-798982D01*
X2258364Y-793953D01*
X2257856Y-751941D01*
X2213864Y-751941D01*
X2213864Y-706983D01*
X2258872Y-706983D01*
X2258364Y-665988D01*
X2253386Y-660958D01*
G37*
G36*
X2353360Y-660958D02*
G01*
X2348382Y-665988D01*
X2348890Y-706983D01*
X2392883Y-706983D01*
X2392883Y-751941D01*
X2348382Y-751941D01*
X2348382Y-793953D01*
X2353360Y-798982D01*
X2468372Y-798982D01*
X2473350Y-793953D01*
X2473350Y-665988D01*
X2468372Y-660958D01*
G37*
G36*
X1859991Y-3830980D02*
G01*
X1855012Y-3836009D01*
X1855470Y-3877970D01*
X1899513Y-3877970D01*
X1899513Y-3922979D01*
X1854504Y-3922979D01*
X1855012Y-3963974D01*
X1859991Y-3969004D01*
X1975002Y-3969004D01*
X1979980Y-3963974D01*
X1979980Y-3836009D01*
X1975002Y-3830980D01*
G37*
G36*
X1645005Y-3830980D02*
G01*
X1639976Y-3836009D01*
X1639976Y-3963974D01*
X1645005Y-3969004D01*
X1760016Y-3969004D01*
X1764995Y-3963974D01*
X1764487Y-3922979D01*
X1720494Y-3922979D01*
X1720494Y-3877970D01*
X1764995Y-3877970D01*
X1764995Y-3836009D01*
X1760016Y-3830980D01*
G37*
G36*
X1859991Y-3541014D02*
G01*
X1855012Y-3545992D01*
X1855470Y-3588004D01*
X1899513Y-3588004D01*
X1899513Y-3632962D01*
X1854504Y-3632962D01*
X1855012Y-3674008D01*
X1859991Y-3678986D01*
X1975002Y-3678986D01*
X1979980Y-3674008D01*
X1979980Y-3545992D01*
X1975002Y-3541014D01*
G37*
G36*
X1645005Y-3541014D02*
G01*
X1639976Y-3545992D01*
X1639976Y-3674008D01*
X1645005Y-3678986D01*
X1760016Y-3678986D01*
X1764995Y-3674008D01*
X1764487Y-3632962D01*
X1720494Y-3632962D01*
X1720494Y-3588004D01*
X1764995Y-3588004D01*
X1764995Y-3545992D01*
X1760016Y-3541014D01*
G37*
G36*
X1859991Y-4450994D02*
G01*
X1855012Y-4455972D01*
X1855470Y-4497984D01*
X1899513Y-4497984D01*
X1899513Y-4542993D01*
X1854504Y-4542993D01*
X1855012Y-4583988D01*
X1859991Y-4588967D01*
X1975002Y-4588967D01*
X1979980Y-4583988D01*
X1979980Y-4455972D01*
X1975002Y-4450994D01*
G37*
G36*
X1645005Y-4450994D02*
G01*
X1639976Y-4455972D01*
X1639976Y-4583988D01*
X1645005Y-4588967D01*
X1760016Y-4588967D01*
X1764995Y-4583988D01*
X1764487Y-4542993D01*
X1720494Y-4542993D01*
X1720494Y-4497984D01*
X1764995Y-4497984D01*
X1764995Y-4455972D01*
X1760016Y-4450994D01*
G37*
G36*
X1859991Y-2921000D02*
G01*
X1855012Y-2925978D01*
X1855470Y-2967990D01*
X1899513Y-2967990D01*
X1899513Y-3012998D01*
X1854504Y-3012998D01*
X1855012Y-3053994D01*
X1859991Y-3058972D01*
X1975002Y-3058972D01*
X1979980Y-3053994D01*
X1979980Y-2925978D01*
X1975002Y-2921000D01*
G37*
G36*
X1645005Y-2921000D02*
G01*
X1639976Y-2925978D01*
X1639976Y-3053994D01*
X1645005Y-3058972D01*
X1760016Y-3058972D01*
X1764995Y-3053994D01*
X1764487Y-3012998D01*
X1720494Y-3012998D01*
X1720494Y-2967990D01*
X1764995Y-2967990D01*
X1764995Y-2925978D01*
X1760016Y-2921000D01*
G37*
G36*
X1859991Y-3201009D02*
G01*
X1855012Y-3205988D01*
X1855470Y-3247999D01*
X1899513Y-3247999D01*
X1899513Y-3293008D01*
X1854504Y-3293008D01*
X1855012Y-3334004D01*
X1859991Y-3338982D01*
X1975002Y-3338982D01*
X1979980Y-3334004D01*
X1979980Y-3205988D01*
X1975002Y-3201009D01*
G37*
G36*
X1645005Y-3201009D02*
G01*
X1639976Y-3205988D01*
X1639976Y-3334004D01*
X1645005Y-3338982D01*
X1760016Y-3338982D01*
X1764995Y-3334004D01*
X1764487Y-3293008D01*
X1720494Y-3293008D01*
X1720494Y-3247999D01*
X1764995Y-3247999D01*
X1764995Y-3205988D01*
X1760016Y-3201009D01*
G37*
G36*
X1849983Y-5071008D02*
G01*
X1845005Y-5075986D01*
X1845513Y-5117998D01*
X1889506Y-5117998D01*
X1889506Y-5163007D01*
X1844497Y-5163007D01*
X1845005Y-5204002D01*
X1849983Y-5208981D01*
X1964994Y-5208981D01*
X1970024Y-5204002D01*
X1970024Y-5075986D01*
X1964994Y-5071008D01*
G37*
G36*
X1634998Y-5071008D02*
G01*
X1630019Y-5075986D01*
X1630019Y-5204002D01*
X1634998Y-5208981D01*
X1750009Y-5208981D01*
X1754987Y-5204002D01*
X1754479Y-5163007D01*
X1710486Y-5163007D01*
X1710486Y-5117998D01*
X1754987Y-5117998D01*
X1754987Y-5075986D01*
X1750009Y-5071008D01*
G37*
G36*
X1849983Y-4790998D02*
G01*
X1845005Y-4795977D01*
X1845513Y-4837988D01*
X1889506Y-4837988D01*
X1889506Y-4882997D01*
X1844497Y-4882997D01*
X1845005Y-4923993D01*
X1849983Y-4928971D01*
X1964994Y-4928971D01*
X1970024Y-4923993D01*
X1970024Y-4795977D01*
X1964994Y-4790998D01*
G37*
G36*
X1634998Y-4790998D02*
G01*
X1630019Y-4795977D01*
X1630019Y-4923993D01*
X1634998Y-4928971D01*
X1750009Y-4928971D01*
X1754987Y-4923993D01*
X1754479Y-4882997D01*
X1710486Y-4882997D01*
X1710486Y-4837988D01*
X1754987Y-4837988D01*
X1754987Y-4795977D01*
X1750009Y-4790998D01*
G37*
G36*
X1849983Y-5690971D02*
G01*
X1845005Y-5696000D01*
X1845513Y-5737961D01*
X1889506Y-5737961D01*
X1889506Y-5782970D01*
X1844497Y-5782970D01*
X1845005Y-5823966D01*
X1849983Y-5828995D01*
X1964994Y-5828995D01*
X1970024Y-5823966D01*
X1970024Y-5696000D01*
X1964994Y-5690971D01*
G37*
G36*
X1634998Y-5690971D02*
G01*
X1630019Y-5696000D01*
X1630019Y-5823966D01*
X1634998Y-5828995D01*
X1750009Y-5828995D01*
X1754987Y-5823966D01*
X1754479Y-5782970D01*
X1710486Y-5782970D01*
X1710486Y-5737961D01*
X1754987Y-5737961D01*
X1754987Y-5696000D01*
X1750009Y-5690971D01*
G37*
G36*
X1849983Y-5410962D02*
G01*
X1845005Y-5415991D01*
X1845513Y-5458002D01*
X1889506Y-5458002D01*
X1889506Y-5502960D01*
X1844497Y-5502960D01*
X1845005Y-5544007D01*
X1849983Y-5548985D01*
X1964994Y-5548985D01*
X1970024Y-5544007D01*
X1970024Y-5415991D01*
X1964994Y-5410962D01*
G37*
G36*
X1634998Y-5410962D02*
G01*
X1630019Y-5415991D01*
X1630019Y-5544007D01*
X1634998Y-5548985D01*
X1750009Y-5548985D01*
X1754987Y-5544007D01*
X1754479Y-5502960D01*
X1710486Y-5502960D01*
X1710486Y-5458002D01*
X1754987Y-5458002D01*
X1754987Y-5415991D01*
X1750009Y-5410962D01*
G37*
G36*
X5570372Y-1214475D02*
G01*
X5529376Y-1214983D01*
X5524347Y-1219962D01*
X5524347Y-1334973D01*
X5529376Y-1339951D01*
X5657342Y-1339951D01*
X5662371Y-1334973D01*
X5662371Y-1219962D01*
X5657342Y-1214983D01*
X5615381Y-1215440D01*
X5615381Y-1259484D01*
X5570372Y-1259484D01*
G37*
G36*
X5529376Y-999947D02*
G01*
X5524347Y-1004976D01*
X5524347Y-1119936D01*
X5529376Y-1124966D01*
X5570372Y-1124458D01*
X5570372Y-1080465D01*
X5615381Y-1080465D01*
X5615381Y-1124966D01*
X5657342Y-1124966D01*
X5662371Y-1119936D01*
X5662371Y-1004976D01*
X5657342Y-999947D01*
G37*
G36*
X6297015Y-764489D02*
G01*
X6255969Y-764997D01*
X6250990Y-769975D01*
X6250990Y-884986D01*
X6255969Y-890016D01*
X6383985Y-890016D01*
X6388963Y-884986D01*
X6388963Y-769975D01*
X6383985Y-764997D01*
X6341973Y-765505D01*
X6341973Y-809498D01*
X6297015Y-809498D01*
G37*
G36*
X6255969Y-550011D02*
G01*
X6250990Y-554990D01*
X6250990Y-670001D01*
X6255969Y-674979D01*
X6297015Y-674471D01*
X6297015Y-630478D01*
X6341973Y-630478D01*
X6341973Y-674979D01*
X6383985Y-674979D01*
X6388963Y-670001D01*
X6388963Y-554990D01*
X6383985Y-550011D01*
G37*
D10*
G01*
X4713366Y-661335D03*
D11*
G01*
X4713376Y-998575D03*
D12*
G01*
X3064744Y-1069959D03*
G01*
X3401993Y-1069959D03*
D13*
G01*
X4923358Y-1089964D03*
G01*
X5363362Y-1089964D03*
G01*
X4073372Y-759968D03*
G01*
X4513376Y-759968D03*
G01*
X2703372Y-1099972D03*
G01*
X2703372Y-659968D03*
D14*
G01*
X2419248Y-2780004D03*
G01*
X2080768Y-2780004D03*
G01*
X8110753Y-2480005D03*
G01*
X8449233Y-2480005D03*
D15*
G01*
X959993Y-4504994D03*
G01*
X959993Y-4315002D03*
G01*
X759993Y-4409998D03*
D16*
G01*
X1360195Y-3750005D03*
G01*
X1539798Y-3685006D03*
G01*
X1539798Y-3815003D03*
G01*
X1360195Y-4380001D03*
G01*
X1539798Y-4315002D03*
G01*
X1539798Y-4445000D03*
G01*
X1360195Y-3129991D03*
G01*
X1539798Y-3064992D03*
G01*
X1539798Y-3194989D03*
G01*
X1350213Y-4999989D03*
G01*
X1529791Y-4934991D03*
G01*
X1529791Y-5064988D03*
G01*
X1350213Y-5619978D03*
G01*
X1529791Y-5554979D03*
G01*
X1529791Y-5684977D03*
G01*
X6880199Y-910005D03*
G01*
X7059777Y-845007D03*
G01*
X7059777Y-975004D03*
D17*
G01*
X2142870Y-1690471D03*
G01*
X2269870Y-1690471D03*
G01*
X2396870Y-1690471D03*
G01*
X2523870Y-1690471D03*
G01*
X2142870Y-1149451D03*
G01*
X2269870Y-1149451D03*
G01*
X2396870Y-1149451D03*
G01*
X2523870Y-1149451D03*
M02*
