G04 Layer: BottomLayer*
G04 EasyEDA v6.5.23, 2023-06-03 16:32:00*
G04 4babc638b9e54a0eac15f07bdc89f0ce,0997c0c323a540828c61b468e30a80a1,10*
G04 Gerber Generator version 0.2*
G04 Scale: 100 percent, Rotated: No, Reflected: No *
G04 Dimensions in millimeters *
G04 leading zeros omitted , absolute positions ,4 integer and 5 decimal *
%FSLAX45Y45*%
%MOMM*%

%ADD10C,0.2600*%
%ADD11C,1.0000*%
%ADD12O,3.6999926000000003X1.499997*%
%ADD13O,1.499997X3.7999924*%
%ADD14C,1.6000*%
%ADD15C,1.8000*%
%ADD16R,1.7000X1.5748*%
%ADD17C,1.7000*%
%ADD18R,1.5748X1.5748*%
%ADD19C,1.5748*%
%ADD20C,1.4000*%
%ADD21C,2.0000*%
%ADD22O,1.7999964X2.5999948*%
%ADD23R,1.8000X2.6000*%
%ADD24C,1.5240*%
%ADD25C,0.6096*%
%ADD26C,0.0124*%

%LPD*%
G36*
X36068Y-6774180D02*
G01*
X32156Y-6773418D01*
X28905Y-6771182D01*
X26670Y-6767931D01*
X25908Y-6764020D01*
X25908Y-5181346D01*
X26873Y-5177028D01*
X29565Y-5173522D01*
X33528Y-5171541D01*
X37947Y-5171389D01*
X42011Y-5173116D01*
X44958Y-5176469D01*
X46278Y-5181650D01*
X48920Y-5195062D01*
X53340Y-5208016D01*
X59385Y-5220309D01*
X67005Y-5231688D01*
X75996Y-5241950D01*
X86309Y-5250992D01*
X97688Y-5258612D01*
X109982Y-5264658D01*
X122935Y-5269077D01*
X136347Y-5271719D01*
X150012Y-5272633D01*
X163677Y-5271719D01*
X177088Y-5269077D01*
X190042Y-5264658D01*
X202336Y-5258612D01*
X213715Y-5250992D01*
X223977Y-5241950D01*
X233019Y-5231688D01*
X240588Y-5220309D01*
X246684Y-5208016D01*
X251053Y-5195062D01*
X253746Y-5181650D01*
X254609Y-5167985D01*
X253746Y-5154320D01*
X251053Y-5140909D01*
X246684Y-5127955D01*
X240588Y-5115661D01*
X233019Y-5104282D01*
X223977Y-5094020D01*
X213715Y-5084978D01*
X202336Y-5077409D01*
X190042Y-5071313D01*
X177088Y-5066944D01*
X163677Y-5064252D01*
X150012Y-5063388D01*
X136347Y-5064252D01*
X122935Y-5066944D01*
X109982Y-5071313D01*
X97688Y-5077409D01*
X86309Y-5084978D01*
X75996Y-5094020D01*
X67005Y-5104282D01*
X59385Y-5115661D01*
X53340Y-5127955D01*
X48920Y-5140909D01*
X46278Y-5154320D01*
X44958Y-5159552D01*
X42011Y-5162854D01*
X37947Y-5164582D01*
X33528Y-5164480D01*
X29565Y-5162448D01*
X26873Y-5158943D01*
X25908Y-5154625D01*
X25908Y-4927346D01*
X26873Y-4923028D01*
X29565Y-4919522D01*
X33528Y-4917541D01*
X37947Y-4917389D01*
X42011Y-4919116D01*
X44958Y-4922469D01*
X46278Y-4927650D01*
X48920Y-4941062D01*
X53340Y-4954016D01*
X59385Y-4966309D01*
X67005Y-4977688D01*
X75996Y-4987950D01*
X86309Y-4996992D01*
X97688Y-5004612D01*
X109982Y-5010658D01*
X122935Y-5015077D01*
X136347Y-5017719D01*
X150012Y-5018633D01*
X163677Y-5017719D01*
X177088Y-5015077D01*
X190042Y-5010658D01*
X202336Y-5004612D01*
X213715Y-4996992D01*
X223977Y-4987950D01*
X233019Y-4977688D01*
X240588Y-4966309D01*
X246684Y-4954016D01*
X251053Y-4941062D01*
X253746Y-4927650D01*
X254609Y-4913985D01*
X253746Y-4900320D01*
X251053Y-4886909D01*
X246684Y-4873955D01*
X240588Y-4861661D01*
X233019Y-4850282D01*
X223977Y-4840020D01*
X213715Y-4830978D01*
X202336Y-4823409D01*
X190042Y-4817313D01*
X177088Y-4812944D01*
X163677Y-4810252D01*
X150012Y-4809388D01*
X136347Y-4810252D01*
X122935Y-4812944D01*
X109982Y-4817313D01*
X97688Y-4823409D01*
X86309Y-4830978D01*
X75996Y-4840020D01*
X67005Y-4850282D01*
X59385Y-4861661D01*
X53340Y-4873955D01*
X48920Y-4886909D01*
X46278Y-4900320D01*
X44958Y-4905552D01*
X42011Y-4908854D01*
X37947Y-4910582D01*
X33528Y-4910480D01*
X29565Y-4908448D01*
X26873Y-4904943D01*
X25908Y-4900625D01*
X25908Y-4419346D01*
X26873Y-4415028D01*
X29565Y-4411522D01*
X33528Y-4409541D01*
X37947Y-4409389D01*
X42011Y-4411116D01*
X44958Y-4414469D01*
X46278Y-4419650D01*
X48920Y-4433062D01*
X53340Y-4446016D01*
X59385Y-4458309D01*
X67005Y-4469688D01*
X75996Y-4479950D01*
X86309Y-4488992D01*
X97688Y-4496612D01*
X109982Y-4502658D01*
X122935Y-4507077D01*
X136347Y-4509719D01*
X150012Y-4510633D01*
X163677Y-4509719D01*
X177088Y-4507077D01*
X190042Y-4502658D01*
X202336Y-4496612D01*
X213715Y-4488992D01*
X223977Y-4479950D01*
X233019Y-4469688D01*
X240588Y-4458309D01*
X246684Y-4446016D01*
X251053Y-4433062D01*
X253746Y-4419650D01*
X254609Y-4405985D01*
X253746Y-4392320D01*
X251053Y-4378909D01*
X246684Y-4365955D01*
X240588Y-4353661D01*
X236321Y-4347260D01*
X234746Y-4343196D01*
X234950Y-4338878D01*
X237032Y-4335018D01*
X240487Y-4332376D01*
X248158Y-4328820D01*
X256235Y-4323181D01*
X263144Y-4316222D01*
X268782Y-4308195D01*
X272948Y-4299254D01*
X275488Y-4289806D01*
X276148Y-4282287D01*
X277063Y-4278833D01*
X279095Y-4275937D01*
X297078Y-4258056D01*
X302260Y-4251807D01*
X305866Y-4245102D01*
X308102Y-4237786D01*
X308914Y-4229608D01*
X308914Y-3560318D01*
X309676Y-3556457D01*
X311861Y-3553155D01*
X923137Y-2941878D01*
X926439Y-2939694D01*
X930351Y-2938881D01*
X2905302Y-2938881D01*
X2909214Y-2939694D01*
X2912516Y-2941878D01*
X2913786Y-2943148D01*
X2921812Y-2948787D01*
X2930702Y-2952953D01*
X2940202Y-2955493D01*
X2950006Y-2956356D01*
X2959760Y-2955493D01*
X2969260Y-2952953D01*
X2978150Y-2948787D01*
X2986227Y-2943148D01*
X2992831Y-2936544D01*
X2996082Y-2934360D01*
X2999994Y-2933598D01*
X3003905Y-2934360D01*
X3007156Y-2936544D01*
X3013760Y-2943148D01*
X3021838Y-2948787D01*
X3030728Y-2952953D01*
X3040227Y-2955493D01*
X3049981Y-2956356D01*
X3059785Y-2955493D01*
X3069285Y-2952953D01*
X3078175Y-2948787D01*
X3086201Y-2943148D01*
X3093161Y-2936240D01*
X3098800Y-2928162D01*
X3102965Y-2919272D01*
X3105505Y-2909773D01*
X3106318Y-2900019D01*
X3105505Y-2890215D01*
X3102965Y-2880715D01*
X3098800Y-2871825D01*
X3093161Y-2863748D01*
X3091891Y-2862478D01*
X3089656Y-2859176D01*
X3088894Y-2855315D01*
X3088894Y-2090521D01*
X3088132Y-2082444D01*
X3085896Y-2075129D01*
X3082290Y-2068423D01*
X3077159Y-2062124D01*
X2949092Y-1934057D01*
X2947060Y-1931162D01*
X2946146Y-1927758D01*
X2945485Y-1920189D01*
X2942945Y-1910740D01*
X2938780Y-1901799D01*
X2933141Y-1893773D01*
X2926232Y-1886813D01*
X2918155Y-1881174D01*
X2909265Y-1877060D01*
X2899765Y-1874520D01*
X2890012Y-1873656D01*
X2880207Y-1874520D01*
X2870708Y-1877060D01*
X2861818Y-1881174D01*
X2853791Y-1886813D01*
X2846832Y-1893773D01*
X2841193Y-1901799D01*
X2837027Y-1910740D01*
X2834487Y-1920189D01*
X2833624Y-1929993D01*
X2834487Y-1939798D01*
X2837027Y-1949246D01*
X2841193Y-1958187D01*
X2846832Y-1966214D01*
X2853791Y-1973173D01*
X2861818Y-1978812D01*
X2870708Y-1982927D01*
X2880207Y-1985467D01*
X2887776Y-1986127D01*
X2891180Y-1987042D01*
X2894076Y-1989074D01*
X3008122Y-2103120D01*
X3010306Y-2106422D01*
X3011068Y-2110333D01*
X3011068Y-2855315D01*
X3010306Y-2859176D01*
X3007156Y-2863443D01*
X3003905Y-2865628D01*
X2999994Y-2866390D01*
X2996082Y-2865628D01*
X2992831Y-2863443D01*
X2986227Y-2856839D01*
X2978150Y-2851200D01*
X2969260Y-2847035D01*
X2959760Y-2844495D01*
X2950006Y-2843631D01*
X2940202Y-2844495D01*
X2930702Y-2847035D01*
X2921812Y-2851200D01*
X2913786Y-2856839D01*
X2912516Y-2858109D01*
X2909214Y-2860294D01*
X2905302Y-2861106D01*
X910488Y-2861106D01*
X902411Y-2861868D01*
X895146Y-2864104D01*
X888441Y-2867660D01*
X882142Y-2872841D01*
X242824Y-3512159D01*
X237693Y-3518408D01*
X234086Y-3525113D01*
X231902Y-3532428D01*
X231089Y-3540506D01*
X231089Y-3553815D01*
X230378Y-3557625D01*
X228295Y-3560826D01*
X225145Y-3563061D01*
X221386Y-3563975D01*
X217576Y-3563416D01*
X202336Y-3553409D01*
X190042Y-3547313D01*
X177088Y-3542944D01*
X163677Y-3540251D01*
X150012Y-3539388D01*
X136347Y-3540251D01*
X122935Y-3542944D01*
X109982Y-3547313D01*
X97688Y-3553409D01*
X86309Y-3560978D01*
X75996Y-3570020D01*
X67005Y-3580282D01*
X59385Y-3591661D01*
X53340Y-3603955D01*
X48920Y-3616909D01*
X46278Y-3630320D01*
X44958Y-3635552D01*
X42011Y-3638854D01*
X37947Y-3640582D01*
X33528Y-3640480D01*
X29565Y-3638448D01*
X26873Y-3634943D01*
X25908Y-3630625D01*
X25908Y-3403346D01*
X26873Y-3399028D01*
X29565Y-3395522D01*
X33528Y-3393541D01*
X37947Y-3393389D01*
X42011Y-3395116D01*
X44958Y-3398469D01*
X46278Y-3403650D01*
X48920Y-3417062D01*
X53340Y-3430015D01*
X59385Y-3442309D01*
X67005Y-3453688D01*
X75996Y-3463950D01*
X86309Y-3472992D01*
X97688Y-3480612D01*
X109982Y-3486658D01*
X122935Y-3491077D01*
X136347Y-3493719D01*
X150012Y-3494633D01*
X163677Y-3493719D01*
X177088Y-3491077D01*
X190042Y-3486658D01*
X202336Y-3480612D01*
X213715Y-3472992D01*
X223977Y-3463950D01*
X233019Y-3453688D01*
X240588Y-3442309D01*
X246684Y-3430015D01*
X251053Y-3417062D01*
X253746Y-3403650D01*
X254609Y-3389985D01*
X253746Y-3376320D01*
X251053Y-3362909D01*
X246684Y-3349955D01*
X240588Y-3337661D01*
X233019Y-3326282D01*
X223977Y-3316020D01*
X213715Y-3306978D01*
X202336Y-3299409D01*
X190042Y-3293313D01*
X177088Y-3288944D01*
X163677Y-3286251D01*
X150012Y-3285388D01*
X136347Y-3286251D01*
X122935Y-3288944D01*
X109982Y-3293313D01*
X97688Y-3299409D01*
X86309Y-3306978D01*
X75996Y-3316020D01*
X67005Y-3326282D01*
X59385Y-3337661D01*
X53340Y-3349955D01*
X48920Y-3362909D01*
X46278Y-3376320D01*
X44958Y-3381552D01*
X42011Y-3384854D01*
X37947Y-3386582D01*
X33528Y-3386480D01*
X29565Y-3384448D01*
X26873Y-3380943D01*
X25908Y-3376625D01*
X25908Y-3149346D01*
X26873Y-3145028D01*
X29565Y-3141522D01*
X33528Y-3139541D01*
X37947Y-3139389D01*
X42011Y-3141116D01*
X44958Y-3144469D01*
X46278Y-3149650D01*
X48920Y-3163062D01*
X53340Y-3176016D01*
X59385Y-3188309D01*
X67005Y-3199688D01*
X75996Y-3209950D01*
X86309Y-3218992D01*
X97688Y-3226612D01*
X109982Y-3232658D01*
X122935Y-3237077D01*
X136347Y-3239719D01*
X150012Y-3240633D01*
X163677Y-3239719D01*
X177088Y-3237077D01*
X190042Y-3232658D01*
X202336Y-3226612D01*
X213715Y-3218992D01*
X223977Y-3209950D01*
X233019Y-3199688D01*
X240588Y-3188309D01*
X246684Y-3176016D01*
X251053Y-3163062D01*
X253746Y-3149650D01*
X254609Y-3135985D01*
X253746Y-3122320D01*
X251053Y-3108909D01*
X246684Y-3095955D01*
X240588Y-3083661D01*
X233019Y-3072282D01*
X228447Y-3067100D01*
X226567Y-3064002D01*
X225907Y-3060395D01*
X225907Y-2995980D01*
X226771Y-2991866D01*
X229260Y-2988462D01*
X232917Y-2986328D01*
X240029Y-2983992D01*
X244856Y-2980944D01*
X248920Y-2976829D01*
X251967Y-2972003D01*
X254355Y-2964891D01*
X256438Y-2961233D01*
X259842Y-2958744D01*
X264007Y-2957880D01*
X340664Y-2957830D01*
X349504Y-2957017D01*
X351942Y-2956610D01*
X360578Y-2954477D01*
X362915Y-2953715D01*
X371094Y-2950311D01*
X373329Y-2949194D01*
X382930Y-2943148D01*
X389788Y-2937510D01*
X858469Y-2468880D01*
X861771Y-2466695D01*
X865632Y-2465882D01*
X1842617Y-2465832D01*
X1851507Y-2465019D01*
X1853895Y-2464612D01*
X1862531Y-2462479D01*
X1864868Y-2461717D01*
X1873097Y-2458313D01*
X1875282Y-2457196D01*
X1882902Y-2452624D01*
X1884934Y-2451201D01*
X1891741Y-2445512D01*
X2879293Y-1458061D01*
X2882849Y-1455724D01*
X2887065Y-1455115D01*
X2900019Y-1455877D01*
X2915158Y-1454962D01*
X2930144Y-1452219D01*
X2944622Y-1447698D01*
X2958490Y-1441450D01*
X2971495Y-1433576D01*
X2983484Y-1424228D01*
X2994202Y-1413459D01*
X3003600Y-1401521D01*
X3011474Y-1388516D01*
X3017723Y-1374648D01*
X3022244Y-1360119D01*
X3024987Y-1345184D01*
X3025902Y-1329994D01*
X3024987Y-1314805D01*
X3022244Y-1299870D01*
X3017723Y-1285341D01*
X3011474Y-1271473D01*
X3003600Y-1258468D01*
X2994202Y-1246530D01*
X2983484Y-1235760D01*
X2971495Y-1226413D01*
X2958490Y-1218539D01*
X2944622Y-1212291D01*
X2930144Y-1207770D01*
X2915158Y-1205026D01*
X2900019Y-1204112D01*
X2884830Y-1205026D01*
X2869844Y-1207770D01*
X2855366Y-1212291D01*
X2841498Y-1218539D01*
X2828493Y-1226413D01*
X2816504Y-1235760D01*
X2805785Y-1246530D01*
X2796387Y-1258468D01*
X2788513Y-1271473D01*
X2782265Y-1285341D01*
X2777744Y-1299870D01*
X2775000Y-1314805D01*
X2774086Y-1329994D01*
X2774899Y-1342898D01*
X2774238Y-1347114D01*
X2771952Y-1350721D01*
X1811528Y-2311095D01*
X1808225Y-2313330D01*
X1804365Y-2314092D01*
X827328Y-2314143D01*
X818489Y-2314956D01*
X816051Y-2315362D01*
X807466Y-2317496D01*
X796899Y-2321712D01*
X794715Y-2322779D01*
X785063Y-2328824D01*
X778256Y-2334463D01*
X309524Y-2803093D01*
X306222Y-2805328D01*
X302361Y-2806090D01*
X263956Y-2806090D01*
X259842Y-2805226D01*
X256438Y-2802737D01*
X254355Y-2799080D01*
X251967Y-2791968D01*
X248920Y-2787142D01*
X244856Y-2783027D01*
X239928Y-2779979D01*
X234492Y-2778048D01*
X228193Y-2777337D01*
X71831Y-2777337D01*
X65532Y-2778048D01*
X60045Y-2779979D01*
X55168Y-2783027D01*
X51054Y-2787142D01*
X48006Y-2792018D01*
X45669Y-2798775D01*
X43637Y-2802280D01*
X40386Y-2804668D01*
X36423Y-2805633D01*
X32410Y-2804972D01*
X29006Y-2802788D01*
X26720Y-2799435D01*
X25908Y-2795473D01*
X25908Y-36068D01*
X26670Y-32156D01*
X28905Y-28905D01*
X32156Y-26670D01*
X36068Y-25908D01*
X9613900Y-25908D01*
X9617811Y-26670D01*
X9621062Y-28905D01*
X9623298Y-32156D01*
X9624060Y-36068D01*
X9624060Y-6764020D01*
X9623298Y-6767931D01*
X9621062Y-6771182D01*
X9617811Y-6773418D01*
X9613900Y-6774180D01*
G37*

%LPC*%
G36*
X254558Y-6725818D02*
G01*
X272592Y-6724446D01*
X290423Y-6721195D01*
X307797Y-6716115D01*
X324561Y-6709308D01*
X340563Y-6700774D01*
X355600Y-6690664D01*
X369468Y-6679082D01*
X382117Y-6666128D01*
X393395Y-6651904D01*
X403098Y-6636613D01*
X411175Y-6620459D01*
X417576Y-6603492D01*
X422198Y-6585966D01*
X424992Y-6568084D01*
X425907Y-6549999D01*
X424992Y-6531914D01*
X422198Y-6514033D01*
X417576Y-6496507D01*
X411175Y-6479540D01*
X403098Y-6463385D01*
X393395Y-6448094D01*
X382117Y-6433870D01*
X369468Y-6420916D01*
X355600Y-6409334D01*
X340563Y-6399225D01*
X324561Y-6390690D01*
X307797Y-6383883D01*
X290423Y-6378803D01*
X272592Y-6375552D01*
X254558Y-6374180D01*
X236423Y-6374638D01*
X218490Y-6376974D01*
X200863Y-6381089D01*
X183743Y-6387084D01*
X167335Y-6394754D01*
X151841Y-6404051D01*
X137312Y-6414922D01*
X124053Y-6427216D01*
X112064Y-6440830D01*
X101600Y-6455613D01*
X92659Y-6471361D01*
X85445Y-6487972D01*
X79908Y-6505194D01*
X76200Y-6522923D01*
X74371Y-6540957D01*
X74371Y-6559042D01*
X76200Y-6577075D01*
X79908Y-6594805D01*
X85445Y-6612026D01*
X92659Y-6628638D01*
X101600Y-6644386D01*
X112064Y-6659168D01*
X124053Y-6672783D01*
X137312Y-6685076D01*
X151841Y-6695948D01*
X167335Y-6705244D01*
X183743Y-6712915D01*
X200863Y-6718909D01*
X218490Y-6723024D01*
X236423Y-6725361D01*
G37*
G36*
X9404502Y-6725818D02*
G01*
X9422587Y-6724446D01*
X9440367Y-6721195D01*
X9457791Y-6716115D01*
X9474555Y-6709308D01*
X9490506Y-6700774D01*
X9505543Y-6690664D01*
X9519462Y-6679082D01*
X9532112Y-6666128D01*
X9543338Y-6651904D01*
X9553041Y-6636613D01*
X9561169Y-6620459D01*
X9567519Y-6603492D01*
X9572142Y-6585966D01*
X9574936Y-6568084D01*
X9575850Y-6549999D01*
X9574936Y-6531914D01*
X9572142Y-6514033D01*
X9567519Y-6496507D01*
X9561169Y-6479540D01*
X9553041Y-6463385D01*
X9543338Y-6448094D01*
X9532112Y-6433870D01*
X9519462Y-6420916D01*
X9505543Y-6409334D01*
X9490506Y-6399225D01*
X9474555Y-6390690D01*
X9457791Y-6383883D01*
X9440367Y-6378803D01*
X9422587Y-6375552D01*
X9404502Y-6374180D01*
X9386417Y-6374638D01*
X9368434Y-6376974D01*
X9350806Y-6381089D01*
X9333738Y-6387084D01*
X9317329Y-6394754D01*
X9301784Y-6404051D01*
X9287306Y-6414922D01*
X9273997Y-6427216D01*
X9262059Y-6440830D01*
X9251543Y-6455613D01*
X9242653Y-6471361D01*
X9235389Y-6487972D01*
X9229902Y-6505194D01*
X9226194Y-6522923D01*
X9224314Y-6540957D01*
X9224314Y-6559042D01*
X9226194Y-6577075D01*
X9229902Y-6594805D01*
X9235389Y-6612026D01*
X9242653Y-6628638D01*
X9251543Y-6644386D01*
X9262059Y-6659168D01*
X9273997Y-6672783D01*
X9287306Y-6685076D01*
X9301784Y-6695948D01*
X9317329Y-6705244D01*
X9333738Y-6712915D01*
X9350806Y-6718909D01*
X9368434Y-6723024D01*
X9386417Y-6725361D01*
G37*
G36*
X3330041Y-6255969D02*
G01*
X8412581Y-6255918D01*
X8421420Y-6255105D01*
X8423859Y-6254699D01*
X8432495Y-6252565D01*
X8434832Y-6251803D01*
X8443061Y-6248400D01*
X8445246Y-6247282D01*
X8452866Y-6242659D01*
X8461705Y-6235598D01*
X9225432Y-5471871D01*
X9232493Y-5463032D01*
X9237116Y-5455412D01*
X9238234Y-5453227D01*
X9241637Y-5444998D01*
X9242399Y-5442661D01*
X9244533Y-5434025D01*
X9244939Y-5431586D01*
X9245752Y-5422747D01*
X9245752Y-3027324D01*
X9244939Y-3018485D01*
X9244533Y-3016046D01*
X9242399Y-3007410D01*
X9241637Y-3005074D01*
X9238234Y-2996844D01*
X9237116Y-2994660D01*
X9232493Y-2987040D01*
X9225432Y-2978200D01*
X8791651Y-2544419D01*
X8782812Y-2537358D01*
X8775192Y-2532735D01*
X8773007Y-2531618D01*
X8764778Y-2528214D01*
X8762441Y-2527452D01*
X8753805Y-2525318D01*
X8751366Y-2524912D01*
X8742527Y-2524099D01*
X8176412Y-2524099D01*
X8167573Y-2524912D01*
X8165134Y-2525318D01*
X8156498Y-2527452D01*
X8154162Y-2528214D01*
X8145932Y-2531618D01*
X8143748Y-2532735D01*
X8136128Y-2537358D01*
X8127288Y-2544419D01*
X8028787Y-2642870D01*
X8025790Y-2644902D01*
X8022285Y-2645816D01*
X8015325Y-2646273D01*
X8001914Y-2648915D01*
X7988960Y-2653334D01*
X7976666Y-2659380D01*
X7965287Y-2667000D01*
X7955025Y-2675991D01*
X7945983Y-2686304D01*
X7938363Y-2697683D01*
X7932318Y-2709976D01*
X7927949Y-2722930D01*
X7925257Y-2736342D01*
X7924342Y-2750007D01*
X7925257Y-2763672D01*
X7927949Y-2777083D01*
X7932318Y-2790037D01*
X7938363Y-2802331D01*
X7945983Y-2813710D01*
X7955025Y-2823972D01*
X7965287Y-2833014D01*
X7976666Y-2840583D01*
X7988960Y-2846679D01*
X8001914Y-2851048D01*
X8015325Y-2853740D01*
X8028990Y-2854604D01*
X8042656Y-2853740D01*
X8056067Y-2851048D01*
X8069021Y-2846679D01*
X8081314Y-2840583D01*
X8092694Y-2833014D01*
X8102955Y-2823972D01*
X8111998Y-2813710D01*
X8119618Y-2802331D01*
X8125663Y-2790037D01*
X8130031Y-2777083D01*
X8132724Y-2763672D01*
X8133181Y-2756763D01*
X8134045Y-2753207D01*
X8136128Y-2750210D01*
X8179104Y-2707233D01*
X8182406Y-2705049D01*
X8186267Y-2704287D01*
X8237270Y-2704287D01*
X8237270Y-2685999D01*
X8238032Y-2682138D01*
X8240268Y-2678836D01*
X8243519Y-2676601D01*
X8247430Y-2675839D01*
X8318550Y-2675839D01*
X8322411Y-2676601D01*
X8325713Y-2678836D01*
X8327948Y-2682138D01*
X8328710Y-2685999D01*
X8328710Y-2704287D01*
X8376869Y-2704287D01*
X8373618Y-2697683D01*
X8369553Y-2691638D01*
X8367979Y-2687624D01*
X8368233Y-2683256D01*
X8370316Y-2679395D01*
X8373770Y-2676804D01*
X8378037Y-2675839D01*
X8704224Y-2675839D01*
X8708136Y-2676601D01*
X8711438Y-2678836D01*
X9091015Y-3058414D01*
X9093250Y-3061716D01*
X9094012Y-3065627D01*
X9094012Y-3129889D01*
X9093047Y-3134156D01*
X9090456Y-3137611D01*
X9086596Y-3139643D01*
X9082227Y-3139897D01*
X9078214Y-3138322D01*
X9069273Y-3132378D01*
X9057030Y-3126333D01*
X9044076Y-3121914D01*
X9030614Y-3119272D01*
X9017000Y-3118358D01*
X9003334Y-3119272D01*
X8989923Y-3121914D01*
X8976918Y-3126333D01*
X8964676Y-3132378D01*
X8953296Y-3139998D01*
X8942984Y-3148990D01*
X8933992Y-3159302D01*
X8926372Y-3170682D01*
X8920327Y-3182975D01*
X8915908Y-3195929D01*
X8913266Y-3209340D01*
X8912352Y-3223006D01*
X8913266Y-3236671D01*
X8915908Y-3250082D01*
X8920327Y-3263036D01*
X8926372Y-3275329D01*
X8933992Y-3286709D01*
X8942984Y-3296970D01*
X8953296Y-3306013D01*
X8964676Y-3313582D01*
X8976918Y-3319678D01*
X8989923Y-3324047D01*
X9003334Y-3326739D01*
X9017000Y-3327603D01*
X9030614Y-3326739D01*
X9044076Y-3324047D01*
X9057030Y-3319678D01*
X9069273Y-3313582D01*
X9078214Y-3307638D01*
X9082227Y-3306064D01*
X9086596Y-3306318D01*
X9090456Y-3308400D01*
X9093047Y-3311855D01*
X9094012Y-3316122D01*
X9094012Y-3362198D01*
X9093250Y-3366058D01*
X9091015Y-3369360D01*
X9087713Y-3371596D01*
X9083852Y-3372358D01*
X8938818Y-3372358D01*
X8932468Y-3373069D01*
X8927033Y-3374948D01*
X8922105Y-3378047D01*
X8918041Y-3382162D01*
X8914942Y-3387039D01*
X8913063Y-3392525D01*
X8912352Y-3398824D01*
X8912352Y-3555187D01*
X8913063Y-3561486D01*
X8914942Y-3566922D01*
X8918041Y-3571849D01*
X8922105Y-3575913D01*
X8927033Y-3579012D01*
X8932468Y-3580942D01*
X8938818Y-3581654D01*
X8967927Y-3581654D01*
X8971838Y-3582415D01*
X8975140Y-3584600D01*
X8977325Y-3587902D01*
X8978087Y-3591814D01*
X8978087Y-3852672D01*
X8977325Y-3856532D01*
X8975140Y-3859834D01*
X7355382Y-5479592D01*
X7351572Y-5481980D01*
X7347102Y-5482488D01*
X7342835Y-5481015D01*
X7339634Y-5477865D01*
X7336180Y-5472430D01*
X7327392Y-5462016D01*
X7317231Y-5452872D01*
X7306005Y-5445150D01*
X7293864Y-5439003D01*
X7280960Y-5434533D01*
X7267600Y-5431840D01*
X7257592Y-5431129D01*
X7253884Y-5430164D01*
X7250785Y-5427878D01*
X7248753Y-5424576D01*
X7248144Y-5420766D01*
X7248956Y-5417007D01*
X7251090Y-5413806D01*
X7477201Y-5187899D01*
X7482382Y-5181600D01*
X7485989Y-5174894D01*
X7488174Y-5167630D01*
X7488986Y-5159552D01*
X7488986Y-4810252D01*
X7489748Y-4806391D01*
X7491933Y-4803089D01*
X8717280Y-3577742D01*
X8720378Y-3575608D01*
X8724036Y-3574745D01*
X8727744Y-3575304D01*
X8735923Y-3578047D01*
X8749334Y-3580739D01*
X8763000Y-3581603D01*
X8776614Y-3580739D01*
X8790076Y-3578047D01*
X8803030Y-3573678D01*
X8815273Y-3567582D01*
X8826652Y-3560013D01*
X8836964Y-3550970D01*
X8846007Y-3540709D01*
X8853576Y-3529329D01*
X8859621Y-3517036D01*
X8864041Y-3504082D01*
X8866733Y-3490671D01*
X8867597Y-3477006D01*
X8866733Y-3463340D01*
X8864041Y-3449929D01*
X8859621Y-3436975D01*
X8853576Y-3424682D01*
X8846007Y-3413302D01*
X8836964Y-3402990D01*
X8826652Y-3393998D01*
X8815273Y-3386378D01*
X8803030Y-3380333D01*
X8790076Y-3375914D01*
X8776614Y-3373272D01*
X8763000Y-3372358D01*
X8749334Y-3373272D01*
X8735923Y-3375914D01*
X8722918Y-3380333D01*
X8710676Y-3386378D01*
X8699296Y-3393998D01*
X8688984Y-3402990D01*
X8679992Y-3413302D01*
X8672372Y-3424682D01*
X8666327Y-3436975D01*
X8661908Y-3449929D01*
X8659266Y-3463340D01*
X8658352Y-3477006D01*
X8659266Y-3490671D01*
X8661908Y-3504082D01*
X8664702Y-3512261D01*
X8665210Y-3515969D01*
X8664397Y-3519627D01*
X8662263Y-3522726D01*
X7456220Y-4728768D01*
X7452918Y-4730953D01*
X7449058Y-4731715D01*
X7445146Y-4730953D01*
X7441844Y-4728768D01*
X7439659Y-4725466D01*
X7438898Y-4721555D01*
X7438898Y-3342284D01*
X7439761Y-3338118D01*
X7442301Y-3334715D01*
X7445959Y-3332581D01*
X7450226Y-3332175D01*
X7454239Y-3333546D01*
X7461961Y-3338118D01*
X7474508Y-3343452D01*
X7487666Y-3347008D01*
X7501178Y-3348837D01*
X7514793Y-3348837D01*
X7528306Y-3347008D01*
X7541463Y-3343452D01*
X7554010Y-3338118D01*
X7565745Y-3331159D01*
X7576464Y-3322726D01*
X7585964Y-3312922D01*
X7594041Y-3301898D01*
X7600594Y-3289960D01*
X7605471Y-3277260D01*
X7608671Y-3263950D01*
X7609992Y-3250387D01*
X7609586Y-3236772D01*
X7607300Y-3223310D01*
X7603236Y-3210306D01*
X7597495Y-3197910D01*
X7590180Y-3186430D01*
X7581392Y-3176016D01*
X7571231Y-3166872D01*
X7560005Y-3159150D01*
X7547864Y-3153003D01*
X7534960Y-3148533D01*
X7521600Y-3145840D01*
X7507986Y-3144926D01*
X7494371Y-3145840D01*
X7481011Y-3148533D01*
X7468158Y-3153003D01*
X7455966Y-3159150D01*
X7454798Y-3159963D01*
X7450734Y-3161588D01*
X7446365Y-3161385D01*
X7442504Y-3159353D01*
X7439812Y-3155848D01*
X7438898Y-3151581D01*
X7438898Y-2839262D01*
X7439609Y-2835503D01*
X7441692Y-2832252D01*
X7444841Y-2830017D01*
X7448600Y-2829153D01*
X7452410Y-2829712D01*
X7455763Y-2831642D01*
X7457287Y-2833014D01*
X7468666Y-2840583D01*
X7480960Y-2846679D01*
X7493914Y-2851048D01*
X7507325Y-2853740D01*
X7520990Y-2854604D01*
X7534656Y-2853740D01*
X7548067Y-2851048D01*
X7561021Y-2846679D01*
X7573314Y-2840583D01*
X7584694Y-2833014D01*
X7594955Y-2823972D01*
X7603998Y-2813710D01*
X7611618Y-2802331D01*
X7617663Y-2790037D01*
X7622031Y-2777083D01*
X7624724Y-2763672D01*
X7625638Y-2750007D01*
X7624724Y-2736342D01*
X7622031Y-2722930D01*
X7617663Y-2709976D01*
X7611618Y-2697683D01*
X7603998Y-2686304D01*
X7594955Y-2675991D01*
X7584694Y-2667000D01*
X7573314Y-2659380D01*
X7561021Y-2653334D01*
X7548067Y-2648915D01*
X7534656Y-2646273D01*
X7520990Y-2645359D01*
X7507325Y-2646273D01*
X7493914Y-2648915D01*
X7480960Y-2653334D01*
X7468666Y-2659380D01*
X7457287Y-2667000D01*
X7449362Y-2673908D01*
X7446264Y-2675788D01*
X7442708Y-2676448D01*
X7439101Y-2675788D01*
X7436002Y-2673908D01*
X7433716Y-2671064D01*
X7432294Y-2668422D01*
X7427163Y-2662123D01*
X6587845Y-1822856D01*
X6581597Y-1817674D01*
X6574840Y-1814118D01*
X6567576Y-1811883D01*
X6559499Y-1811070D01*
X6472326Y-1811070D01*
X6468364Y-1810257D01*
X6465011Y-1807972D01*
X6462826Y-1804517D01*
X6462166Y-1800504D01*
X6463182Y-1796542D01*
X6465620Y-1793290D01*
X6473952Y-1785975D01*
X6482994Y-1775663D01*
X6490614Y-1764284D01*
X6496659Y-1752041D01*
X6501028Y-1739087D01*
X6503720Y-1725675D01*
X6504635Y-1712010D01*
X6503720Y-1698345D01*
X6501028Y-1684934D01*
X6496659Y-1671980D01*
X6490614Y-1659686D01*
X6482994Y-1648307D01*
X6473952Y-1637995D01*
X6472478Y-1636725D01*
X6469989Y-1633474D01*
X6469024Y-1629511D01*
X6469684Y-1625498D01*
X6471818Y-1622044D01*
X6475171Y-1619707D01*
X6479184Y-1618894D01*
X6529679Y-1618894D01*
X6533540Y-1619656D01*
X6536842Y-1621891D01*
X7272121Y-2357170D01*
X7278420Y-2362301D01*
X7285126Y-2365908D01*
X7292390Y-2368092D01*
X7300468Y-2368905D01*
X7599476Y-2368905D01*
X7607553Y-2368092D01*
X7614869Y-2365908D01*
X7621574Y-2362301D01*
X7627823Y-2357170D01*
X7657388Y-2327605D01*
X7660690Y-2325420D01*
X7664551Y-2324658D01*
X7788148Y-2324658D01*
X7794498Y-2323947D01*
X7799933Y-2322017D01*
X7804861Y-2318918D01*
X7808925Y-2314854D01*
X7812024Y-2309926D01*
X7813903Y-2304491D01*
X7814614Y-2298141D01*
X7814614Y-2141829D01*
X7813903Y-2135479D01*
X7812024Y-2130044D01*
X7808925Y-2125167D01*
X7804861Y-2121052D01*
X7799933Y-2117953D01*
X7794498Y-2116074D01*
X7788148Y-2115362D01*
X7640066Y-2115362D01*
X7636205Y-2114550D01*
X7632903Y-2112365D01*
X7630718Y-2109063D01*
X7629906Y-2105202D01*
X7630718Y-2101291D01*
X7632903Y-2097989D01*
X7664196Y-2066696D01*
X7667294Y-2064562D01*
X7670952Y-2063750D01*
X7674660Y-2064257D01*
X7682890Y-2067052D01*
X7696352Y-2069744D01*
X7709966Y-2070607D01*
X7723631Y-2069744D01*
X7737043Y-2067052D01*
X7750048Y-2062632D01*
X7762290Y-2056587D01*
X7773670Y-2049018D01*
X7783982Y-2039975D01*
X7792974Y-2029663D01*
X7800594Y-2018284D01*
X7806639Y-2006041D01*
X7811058Y-1993087D01*
X7813700Y-1979675D01*
X7814614Y-1966010D01*
X7813700Y-1952345D01*
X7811058Y-1938934D01*
X7806639Y-1925980D01*
X7800594Y-1913686D01*
X7792974Y-1902307D01*
X7783982Y-1891995D01*
X7773670Y-1883003D01*
X7762290Y-1875383D01*
X7750048Y-1869338D01*
X7737043Y-1864918D01*
X7723631Y-1862277D01*
X7709966Y-1861362D01*
X7696352Y-1862277D01*
X7682890Y-1864918D01*
X7669936Y-1869338D01*
X7657693Y-1875383D01*
X7646314Y-1883003D01*
X7636002Y-1891995D01*
X7626959Y-1902307D01*
X7619390Y-1913686D01*
X7613345Y-1925980D01*
X7608925Y-1938934D01*
X7606233Y-1952345D01*
X7605369Y-1966010D01*
X7606233Y-1979675D01*
X7608925Y-1993087D01*
X7611668Y-2001164D01*
X7612176Y-2004872D01*
X7611364Y-2008530D01*
X7609230Y-2011629D01*
X7582712Y-2038146D01*
X7579410Y-2040331D01*
X7575550Y-2041093D01*
X7550353Y-2041093D01*
X7546136Y-2040178D01*
X7542631Y-2037537D01*
X7540599Y-2033676D01*
X7540345Y-2029358D01*
X7541920Y-2025294D01*
X7546594Y-2018284D01*
X7552639Y-2006041D01*
X7557058Y-1993087D01*
X7559700Y-1979675D01*
X7560614Y-1966010D01*
X7559700Y-1952345D01*
X7557058Y-1938934D01*
X7552639Y-1925980D01*
X7546594Y-1913686D01*
X7538974Y-1902307D01*
X7529982Y-1891995D01*
X7519670Y-1883003D01*
X7508290Y-1875383D01*
X7496048Y-1869338D01*
X7483043Y-1864918D01*
X7469631Y-1862277D01*
X7455966Y-1861362D01*
X7442352Y-1862277D01*
X7428890Y-1864918D01*
X7420711Y-1867712D01*
X7417003Y-1868220D01*
X7413396Y-1867407D01*
X7410297Y-1865274D01*
X6937857Y-1392834D01*
X6931558Y-1387703D01*
X6924852Y-1384096D01*
X6917588Y-1381861D01*
X6909511Y-1381099D01*
X5840476Y-1381099D01*
X5832398Y-1381861D01*
X5825134Y-1384096D01*
X5818378Y-1387703D01*
X5812129Y-1392834D01*
X5666841Y-1538122D01*
X5663539Y-1540306D01*
X5659678Y-1541068D01*
X5532374Y-1541068D01*
X5528157Y-1540154D01*
X5524703Y-1537614D01*
X5522620Y-1533804D01*
X5522315Y-1529537D01*
X5523788Y-1525473D01*
X5529935Y-1515770D01*
X5536133Y-1502613D01*
X5540603Y-1488795D01*
X5543346Y-1474470D01*
X5544261Y-1459941D01*
X5543346Y-1445412D01*
X5540603Y-1431137D01*
X5536133Y-1417320D01*
X5529935Y-1404112D01*
X5522112Y-1391818D01*
X5512866Y-1380642D01*
X5502249Y-1370685D01*
X5490464Y-1362100D01*
X5477713Y-1355090D01*
X5464200Y-1349756D01*
X5450078Y-1346149D01*
X5435650Y-1344320D01*
X5421122Y-1344320D01*
X5406644Y-1346149D01*
X5392572Y-1349756D01*
X5379059Y-1355090D01*
X5366308Y-1362100D01*
X5354523Y-1370685D01*
X5343906Y-1380642D01*
X5334609Y-1391818D01*
X5326837Y-1404112D01*
X5320639Y-1417320D01*
X5316118Y-1431137D01*
X5313426Y-1445412D01*
X5312511Y-1459941D01*
X5313426Y-1474470D01*
X5316118Y-1488795D01*
X5320639Y-1502613D01*
X5326837Y-1515770D01*
X5332984Y-1525473D01*
X5334457Y-1529537D01*
X5334152Y-1533804D01*
X5332069Y-1537614D01*
X5328615Y-1540154D01*
X5324398Y-1541068D01*
X5022342Y-1541068D01*
X5018125Y-1540154D01*
X5014671Y-1537614D01*
X5012588Y-1533804D01*
X5012283Y-1529537D01*
X5013756Y-1525473D01*
X5019903Y-1515770D01*
X5026101Y-1502613D01*
X5030571Y-1488795D01*
X5033314Y-1474470D01*
X5034229Y-1459941D01*
X5033314Y-1445412D01*
X5030571Y-1431137D01*
X5026101Y-1417320D01*
X5019903Y-1404112D01*
X5012080Y-1391818D01*
X5002834Y-1380642D01*
X4992217Y-1370685D01*
X4980432Y-1362100D01*
X4967681Y-1355090D01*
X4954168Y-1349756D01*
X4940046Y-1346149D01*
X4925618Y-1344320D01*
X4911090Y-1344320D01*
X4896612Y-1346149D01*
X4882540Y-1349756D01*
X4869027Y-1355090D01*
X4856276Y-1362100D01*
X4844491Y-1370685D01*
X4833874Y-1380642D01*
X4824577Y-1391818D01*
X4816805Y-1404112D01*
X4810607Y-1417320D01*
X4806086Y-1431137D01*
X4803394Y-1445412D01*
X4802479Y-1459941D01*
X4803394Y-1474470D01*
X4806086Y-1488795D01*
X4810607Y-1502613D01*
X4816805Y-1515770D01*
X4822952Y-1525473D01*
X4824425Y-1529537D01*
X4824120Y-1533804D01*
X4822037Y-1537614D01*
X4818583Y-1540154D01*
X4814366Y-1541068D01*
X4627473Y-1541068D01*
X4619396Y-1541881D01*
X4612132Y-1544116D01*
X4605426Y-1547672D01*
X4599127Y-1552854D01*
X3509619Y-2642362D01*
X3506317Y-2644597D01*
X3502406Y-2645359D01*
X3378809Y-2645359D01*
X3372510Y-2646070D01*
X3367024Y-2647950D01*
X3362147Y-2651048D01*
X3358032Y-2655163D01*
X3354984Y-2660040D01*
X3353054Y-2665526D01*
X3352342Y-2671826D01*
X3352342Y-2828188D01*
X3353054Y-2834487D01*
X3354984Y-2839923D01*
X3358032Y-2844850D01*
X3362147Y-2848914D01*
X3367024Y-2852013D01*
X3372510Y-2853944D01*
X3378809Y-2854655D01*
X3535172Y-2854655D01*
X3541471Y-2853944D01*
X3546957Y-2852013D01*
X3551834Y-2848914D01*
X3555949Y-2844850D01*
X3558997Y-2839923D01*
X3560927Y-2834487D01*
X3561638Y-2828188D01*
X3561638Y-2704592D01*
X3562400Y-2700680D01*
X3564636Y-2697378D01*
X4640122Y-1621891D01*
X4643424Y-1619656D01*
X4647336Y-1618894D01*
X5679490Y-1618894D01*
X5687568Y-1618132D01*
X5694883Y-1615897D01*
X5701588Y-1612290D01*
X5707837Y-1607159D01*
X5853125Y-1461871D01*
X5856427Y-1459687D01*
X5861354Y-1458925D01*
X5865215Y-1459687D01*
X5868517Y-1461871D01*
X5870702Y-1465173D01*
X5871514Y-1469085D01*
X5870702Y-1472946D01*
X5868517Y-1476248D01*
X4699762Y-2645257D01*
X4697374Y-2648204D01*
X4695291Y-2650083D01*
X4692751Y-2651353D01*
X4686960Y-2653334D01*
X4674666Y-2659380D01*
X4663287Y-2667000D01*
X4653026Y-2675991D01*
X4643983Y-2686304D01*
X4636363Y-2697683D01*
X4630318Y-2709976D01*
X4625949Y-2722930D01*
X4623257Y-2736342D01*
X4622342Y-2750007D01*
X4623257Y-2763672D01*
X4625949Y-2777083D01*
X4630318Y-2790037D01*
X4636363Y-2802331D01*
X4643983Y-2813710D01*
X4653026Y-2823972D01*
X4663287Y-2833014D01*
X4674666Y-2840583D01*
X4686960Y-2846679D01*
X4699914Y-2851048D01*
X4713325Y-2853740D01*
X4726990Y-2854604D01*
X4740656Y-2853740D01*
X4754067Y-2851048D01*
X4767021Y-2846679D01*
X4779314Y-2840583D01*
X4790694Y-2833014D01*
X4800955Y-2823972D01*
X4809998Y-2813710D01*
X4817618Y-2802331D01*
X4823663Y-2790037D01*
X4828032Y-2777083D01*
X4830724Y-2763672D01*
X4831638Y-2750007D01*
X4830724Y-2736342D01*
X4828032Y-2722930D01*
X4823663Y-2709976D01*
X4817618Y-2697683D01*
X4809998Y-2686304D01*
X4800955Y-2675991D01*
X4797450Y-2672892D01*
X4794961Y-2669641D01*
X4793996Y-2665628D01*
X4794707Y-2661564D01*
X4796942Y-2658110D01*
X4924704Y-2530348D01*
X4928006Y-2528112D01*
X4931867Y-2527350D01*
X4935778Y-2528112D01*
X4939080Y-2530348D01*
X4941265Y-2533650D01*
X4942027Y-2537510D01*
X4942027Y-2646476D01*
X4941316Y-2650185D01*
X4939385Y-2653334D01*
X4936388Y-2655570D01*
X4928666Y-2659380D01*
X4917287Y-2667000D01*
X4907026Y-2675991D01*
X4897983Y-2686304D01*
X4890363Y-2697683D01*
X4884318Y-2709976D01*
X4879949Y-2722930D01*
X4877257Y-2736342D01*
X4876342Y-2750007D01*
X4877257Y-2763672D01*
X4879949Y-2777083D01*
X4884318Y-2790037D01*
X4890363Y-2802331D01*
X4897983Y-2813710D01*
X4907026Y-2823972D01*
X4917287Y-2833014D01*
X4928666Y-2840583D01*
X4940960Y-2846679D01*
X4953914Y-2851048D01*
X4967325Y-2853740D01*
X4980990Y-2854604D01*
X4994656Y-2853740D01*
X5008067Y-2851048D01*
X5021021Y-2846679D01*
X5033314Y-2840583D01*
X5044694Y-2833014D01*
X5054955Y-2823972D01*
X5063998Y-2813710D01*
X5071618Y-2802331D01*
X5077663Y-2790037D01*
X5082032Y-2777083D01*
X5084724Y-2763672D01*
X5085638Y-2750007D01*
X5084724Y-2736342D01*
X5082032Y-2722930D01*
X5077663Y-2709976D01*
X5071618Y-2697683D01*
X5063998Y-2686304D01*
X5054955Y-2675991D01*
X5044694Y-2667000D01*
X5033314Y-2659380D01*
X5025491Y-2655570D01*
X5022494Y-2653284D01*
X5020564Y-2650134D01*
X5019852Y-2646426D01*
X5019852Y-2539238D01*
X5020614Y-2535377D01*
X5022799Y-2532075D01*
X5993079Y-1561795D01*
X5996381Y-1559610D01*
X6000242Y-1558848D01*
X6051600Y-1558848D01*
X6055461Y-1559610D01*
X6058763Y-1561795D01*
X6060998Y-1565097D01*
X6061760Y-1569008D01*
X6060998Y-1572869D01*
X6058763Y-1576171D01*
X5207812Y-2427122D01*
X5202682Y-2433421D01*
X5199075Y-2440127D01*
X5196890Y-2447391D01*
X5196078Y-2455468D01*
X5196078Y-2646476D01*
X5195417Y-2650134D01*
X5193436Y-2653334D01*
X5190439Y-2655570D01*
X5182666Y-2659380D01*
X5171287Y-2667000D01*
X5161026Y-2675991D01*
X5151983Y-2686304D01*
X5144363Y-2697683D01*
X5138318Y-2709976D01*
X5133949Y-2722930D01*
X5131257Y-2736342D01*
X5130342Y-2750007D01*
X5131257Y-2763672D01*
X5133949Y-2777083D01*
X5138318Y-2790037D01*
X5144363Y-2802331D01*
X5151983Y-2813710D01*
X5161026Y-2823972D01*
X5171287Y-2833014D01*
X5182666Y-2840583D01*
X5194960Y-2846679D01*
X5207914Y-2851048D01*
X5221325Y-2853740D01*
X5234990Y-2854604D01*
X5248656Y-2853740D01*
X5262067Y-2851048D01*
X5275021Y-2846679D01*
X5287314Y-2840583D01*
X5298694Y-2833014D01*
X5308955Y-2823972D01*
X5317998Y-2813710D01*
X5325618Y-2802331D01*
X5331663Y-2790037D01*
X5336032Y-2777083D01*
X5338724Y-2763672D01*
X5339638Y-2750007D01*
X5338724Y-2736342D01*
X5336032Y-2722930D01*
X5331663Y-2709976D01*
X5325618Y-2697683D01*
X5317998Y-2686304D01*
X5308955Y-2675991D01*
X5298694Y-2667000D01*
X5287314Y-2659380D01*
X5279593Y-2655570D01*
X5276596Y-2653334D01*
X5274614Y-2650134D01*
X5273903Y-2646476D01*
X5273903Y-2475331D01*
X5274665Y-2471420D01*
X5276900Y-2468118D01*
X6075781Y-1669237D01*
X6079032Y-1667052D01*
X6082944Y-1666290D01*
X6100267Y-1666290D01*
X6100267Y-1648968D01*
X6101029Y-1645056D01*
X6103264Y-1641754D01*
X6123127Y-1621891D01*
X6126429Y-1619656D01*
X6130290Y-1618894D01*
X6181547Y-1618894D01*
X6185458Y-1619656D01*
X6188710Y-1621891D01*
X6190945Y-1625193D01*
X6191707Y-1629054D01*
X6191707Y-1666290D01*
X6239865Y-1666290D01*
X6236614Y-1659686D01*
X6228994Y-1648307D01*
X6219952Y-1637995D01*
X6218478Y-1636725D01*
X6215989Y-1633474D01*
X6215024Y-1629511D01*
X6215684Y-1625498D01*
X6217818Y-1622044D01*
X6221171Y-1619707D01*
X6225184Y-1618894D01*
X6320790Y-1618894D01*
X6324803Y-1619707D01*
X6328156Y-1622044D01*
X6330289Y-1625498D01*
X6330950Y-1629511D01*
X6329984Y-1633474D01*
X6327495Y-1636725D01*
X6326022Y-1637995D01*
X6316980Y-1648307D01*
X6309360Y-1659686D01*
X6303314Y-1671980D01*
X6298946Y-1684934D01*
X6296253Y-1698345D01*
X6295339Y-1712010D01*
X6296253Y-1725675D01*
X6298946Y-1739087D01*
X6303314Y-1752041D01*
X6309360Y-1764284D01*
X6316980Y-1775663D01*
X6326022Y-1785975D01*
X6334556Y-1793493D01*
X6336944Y-1796592D01*
X6338011Y-1800352D01*
X6337554Y-1804263D01*
X6335674Y-1807667D01*
X6332626Y-1810105D01*
X6328867Y-1811223D01*
X6322415Y-1811883D01*
X6315100Y-1814118D01*
X6308394Y-1817674D01*
X6302146Y-1822856D01*
X6262827Y-1862124D01*
X6257696Y-1868424D01*
X6254089Y-1875129D01*
X6251854Y-1882393D01*
X6251092Y-1890471D01*
X6251092Y-1901850D01*
X6250178Y-1906066D01*
X6247638Y-1909521D01*
X6243878Y-1911604D01*
X6239611Y-1911959D01*
X6235547Y-1910486D01*
X6232448Y-1907489D01*
X6228994Y-1902307D01*
X6219952Y-1891995D01*
X6209690Y-1883003D01*
X6198311Y-1875383D01*
X6186017Y-1869338D01*
X6173063Y-1864918D01*
X6159652Y-1862277D01*
X6145987Y-1861362D01*
X6132322Y-1862277D01*
X6118910Y-1864918D01*
X6105956Y-1869338D01*
X6093663Y-1875383D01*
X6082284Y-1883003D01*
X6072022Y-1891995D01*
X6062980Y-1902307D01*
X6055360Y-1913686D01*
X6049314Y-1925980D01*
X6044946Y-1938934D01*
X6042253Y-1952345D01*
X6041339Y-1966010D01*
X6042253Y-1979675D01*
X6044946Y-1993087D01*
X6047689Y-2001266D01*
X6048248Y-2004974D01*
X6047384Y-2008632D01*
X6045250Y-2011680D01*
X5992825Y-2064156D01*
X5987694Y-2070404D01*
X5984087Y-2077110D01*
X5981852Y-2084425D01*
X5981090Y-2092502D01*
X5981090Y-2299512D01*
X5981852Y-2307590D01*
X5984087Y-2314854D01*
X5987694Y-2321560D01*
X5992825Y-2327859D01*
X6182106Y-2517140D01*
X6188405Y-2522321D01*
X6195110Y-2525877D01*
X6202426Y-2528112D01*
X6210503Y-2528925D01*
X6478676Y-2528925D01*
X6482537Y-2529687D01*
X6485839Y-2531872D01*
X6658254Y-2704287D01*
X6660388Y-2707386D01*
X6661251Y-2711043D01*
X6660692Y-2714752D01*
X6657949Y-2722930D01*
X6655257Y-2736342D01*
X6654342Y-2750007D01*
X6655257Y-2763672D01*
X6657949Y-2777083D01*
X6662318Y-2790037D01*
X6668363Y-2802331D01*
X6675983Y-2813710D01*
X6685025Y-2823972D01*
X6695287Y-2833014D01*
X6706666Y-2840583D01*
X6718960Y-2846679D01*
X6731914Y-2851048D01*
X6745325Y-2853740D01*
X6758990Y-2854604D01*
X6772656Y-2853740D01*
X6786067Y-2851048D01*
X6799021Y-2846679D01*
X6811314Y-2840583D01*
X6822694Y-2833014D01*
X6824319Y-2831541D01*
X6827672Y-2829610D01*
X6831482Y-2829052D01*
X6835241Y-2829915D01*
X6838391Y-2832150D01*
X6840474Y-2835402D01*
X6841185Y-2839212D01*
X6841185Y-3174085D01*
X6840372Y-3178098D01*
X6838035Y-3181451D01*
X6834530Y-3183636D01*
X6830466Y-3184245D01*
X6826503Y-3183178D01*
X6823252Y-3180638D01*
X6819392Y-3176016D01*
X6809231Y-3166872D01*
X6798005Y-3159150D01*
X6785864Y-3153003D01*
X6772960Y-3148533D01*
X6759600Y-3145840D01*
X6745986Y-3144926D01*
X6732371Y-3145840D01*
X6719011Y-3148533D01*
X6706158Y-3153003D01*
X6693966Y-3159150D01*
X6682740Y-3166872D01*
X6672630Y-3176016D01*
X6663791Y-3186430D01*
X6656476Y-3197910D01*
X6650736Y-3210306D01*
X6646672Y-3223310D01*
X6644436Y-3236772D01*
X6643979Y-3250387D01*
X6645300Y-3263950D01*
X6648500Y-3277260D01*
X6653377Y-3289960D01*
X6659930Y-3301898D01*
X6668008Y-3312922D01*
X6677507Y-3322726D01*
X6688226Y-3331159D01*
X6699961Y-3338118D01*
X6712508Y-3343452D01*
X6725666Y-3347008D01*
X6739178Y-3348837D01*
X6752793Y-3348837D01*
X6766306Y-3347008D01*
X6779463Y-3343452D01*
X6792010Y-3338118D01*
X6803745Y-3331159D01*
X6814464Y-3322726D01*
X6823709Y-3313125D01*
X6827012Y-3310839D01*
X6830923Y-3310026D01*
X6834835Y-3310788D01*
X6838188Y-3312972D01*
X6840423Y-3316274D01*
X6841185Y-3320186D01*
X6841185Y-4870704D01*
X6840423Y-4874564D01*
X6838188Y-4877866D01*
X6281623Y-5434279D01*
X6278524Y-5436362D01*
X6274816Y-5437225D01*
X6271107Y-5436666D01*
X6264960Y-5434533D01*
X6251600Y-5431840D01*
X6237986Y-5430926D01*
X6224371Y-5431840D01*
X6211011Y-5434533D01*
X6198158Y-5439003D01*
X6185966Y-5445150D01*
X6174740Y-5452872D01*
X6164630Y-5462016D01*
X6156909Y-5471160D01*
X6153658Y-5473700D01*
X6149695Y-5474716D01*
X6145631Y-5474106D01*
X6142126Y-5471972D01*
X6139789Y-5468620D01*
X6138976Y-5464606D01*
X6138976Y-4940554D01*
X6138164Y-4932476D01*
X6135979Y-4925161D01*
X6132372Y-4918456D01*
X6127242Y-4912156D01*
X5511850Y-4296816D01*
X5509666Y-4293514D01*
X5508904Y-4289653D01*
X5508904Y-4260494D01*
X5508091Y-4252417D01*
X5505907Y-4245102D01*
X5502300Y-4238396D01*
X5497169Y-4232148D01*
X4611878Y-3346856D01*
X4609693Y-3343554D01*
X4608880Y-3339693D01*
X4608880Y-3306876D01*
X4609795Y-3302711D01*
X4612233Y-3299307D01*
X4615891Y-3297174D01*
X4620107Y-3296767D01*
X4624120Y-3298037D01*
X4627270Y-3300882D01*
X4636058Y-3312922D01*
X4645507Y-3322726D01*
X4656226Y-3331159D01*
X4667961Y-3338118D01*
X4680508Y-3343452D01*
X4693666Y-3347008D01*
X4707178Y-3348837D01*
X4720793Y-3348837D01*
X4734306Y-3347008D01*
X4747463Y-3343452D01*
X4760010Y-3338118D01*
X4771745Y-3331159D01*
X4782464Y-3322726D01*
X4791964Y-3312922D01*
X4800041Y-3301898D01*
X4806594Y-3289960D01*
X4811471Y-3277260D01*
X4814671Y-3263950D01*
X4815992Y-3250387D01*
X4815586Y-3236772D01*
X4813300Y-3223310D01*
X4809236Y-3210306D01*
X4803495Y-3197910D01*
X4796180Y-3186430D01*
X4787392Y-3176016D01*
X4777232Y-3166872D01*
X4766005Y-3159150D01*
X4753864Y-3153003D01*
X4740960Y-3148533D01*
X4727600Y-3145840D01*
X4713986Y-3144926D01*
X4700371Y-3145840D01*
X4687011Y-3148533D01*
X4674158Y-3153003D01*
X4669993Y-3155086D01*
X4665929Y-3156153D01*
X4661763Y-3155492D01*
X4658258Y-3153206D01*
X4601159Y-3096107D01*
X4598924Y-3092805D01*
X4598162Y-3088944D01*
X4598924Y-3085033D01*
X4601159Y-3081731D01*
X4604461Y-3079546D01*
X4608322Y-3078784D01*
X6010656Y-3078784D01*
X6014516Y-3079546D01*
X6017818Y-3081731D01*
X6139230Y-3203194D01*
X6141313Y-3206191D01*
X6142228Y-3209747D01*
X6141770Y-3213354D01*
X6138672Y-3223310D01*
X6136436Y-3236772D01*
X6135979Y-3250387D01*
X6137300Y-3263950D01*
X6140500Y-3277260D01*
X6145377Y-3289960D01*
X6151930Y-3301898D01*
X6160008Y-3312922D01*
X6169507Y-3322726D01*
X6180226Y-3331159D01*
X6191961Y-3338118D01*
X6204508Y-3343452D01*
X6217666Y-3347008D01*
X6231178Y-3348837D01*
X6244793Y-3348837D01*
X6258306Y-3347008D01*
X6271463Y-3343452D01*
X6284010Y-3338118D01*
X6295745Y-3331159D01*
X6306464Y-3322726D01*
X6315964Y-3312922D01*
X6324041Y-3301898D01*
X6330594Y-3289960D01*
X6335471Y-3277260D01*
X6338671Y-3263950D01*
X6339992Y-3250387D01*
X6339586Y-3236772D01*
X6337300Y-3223310D01*
X6333236Y-3210306D01*
X6327495Y-3197910D01*
X6320180Y-3186430D01*
X6311392Y-3176016D01*
X6301232Y-3166872D01*
X6290005Y-3159150D01*
X6277864Y-3153003D01*
X6264960Y-3148533D01*
X6251600Y-3145840D01*
X6237986Y-3144926D01*
X6224371Y-3145840D01*
X6211011Y-3148533D01*
X6204915Y-3150666D01*
X6201156Y-3151225D01*
X6197498Y-3150362D01*
X6194399Y-3148228D01*
X6058865Y-3012694D01*
X6052566Y-3007563D01*
X6045860Y-3003956D01*
X6038545Y-3001772D01*
X6030468Y-3000959D01*
X5358688Y-3000959D01*
X5354828Y-3000197D01*
X5351526Y-2998012D01*
X5349290Y-2994710D01*
X5348528Y-2990799D01*
X5349290Y-2986938D01*
X5351526Y-2983636D01*
X5477611Y-2857347D01*
X5481218Y-2855010D01*
X5485485Y-2854401D01*
X5488990Y-2854604D01*
X5502656Y-2853740D01*
X5516067Y-2851048D01*
X5529021Y-2846679D01*
X5541314Y-2840583D01*
X5552694Y-2833014D01*
X5562955Y-2823972D01*
X5571998Y-2813710D01*
X5579618Y-2802331D01*
X5585663Y-2790037D01*
X5590032Y-2777083D01*
X5592724Y-2763672D01*
X5593638Y-2750007D01*
X5592724Y-2736342D01*
X5590032Y-2722930D01*
X5585663Y-2709976D01*
X5579618Y-2697683D01*
X5571998Y-2686304D01*
X5562955Y-2675991D01*
X5552694Y-2667000D01*
X5541314Y-2659380D01*
X5529021Y-2653334D01*
X5516067Y-2648915D01*
X5502656Y-2646273D01*
X5488990Y-2645359D01*
X5475325Y-2646273D01*
X5461914Y-2648915D01*
X5448960Y-2653334D01*
X5436666Y-2659380D01*
X5425287Y-2667000D01*
X5415026Y-2675991D01*
X5405983Y-2686304D01*
X5398363Y-2697683D01*
X5392318Y-2709976D01*
X5387949Y-2722930D01*
X5385257Y-2736342D01*
X5384342Y-2750007D01*
X5385257Y-2763672D01*
X5387949Y-2777083D01*
X5392318Y-2790037D01*
X5398363Y-2802331D01*
X5403443Y-2809900D01*
X5404866Y-2813100D01*
X5405120Y-2816555D01*
X5404205Y-2819908D01*
X5402224Y-2822752D01*
X5276900Y-2948178D01*
X5273598Y-2950413D01*
X5269738Y-2951175D01*
X3720592Y-2951175D01*
X3712565Y-2951988D01*
X3705250Y-2954172D01*
X3698544Y-2957779D01*
X3692245Y-2962910D01*
X3562908Y-3091992D01*
X3557727Y-3098241D01*
X3554171Y-3104997D01*
X3551936Y-3112262D01*
X3551123Y-3120339D01*
X3551123Y-3190748D01*
X3550208Y-3194964D01*
X3547618Y-3198418D01*
X3543808Y-3200501D01*
X3539490Y-3200806D01*
X3535476Y-3199282D01*
X3532428Y-3196183D01*
X3526180Y-3186430D01*
X3517392Y-3176016D01*
X3507232Y-3166872D01*
X3496005Y-3159150D01*
X3488436Y-3155340D01*
X3488436Y-3202533D01*
X3540963Y-3202533D01*
X3544874Y-3203295D01*
X3548176Y-3205530D01*
X3550361Y-3208832D01*
X3551123Y-3212693D01*
X3551123Y-3281273D01*
X3550361Y-3285185D01*
X3548176Y-3288487D01*
X3544874Y-3290671D01*
X3540963Y-3291433D01*
X3488436Y-3291433D01*
X3488436Y-3338779D01*
X3490010Y-3338118D01*
X3501745Y-3331159D01*
X3512464Y-3322726D01*
X3521964Y-3312922D01*
X3530041Y-3301898D01*
X3532073Y-3298240D01*
X3534968Y-3294887D01*
X3539032Y-3293110D01*
X3543503Y-3293262D01*
X3547465Y-3295294D01*
X3550158Y-3298799D01*
X3551123Y-3303117D01*
X3551123Y-3550920D01*
X3550361Y-3554780D01*
X3548176Y-3558082D01*
X1832914Y-5273294D01*
X1829663Y-5275529D01*
X1825752Y-5276291D01*
X1821840Y-5275529D01*
X1818589Y-5273294D01*
X1479042Y-4933797D01*
X1477010Y-4930902D01*
X1476095Y-4927498D01*
X1475486Y-4920183D01*
X1472946Y-4910734D01*
X1468780Y-4901793D01*
X1463141Y-4893767D01*
X1456232Y-4886807D01*
X1448155Y-4881168D01*
X1439265Y-4877054D01*
X1429766Y-4874514D01*
X1420012Y-4873650D01*
X1409852Y-4874514D01*
X1405737Y-4874006D01*
X1402130Y-4871872D01*
X1399692Y-4868519D01*
X1398828Y-4864404D01*
X1398828Y-4670399D01*
X1399590Y-4666488D01*
X1401775Y-4663236D01*
X1547164Y-4517847D01*
X1552295Y-4511598D01*
X1555902Y-4504842D01*
X1558086Y-4497578D01*
X1558899Y-4489500D01*
X1558899Y-3770477D01*
X1558086Y-3762400D01*
X1555902Y-3755136D01*
X1552295Y-3748379D01*
X1547164Y-3742131D01*
X1509115Y-3704082D01*
X1507083Y-3701186D01*
X1506169Y-3697782D01*
X1505508Y-3690213D01*
X1502968Y-3680714D01*
X1498803Y-3671824D01*
X1493164Y-3663746D01*
X1486255Y-3656837D01*
X1478178Y-3651199D01*
X1469288Y-3647033D01*
X1459788Y-3644493D01*
X1450035Y-3643629D01*
X1440230Y-3644493D01*
X1430731Y-3647033D01*
X1421587Y-3651300D01*
X1417675Y-3652265D01*
X1413662Y-3651605D01*
X1410258Y-3649472D01*
X1407972Y-3646170D01*
X1407109Y-3642258D01*
X1407871Y-3638296D01*
X1410106Y-3634943D01*
X1487170Y-3557879D01*
X1492300Y-3551580D01*
X1495907Y-3544874D01*
X1498092Y-3537559D01*
X1498904Y-3529482D01*
X1498904Y-3164687D01*
X1499666Y-3160776D01*
X1501902Y-3157474D01*
X1503172Y-3156204D01*
X1508810Y-3148177D01*
X1512925Y-3139236D01*
X1515465Y-3129788D01*
X1516329Y-3119983D01*
X1515465Y-3110179D01*
X1512925Y-3100730D01*
X1508810Y-3091789D01*
X1503172Y-3083763D01*
X1496212Y-3076803D01*
X1488186Y-3071164D01*
X1479245Y-3067050D01*
X1469796Y-3064510D01*
X1459992Y-3063646D01*
X1450187Y-3064510D01*
X1440738Y-3067050D01*
X1431798Y-3071164D01*
X1423771Y-3076803D01*
X1416812Y-3083763D01*
X1411173Y-3091789D01*
X1407058Y-3100730D01*
X1404518Y-3110179D01*
X1403654Y-3119983D01*
X1404518Y-3129788D01*
X1407058Y-3139236D01*
X1411173Y-3148177D01*
X1416812Y-3156204D01*
X1418132Y-3157474D01*
X1420317Y-3160776D01*
X1421079Y-3164687D01*
X1421079Y-3509670D01*
X1420317Y-3513531D01*
X1418132Y-3516833D01*
X1072845Y-3862120D01*
X1067663Y-3868420D01*
X1064107Y-3875125D01*
X1061872Y-3882390D01*
X1061110Y-3890467D01*
X1061110Y-5445302D01*
X1060297Y-5449163D01*
X1058113Y-5452465D01*
X1056843Y-5453735D01*
X1051204Y-5461812D01*
X1047038Y-5470702D01*
X1044498Y-5480202D01*
X1043635Y-5490006D01*
X1044498Y-5499760D01*
X1047038Y-5509260D01*
X1051204Y-5518150D01*
X1056843Y-5526227D01*
X1063752Y-5533136D01*
X1071829Y-5538774D01*
X1080719Y-5542940D01*
X1090218Y-5545480D01*
X1100023Y-5546344D01*
X1109776Y-5545480D01*
X1119276Y-5542940D01*
X1128166Y-5538774D01*
X1136243Y-5533136D01*
X1143152Y-5526227D01*
X1148791Y-5518150D01*
X1152956Y-5509260D01*
X1155496Y-5499760D01*
X1156360Y-5490006D01*
X1155496Y-5480202D01*
X1152956Y-5470702D01*
X1148791Y-5461812D01*
X1143152Y-5453735D01*
X1141882Y-5452465D01*
X1139698Y-5449163D01*
X1138885Y-5445302D01*
X1138885Y-3910329D01*
X1139698Y-3906418D01*
X1141882Y-3903116D01*
X1384960Y-3660089D01*
X1388313Y-3657854D01*
X1392275Y-3657092D01*
X1396187Y-3657955D01*
X1399489Y-3660241D01*
X1401622Y-3663645D01*
X1402283Y-3667658D01*
X1401318Y-3671570D01*
X1397050Y-3680714D01*
X1394510Y-3690213D01*
X1393647Y-3700018D01*
X1394510Y-3709771D01*
X1397050Y-3719271D01*
X1401216Y-3728161D01*
X1406855Y-3736238D01*
X1413764Y-3743147D01*
X1421841Y-3748786D01*
X1430731Y-3752951D01*
X1440230Y-3755491D01*
X1447749Y-3756151D01*
X1451152Y-3757066D01*
X1454048Y-3759098D01*
X1478127Y-3783126D01*
X1480312Y-3786428D01*
X1481074Y-3790340D01*
X1481074Y-4261256D01*
X1480261Y-4265218D01*
X1477975Y-4268571D01*
X1474571Y-4270756D01*
X1470558Y-4271416D01*
X1466646Y-4270451D01*
X1459280Y-4267047D01*
X1449781Y-4264507D01*
X1440027Y-4263644D01*
X1430223Y-4264507D01*
X1420723Y-4267047D01*
X1411833Y-4271162D01*
X1403756Y-4276801D01*
X1396847Y-4283760D01*
X1391208Y-4291787D01*
X1387043Y-4300728D01*
X1384503Y-4310176D01*
X1383639Y-4319981D01*
X1384503Y-4329785D01*
X1387043Y-4339234D01*
X1391208Y-4348175D01*
X1396847Y-4356201D01*
X1398066Y-4357420D01*
X1400251Y-4360722D01*
X1401013Y-4364583D01*
X1401013Y-4429760D01*
X1400251Y-4433671D01*
X1398066Y-4436973D01*
X1202944Y-4632299D01*
X1197813Y-4638548D01*
X1194206Y-4645253D01*
X1192022Y-4652568D01*
X1191209Y-4660646D01*
X1191209Y-5759450D01*
X1192022Y-5767476D01*
X1194206Y-5774791D01*
X1197813Y-5781497D01*
X1202944Y-5787796D01*
X1332026Y-5917133D01*
X1338275Y-5922314D01*
X1345031Y-5925870D01*
X1352296Y-5928106D01*
X1360373Y-5928918D01*
X2079498Y-5928918D01*
X2087575Y-5928106D01*
X2094890Y-5925921D01*
X2101596Y-5922314D01*
X2107895Y-5917184D01*
X2573223Y-5451805D01*
X2576525Y-5449620D01*
X2580386Y-5448858D01*
X3359861Y-5448858D01*
X3363620Y-5449570D01*
X3366820Y-5451652D01*
X3369056Y-5454751D01*
X3369970Y-5458460D01*
X3369462Y-5462219D01*
X3367582Y-5465572D01*
X3361791Y-5472430D01*
X3354476Y-5483910D01*
X3348736Y-5496306D01*
X3344672Y-5509310D01*
X3342386Y-5523331D01*
X3341573Y-5527040D01*
X3339439Y-5530189D01*
X3234537Y-5635294D01*
X3228848Y-5642203D01*
X3227476Y-5644134D01*
X3221736Y-5653938D01*
X3218332Y-5662218D01*
X3217570Y-5664504D01*
X3215436Y-5673191D01*
X3215030Y-5675579D01*
X3214217Y-5684469D01*
X3214217Y-6142329D01*
X3215030Y-6151473D01*
X3215386Y-6153607D01*
X3217570Y-6162497D01*
X3221786Y-6173063D01*
X3222752Y-6174994D01*
X3227476Y-6182868D01*
X3234537Y-6191707D01*
X3278174Y-6235598D01*
X3287014Y-6242710D01*
X3296869Y-6248400D01*
X3304794Y-6251702D01*
X3307384Y-6252565D01*
X3315766Y-6254648D01*
X3318459Y-6255105D01*
X3327044Y-6255918D01*
G37*
G36*
X2944977Y-6010859D02*
G01*
X2960166Y-6009944D01*
X2975102Y-6007201D01*
X2989630Y-6002680D01*
X3003499Y-5996432D01*
X3016504Y-5988608D01*
X3028492Y-5979210D01*
X3039211Y-5968441D01*
X3048609Y-5956503D01*
X3056432Y-5943498D01*
X3062681Y-5929630D01*
X3067202Y-5915101D01*
X3069945Y-5900166D01*
X3070860Y-5884976D01*
X3069945Y-5869787D01*
X3067202Y-5854852D01*
X3062681Y-5840323D01*
X3056432Y-5826455D01*
X3048609Y-5813450D01*
X3039211Y-5801512D01*
X3028492Y-5790742D01*
X3016504Y-5781395D01*
X3003499Y-5773521D01*
X2989630Y-5767273D01*
X2975102Y-5762752D01*
X2960166Y-5760008D01*
X2944977Y-5759094D01*
X2929788Y-5760008D01*
X2914853Y-5762752D01*
X2900324Y-5767273D01*
X2886506Y-5773521D01*
X2873451Y-5781395D01*
X2861513Y-5790742D01*
X2850743Y-5801512D01*
X2841396Y-5813450D01*
X2833522Y-5826455D01*
X2827274Y-5840323D01*
X2822752Y-5854852D01*
X2820009Y-5869787D01*
X2819095Y-5884976D01*
X2820009Y-5900166D01*
X2822752Y-5915101D01*
X2827274Y-5929630D01*
X2833522Y-5943498D01*
X2841396Y-5956503D01*
X2850743Y-5968441D01*
X2861513Y-5979210D01*
X2873451Y-5988608D01*
X2886506Y-5996432D01*
X2900324Y-6002680D01*
X2914853Y-6007201D01*
X2929788Y-6009944D01*
G37*
G36*
X2551328Y-5997397D02*
G01*
X2553512Y-5996432D01*
X2566517Y-5988608D01*
X2578506Y-5979210D01*
X2589225Y-5968441D01*
X2598623Y-5956503D01*
X2606446Y-5943498D01*
X2607462Y-5941314D01*
X2551328Y-5941314D01*
G37*
G36*
X2438654Y-5997397D02*
G01*
X2438654Y-5941314D01*
X2382570Y-5941314D01*
X2383536Y-5943498D01*
X2391410Y-5956503D01*
X2400757Y-5968441D01*
X2411526Y-5979210D01*
X2423464Y-5988608D01*
X2436520Y-5996432D01*
G37*
G36*
X211836Y-5944616D02*
G01*
X247446Y-5944616D01*
X253746Y-5943904D01*
X259232Y-5942025D01*
X264109Y-5938926D01*
X268224Y-5934862D01*
X271272Y-5929934D01*
X273202Y-5924499D01*
X273913Y-5918149D01*
X273913Y-5885688D01*
X211836Y-5885688D01*
G37*
G36*
X78587Y-5944616D02*
G01*
X114147Y-5944616D01*
X114147Y-5885688D01*
X52069Y-5885688D01*
X52069Y-5918149D01*
X52781Y-5924499D01*
X54711Y-5929934D01*
X57810Y-5934862D01*
X61874Y-5938926D01*
X66802Y-5942025D01*
X72237Y-5943904D01*
G37*
G36*
X368147Y-5939383D02*
G01*
X368147Y-5888837D01*
X317500Y-5888837D01*
X324053Y-5900470D01*
X332587Y-5911850D01*
X342442Y-5922060D01*
X353568Y-5930950D01*
X365709Y-5938316D01*
G37*
G36*
X465835Y-5939332D02*
G01*
X474472Y-5934811D01*
X486156Y-5926683D01*
X496671Y-5917133D01*
X505866Y-5906312D01*
X513638Y-5894425D01*
X516280Y-5888837D01*
X465835Y-5888837D01*
G37*
G36*
X2551328Y-5828639D02*
G01*
X2607462Y-5828639D01*
X2606446Y-5826455D01*
X2598623Y-5813450D01*
X2589225Y-5801512D01*
X2578506Y-5790742D01*
X2566517Y-5781395D01*
X2553512Y-5773521D01*
X2551328Y-5772556D01*
G37*
G36*
X2382570Y-5828639D02*
G01*
X2438654Y-5828639D01*
X2438654Y-5772556D01*
X2436520Y-5773521D01*
X2423464Y-5781395D01*
X2411526Y-5790742D01*
X2400757Y-5801512D01*
X2391410Y-5813450D01*
X2383536Y-5826455D01*
G37*
G36*
X211836Y-5794248D02*
G01*
X273913Y-5794248D01*
X273913Y-5761837D01*
X273202Y-5755487D01*
X271272Y-5750052D01*
X268224Y-5745124D01*
X264109Y-5741060D01*
X259232Y-5737961D01*
X253746Y-5736031D01*
X247446Y-5735320D01*
X211836Y-5735320D01*
G37*
G36*
X52069Y-5794248D02*
G01*
X114147Y-5794248D01*
X114147Y-5735320D01*
X78587Y-5735320D01*
X72237Y-5736031D01*
X66802Y-5737961D01*
X61874Y-5741060D01*
X57810Y-5745124D01*
X54711Y-5750052D01*
X52781Y-5755487D01*
X52069Y-5761837D01*
G37*
G36*
X465835Y-5791149D02*
G01*
X516280Y-5791149D01*
X513638Y-5785561D01*
X505866Y-5773674D01*
X496671Y-5762853D01*
X486156Y-5753303D01*
X474472Y-5745175D01*
X465835Y-5740654D01*
G37*
G36*
X317500Y-5791149D02*
G01*
X368147Y-5791149D01*
X368147Y-5740603D01*
X365709Y-5741670D01*
X353568Y-5749036D01*
X342442Y-5757926D01*
X332587Y-5768086D01*
X324053Y-5779516D01*
G37*
G36*
X104292Y-4753864D02*
G01*
X104292Y-4705705D01*
X56134Y-4705705D01*
X59385Y-4712309D01*
X67005Y-4723688D01*
X75996Y-4733950D01*
X86309Y-4742992D01*
X97688Y-4750612D01*
G37*
G36*
X195732Y-4753864D02*
G01*
X202336Y-4750612D01*
X213715Y-4742992D01*
X223977Y-4733950D01*
X233019Y-4723688D01*
X240588Y-4712309D01*
X243840Y-4705705D01*
X195732Y-4705705D01*
G37*
G36*
X56134Y-4614265D02*
G01*
X104292Y-4614265D01*
X104292Y-4566158D01*
X97688Y-4569409D01*
X86309Y-4576978D01*
X75996Y-4586020D01*
X67005Y-4596282D01*
X59385Y-4607661D01*
G37*
G36*
X195732Y-4614265D02*
G01*
X243840Y-4614265D01*
X240588Y-4607661D01*
X233019Y-4596282D01*
X223977Y-4586020D01*
X213715Y-4576978D01*
X202336Y-4569409D01*
X195732Y-4566158D01*
G37*
G36*
X5723178Y-3348837D02*
G01*
X5736793Y-3348837D01*
X5750306Y-3347008D01*
X5763463Y-3343452D01*
X5776010Y-3338118D01*
X5787745Y-3331159D01*
X5798464Y-3322726D01*
X5807964Y-3312922D01*
X5816041Y-3301898D01*
X5822594Y-3289960D01*
X5827471Y-3277260D01*
X5830671Y-3263950D01*
X5831992Y-3250387D01*
X5831586Y-3236772D01*
X5829300Y-3223310D01*
X5825236Y-3210306D01*
X5819495Y-3197910D01*
X5812180Y-3186430D01*
X5803392Y-3176016D01*
X5793232Y-3166872D01*
X5782005Y-3159150D01*
X5769864Y-3153003D01*
X5756960Y-3148533D01*
X5743600Y-3145840D01*
X5729986Y-3144926D01*
X5716371Y-3145840D01*
X5703011Y-3148533D01*
X5690158Y-3153003D01*
X5677966Y-3159150D01*
X5666740Y-3166872D01*
X5656630Y-3176016D01*
X5647791Y-3186430D01*
X5640476Y-3197910D01*
X5634736Y-3210306D01*
X5630672Y-3223310D01*
X5628436Y-3236772D01*
X5627979Y-3250387D01*
X5629300Y-3263950D01*
X5632500Y-3277260D01*
X5637377Y-3289960D01*
X5643930Y-3301898D01*
X5652008Y-3312922D01*
X5661507Y-3322726D01*
X5672226Y-3331159D01*
X5683961Y-3338118D01*
X5696508Y-3343452D01*
X5709666Y-3347008D01*
G37*
G36*
X5469178Y-3348837D02*
G01*
X5482793Y-3348837D01*
X5496306Y-3347008D01*
X5509463Y-3343452D01*
X5522010Y-3338118D01*
X5533745Y-3331159D01*
X5544464Y-3322726D01*
X5553964Y-3312922D01*
X5562041Y-3301898D01*
X5568594Y-3289960D01*
X5573471Y-3277260D01*
X5576671Y-3263950D01*
X5577992Y-3250387D01*
X5577586Y-3236772D01*
X5575300Y-3223310D01*
X5571236Y-3210306D01*
X5565495Y-3197910D01*
X5558180Y-3186430D01*
X5549392Y-3176016D01*
X5539232Y-3166872D01*
X5528005Y-3159150D01*
X5515864Y-3153003D01*
X5502960Y-3148533D01*
X5489600Y-3145840D01*
X5475986Y-3144926D01*
X5462371Y-3145840D01*
X5449011Y-3148533D01*
X5436158Y-3153003D01*
X5423966Y-3159150D01*
X5412740Y-3166872D01*
X5402630Y-3176016D01*
X5393791Y-3186430D01*
X5386476Y-3197910D01*
X5380736Y-3210306D01*
X5376672Y-3223310D01*
X5374436Y-3236772D01*
X5373979Y-3250387D01*
X5375300Y-3263950D01*
X5378500Y-3277260D01*
X5383377Y-3289960D01*
X5389930Y-3301898D01*
X5398008Y-3312922D01*
X5407507Y-3322726D01*
X5418226Y-3331159D01*
X5429961Y-3338118D01*
X5442508Y-3343452D01*
X5455666Y-3347008D01*
G37*
G36*
X8009178Y-3348837D02*
G01*
X8022793Y-3348837D01*
X8036306Y-3347008D01*
X8049463Y-3343452D01*
X8062010Y-3338118D01*
X8073745Y-3331159D01*
X8084464Y-3322726D01*
X8093964Y-3312922D01*
X8102041Y-3301898D01*
X8108594Y-3289960D01*
X8113471Y-3277260D01*
X8116671Y-3263950D01*
X8117992Y-3250387D01*
X8117586Y-3236772D01*
X8115300Y-3223310D01*
X8111236Y-3210306D01*
X8105495Y-3197910D01*
X8098180Y-3186430D01*
X8089392Y-3176016D01*
X8079231Y-3166872D01*
X8068005Y-3159150D01*
X8055864Y-3153003D01*
X8042960Y-3148533D01*
X8029600Y-3145840D01*
X8015986Y-3144926D01*
X8002371Y-3145840D01*
X7989011Y-3148533D01*
X7976158Y-3153003D01*
X7963966Y-3159150D01*
X7952740Y-3166872D01*
X7942630Y-3176016D01*
X7933791Y-3186430D01*
X7926476Y-3197910D01*
X7920736Y-3210306D01*
X7916672Y-3223310D01*
X7914436Y-3236772D01*
X7913979Y-3250387D01*
X7915300Y-3263950D01*
X7918500Y-3277260D01*
X7923377Y-3289960D01*
X7929930Y-3301898D01*
X7938008Y-3312922D01*
X7947507Y-3322726D01*
X7958226Y-3331159D01*
X7969961Y-3338118D01*
X7982508Y-3343452D01*
X7995666Y-3347008D01*
G37*
G36*
X5215178Y-3348837D02*
G01*
X5228793Y-3348837D01*
X5242306Y-3347008D01*
X5255463Y-3343452D01*
X5268010Y-3338118D01*
X5279745Y-3331159D01*
X5290464Y-3322726D01*
X5299964Y-3312922D01*
X5308041Y-3301898D01*
X5314594Y-3289960D01*
X5319471Y-3277260D01*
X5322671Y-3263950D01*
X5323992Y-3250387D01*
X5323586Y-3236772D01*
X5321300Y-3223310D01*
X5317236Y-3210306D01*
X5311495Y-3197910D01*
X5304180Y-3186430D01*
X5295392Y-3176016D01*
X5285232Y-3166872D01*
X5274005Y-3159150D01*
X5261864Y-3153003D01*
X5248960Y-3148533D01*
X5235600Y-3145840D01*
X5221986Y-3144926D01*
X5208371Y-3145840D01*
X5195011Y-3148533D01*
X5182158Y-3153003D01*
X5169966Y-3159150D01*
X5158740Y-3166872D01*
X5148630Y-3176016D01*
X5139791Y-3186430D01*
X5132476Y-3197910D01*
X5126736Y-3210306D01*
X5122672Y-3223310D01*
X5120436Y-3236772D01*
X5119979Y-3250387D01*
X5121300Y-3263950D01*
X5124500Y-3277260D01*
X5129377Y-3289960D01*
X5135930Y-3301898D01*
X5144008Y-3312922D01*
X5153507Y-3322726D01*
X5164226Y-3331159D01*
X5175961Y-3338118D01*
X5188508Y-3343452D01*
X5201666Y-3347008D01*
G37*
G36*
X6485178Y-3348837D02*
G01*
X6498793Y-3348837D01*
X6512306Y-3347008D01*
X6525463Y-3343452D01*
X6538010Y-3338118D01*
X6549745Y-3331159D01*
X6560464Y-3322726D01*
X6569964Y-3312922D01*
X6578041Y-3301898D01*
X6584594Y-3289960D01*
X6589471Y-3277260D01*
X6592671Y-3263950D01*
X6593992Y-3250387D01*
X6593586Y-3236772D01*
X6591300Y-3223310D01*
X6587236Y-3210306D01*
X6581495Y-3197910D01*
X6574180Y-3186430D01*
X6565392Y-3176016D01*
X6555231Y-3166872D01*
X6544005Y-3159150D01*
X6531864Y-3153003D01*
X6518960Y-3148533D01*
X6505600Y-3145840D01*
X6491986Y-3144926D01*
X6478371Y-3145840D01*
X6465011Y-3148533D01*
X6452158Y-3153003D01*
X6439966Y-3159150D01*
X6428740Y-3166872D01*
X6418630Y-3176016D01*
X6409791Y-3186430D01*
X6402476Y-3197910D01*
X6396736Y-3210306D01*
X6392672Y-3223310D01*
X6390436Y-3236772D01*
X6389979Y-3250387D01*
X6391300Y-3263950D01*
X6394500Y-3277260D01*
X6399377Y-3289960D01*
X6405930Y-3301898D01*
X6414008Y-3312922D01*
X6423507Y-3322726D01*
X6434226Y-3331159D01*
X6445961Y-3338118D01*
X6458508Y-3343452D01*
X6471666Y-3347008D01*
G37*
G36*
X7755178Y-3348837D02*
G01*
X7768793Y-3348837D01*
X7782306Y-3347008D01*
X7795463Y-3343452D01*
X7808010Y-3338118D01*
X7819745Y-3331159D01*
X7830464Y-3322726D01*
X7839964Y-3312922D01*
X7848041Y-3301898D01*
X7854594Y-3289960D01*
X7859471Y-3277260D01*
X7862671Y-3263950D01*
X7863992Y-3250387D01*
X7863586Y-3236772D01*
X7861300Y-3223310D01*
X7857236Y-3210306D01*
X7851495Y-3197910D01*
X7844180Y-3186430D01*
X7835392Y-3176016D01*
X7825231Y-3166872D01*
X7814005Y-3159150D01*
X7801864Y-3153003D01*
X7788960Y-3148533D01*
X7775600Y-3145840D01*
X7761986Y-3144926D01*
X7748371Y-3145840D01*
X7735011Y-3148533D01*
X7722158Y-3153003D01*
X7709966Y-3159150D01*
X7698740Y-3166872D01*
X7688630Y-3176016D01*
X7679791Y-3186430D01*
X7672476Y-3197910D01*
X7666736Y-3210306D01*
X7662672Y-3223310D01*
X7660436Y-3236772D01*
X7659979Y-3250387D01*
X7661300Y-3263950D01*
X7664500Y-3277260D01*
X7669377Y-3289960D01*
X7675930Y-3301898D01*
X7684008Y-3312922D01*
X7693507Y-3322726D01*
X7704226Y-3331159D01*
X7715961Y-3338118D01*
X7728508Y-3343452D01*
X7741666Y-3347008D01*
G37*
G36*
X5977178Y-3348837D02*
G01*
X5990793Y-3348837D01*
X6004306Y-3347008D01*
X6017463Y-3343452D01*
X6030010Y-3338118D01*
X6041745Y-3331159D01*
X6052464Y-3322726D01*
X6061964Y-3312922D01*
X6070041Y-3301898D01*
X6076594Y-3289960D01*
X6081471Y-3277260D01*
X6084671Y-3263950D01*
X6085992Y-3250387D01*
X6085586Y-3236772D01*
X6083300Y-3223310D01*
X6079236Y-3210306D01*
X6073495Y-3197910D01*
X6066180Y-3186430D01*
X6057392Y-3176016D01*
X6047232Y-3166872D01*
X6036005Y-3159150D01*
X6023864Y-3153003D01*
X6010960Y-3148533D01*
X5997600Y-3145840D01*
X5983986Y-3144926D01*
X5970371Y-3145840D01*
X5957011Y-3148533D01*
X5944158Y-3153003D01*
X5931966Y-3159150D01*
X5920740Y-3166872D01*
X5910630Y-3176016D01*
X5901791Y-3186430D01*
X5894476Y-3197910D01*
X5888736Y-3210306D01*
X5884672Y-3223310D01*
X5882436Y-3236772D01*
X5881979Y-3250387D01*
X5883300Y-3263950D01*
X5886500Y-3277260D01*
X5891377Y-3289960D01*
X5897930Y-3301898D01*
X5906008Y-3312922D01*
X5915507Y-3322726D01*
X5926226Y-3331159D01*
X5937961Y-3338118D01*
X5950508Y-3343452D01*
X5963666Y-3347008D01*
G37*
G36*
X5012436Y-3338779D02*
G01*
X5014010Y-3338118D01*
X5025745Y-3331159D01*
X5036464Y-3322726D01*
X5045964Y-3312922D01*
X5054041Y-3301898D01*
X5059781Y-3291433D01*
X5012436Y-3291433D01*
G37*
G36*
X4923536Y-3338779D02*
G01*
X4923536Y-3291433D01*
X4876190Y-3291433D01*
X4881930Y-3301898D01*
X4890008Y-3312922D01*
X4899507Y-3322726D01*
X4910226Y-3331159D01*
X4921961Y-3338118D01*
G37*
G36*
X3399536Y-3338779D02*
G01*
X3399536Y-3291433D01*
X3352190Y-3291433D01*
X3357930Y-3301898D01*
X3366008Y-3312922D01*
X3375507Y-3322726D01*
X3386226Y-3331159D01*
X3397961Y-3338118D01*
G37*
G36*
X8808720Y-3316833D02*
G01*
X8815273Y-3313582D01*
X8826652Y-3306013D01*
X8836964Y-3296970D01*
X8846007Y-3286709D01*
X8853576Y-3275329D01*
X8856827Y-3268726D01*
X8808720Y-3268726D01*
G37*
G36*
X8717280Y-3316833D02*
G01*
X8717280Y-3268726D01*
X8669121Y-3268726D01*
X8672372Y-3275329D01*
X8679992Y-3286709D01*
X8688984Y-3296970D01*
X8699296Y-3306013D01*
X8710676Y-3313582D01*
G37*
G36*
X4876342Y-3202533D02*
G01*
X4923536Y-3202533D01*
X4923536Y-3155340D01*
X4915966Y-3159150D01*
X4904740Y-3166872D01*
X4894630Y-3176016D01*
X4885791Y-3186430D01*
X4878476Y-3197910D01*
G37*
G36*
X3352342Y-3202533D02*
G01*
X3399536Y-3202533D01*
X3399536Y-3155340D01*
X3391966Y-3159150D01*
X3380740Y-3166872D01*
X3370630Y-3176016D01*
X3361791Y-3186430D01*
X3354476Y-3197910D01*
G37*
G36*
X5012436Y-3202533D02*
G01*
X5059629Y-3202533D01*
X5057495Y-3197910D01*
X5050180Y-3186430D01*
X5041392Y-3176016D01*
X5031232Y-3166872D01*
X5020005Y-3159150D01*
X5012436Y-3155340D01*
G37*
G36*
X8669121Y-3177286D02*
G01*
X8717280Y-3177286D01*
X8717280Y-3129127D01*
X8710676Y-3132378D01*
X8699296Y-3139998D01*
X8688984Y-3148990D01*
X8679992Y-3159302D01*
X8672372Y-3170682D01*
G37*
G36*
X8808720Y-3177286D02*
G01*
X8856827Y-3177286D01*
X8853576Y-3170682D01*
X8846007Y-3159302D01*
X8836964Y-3148990D01*
X8826652Y-3139998D01*
X8815273Y-3132378D01*
X8808720Y-3129127D01*
G37*
G36*
X4472990Y-2854604D02*
G01*
X4486656Y-2853740D01*
X4500067Y-2851048D01*
X4513021Y-2846679D01*
X4525314Y-2840583D01*
X4536694Y-2833014D01*
X4546955Y-2823972D01*
X4555998Y-2813710D01*
X4563618Y-2802331D01*
X4569663Y-2790037D01*
X4574032Y-2777083D01*
X4576724Y-2763672D01*
X4577638Y-2750007D01*
X4576724Y-2736342D01*
X4574032Y-2722930D01*
X4569663Y-2709976D01*
X4563618Y-2697683D01*
X4555998Y-2686304D01*
X4546955Y-2675991D01*
X4536694Y-2667000D01*
X4525314Y-2659380D01*
X4513021Y-2653334D01*
X4500067Y-2648915D01*
X4486656Y-2646273D01*
X4472990Y-2645359D01*
X4459325Y-2646273D01*
X4445914Y-2648915D01*
X4432960Y-2653334D01*
X4420666Y-2659380D01*
X4409287Y-2667000D01*
X4399026Y-2675991D01*
X4389983Y-2686304D01*
X4382363Y-2697683D01*
X4376318Y-2709976D01*
X4371949Y-2722930D01*
X4369257Y-2736342D01*
X4368342Y-2750007D01*
X4369257Y-2763672D01*
X4371949Y-2777083D01*
X4376318Y-2790037D01*
X4382363Y-2802331D01*
X4389983Y-2813710D01*
X4399026Y-2823972D01*
X4409287Y-2833014D01*
X4420666Y-2840583D01*
X4432960Y-2846679D01*
X4445914Y-2851048D01*
X4459325Y-2853740D01*
G37*
G36*
X6504990Y-2854604D02*
G01*
X6518656Y-2853740D01*
X6532067Y-2851048D01*
X6545021Y-2846679D01*
X6557314Y-2840583D01*
X6568694Y-2833014D01*
X6578955Y-2823972D01*
X6587998Y-2813710D01*
X6595618Y-2802331D01*
X6601663Y-2790037D01*
X6606031Y-2777083D01*
X6608724Y-2763672D01*
X6609638Y-2750007D01*
X6608724Y-2736342D01*
X6606031Y-2722930D01*
X6601663Y-2709976D01*
X6595618Y-2697683D01*
X6587998Y-2686304D01*
X6578955Y-2675991D01*
X6568694Y-2667000D01*
X6557314Y-2659380D01*
X6545021Y-2653334D01*
X6532067Y-2648915D01*
X6518656Y-2646273D01*
X6504990Y-2645359D01*
X6491325Y-2646273D01*
X6477914Y-2648915D01*
X6464960Y-2653334D01*
X6452666Y-2659380D01*
X6441287Y-2667000D01*
X6431026Y-2675991D01*
X6421983Y-2686304D01*
X6414363Y-2697683D01*
X6408318Y-2709976D01*
X6403949Y-2722930D01*
X6401257Y-2736342D01*
X6400342Y-2750007D01*
X6401257Y-2763672D01*
X6403949Y-2777083D01*
X6408318Y-2790037D01*
X6414363Y-2802331D01*
X6421983Y-2813710D01*
X6431026Y-2823972D01*
X6441287Y-2833014D01*
X6452666Y-2840583D01*
X6464960Y-2846679D01*
X6477914Y-2851048D01*
X6491325Y-2853740D01*
G37*
G36*
X3710990Y-2854604D02*
G01*
X3724656Y-2853740D01*
X3738067Y-2851048D01*
X3751021Y-2846679D01*
X3763314Y-2840583D01*
X3774694Y-2833014D01*
X3784955Y-2823972D01*
X3793998Y-2813710D01*
X3801618Y-2802331D01*
X3807663Y-2790037D01*
X3812032Y-2777083D01*
X3814724Y-2763672D01*
X3815638Y-2750007D01*
X3814724Y-2736342D01*
X3812032Y-2722930D01*
X3807663Y-2709976D01*
X3801618Y-2697683D01*
X3793998Y-2686304D01*
X3784955Y-2675991D01*
X3774694Y-2667000D01*
X3763314Y-2659380D01*
X3751021Y-2653334D01*
X3738067Y-2648915D01*
X3724656Y-2646273D01*
X3710990Y-2645359D01*
X3697325Y-2646273D01*
X3683914Y-2648915D01*
X3670960Y-2653334D01*
X3658666Y-2659380D01*
X3647287Y-2667000D01*
X3637026Y-2675991D01*
X3627983Y-2686304D01*
X3620363Y-2697683D01*
X3614318Y-2709976D01*
X3609949Y-2722930D01*
X3607257Y-2736342D01*
X3606342Y-2750007D01*
X3607257Y-2763672D01*
X3609949Y-2777083D01*
X3614318Y-2790037D01*
X3620363Y-2802331D01*
X3627983Y-2813710D01*
X3637026Y-2823972D01*
X3647287Y-2833014D01*
X3658666Y-2840583D01*
X3670960Y-2846679D01*
X3683914Y-2851048D01*
X3697325Y-2853740D01*
G37*
G36*
X5742990Y-2854604D02*
G01*
X5756656Y-2853740D01*
X5770067Y-2851048D01*
X5783021Y-2846679D01*
X5795314Y-2840583D01*
X5806694Y-2833014D01*
X5816955Y-2823972D01*
X5825998Y-2813710D01*
X5833618Y-2802331D01*
X5839663Y-2790037D01*
X5844032Y-2777083D01*
X5846724Y-2763672D01*
X5847638Y-2750007D01*
X5846724Y-2736342D01*
X5844032Y-2722930D01*
X5839663Y-2709976D01*
X5833618Y-2697683D01*
X5825998Y-2686304D01*
X5816955Y-2675991D01*
X5806694Y-2667000D01*
X5795314Y-2659380D01*
X5783021Y-2653334D01*
X5770067Y-2648915D01*
X5756656Y-2646273D01*
X5742990Y-2645359D01*
X5729325Y-2646273D01*
X5715914Y-2648915D01*
X5702960Y-2653334D01*
X5690666Y-2659380D01*
X5679287Y-2667000D01*
X5669026Y-2675991D01*
X5659983Y-2686304D01*
X5652363Y-2697683D01*
X5646318Y-2709976D01*
X5641949Y-2722930D01*
X5639257Y-2736342D01*
X5638342Y-2750007D01*
X5639257Y-2763672D01*
X5641949Y-2777083D01*
X5646318Y-2790037D01*
X5652363Y-2802331D01*
X5659983Y-2813710D01*
X5669026Y-2823972D01*
X5679287Y-2833014D01*
X5690666Y-2840583D01*
X5702960Y-2846679D01*
X5715914Y-2851048D01*
X5729325Y-2853740D01*
G37*
G36*
X3964990Y-2854604D02*
G01*
X3978656Y-2853740D01*
X3992067Y-2851048D01*
X4005021Y-2846679D01*
X4017314Y-2840583D01*
X4028694Y-2833014D01*
X4038955Y-2823972D01*
X4047998Y-2813710D01*
X4055618Y-2802331D01*
X4061663Y-2790037D01*
X4066032Y-2777083D01*
X4068724Y-2763672D01*
X4069638Y-2750007D01*
X4068724Y-2736342D01*
X4066032Y-2722930D01*
X4061663Y-2709976D01*
X4055618Y-2697683D01*
X4047998Y-2686304D01*
X4038955Y-2675991D01*
X4028694Y-2667000D01*
X4017314Y-2659380D01*
X4005021Y-2653334D01*
X3992067Y-2648915D01*
X3978656Y-2646273D01*
X3964990Y-2645359D01*
X3951325Y-2646273D01*
X3937914Y-2648915D01*
X3924960Y-2653334D01*
X3912666Y-2659380D01*
X3901287Y-2667000D01*
X3891026Y-2675991D01*
X3881983Y-2686304D01*
X3874363Y-2697683D01*
X3868318Y-2709976D01*
X3863949Y-2722930D01*
X3861257Y-2736342D01*
X3860342Y-2750007D01*
X3861257Y-2763672D01*
X3863949Y-2777083D01*
X3868318Y-2790037D01*
X3874363Y-2802331D01*
X3881983Y-2813710D01*
X3891026Y-2823972D01*
X3901287Y-2833014D01*
X3912666Y-2840583D01*
X3924960Y-2846679D01*
X3937914Y-2851048D01*
X3951325Y-2853740D01*
G37*
G36*
X5996990Y-2854604D02*
G01*
X6010656Y-2853740D01*
X6024067Y-2851048D01*
X6037021Y-2846679D01*
X6049314Y-2840583D01*
X6060694Y-2833014D01*
X6070955Y-2823972D01*
X6079998Y-2813710D01*
X6087618Y-2802331D01*
X6093663Y-2790037D01*
X6098032Y-2777083D01*
X6100724Y-2763672D01*
X6101638Y-2750007D01*
X6100724Y-2736342D01*
X6098032Y-2722930D01*
X6093663Y-2709976D01*
X6087618Y-2697683D01*
X6079998Y-2686304D01*
X6070955Y-2675991D01*
X6060694Y-2667000D01*
X6049314Y-2659380D01*
X6037021Y-2653334D01*
X6024067Y-2648915D01*
X6010656Y-2646273D01*
X5996990Y-2645359D01*
X5983325Y-2646273D01*
X5969914Y-2648915D01*
X5956960Y-2653334D01*
X5944666Y-2659380D01*
X5933287Y-2667000D01*
X5923026Y-2675991D01*
X5913983Y-2686304D01*
X5906363Y-2697683D01*
X5900318Y-2709976D01*
X5895949Y-2722930D01*
X5893257Y-2736342D01*
X5892342Y-2750007D01*
X5893257Y-2763672D01*
X5895949Y-2777083D01*
X5900318Y-2790037D01*
X5906363Y-2802331D01*
X5913983Y-2813710D01*
X5923026Y-2823972D01*
X5933287Y-2833014D01*
X5944666Y-2840583D01*
X5956960Y-2846679D01*
X5969914Y-2851048D01*
X5983325Y-2853740D01*
G37*
G36*
X6250990Y-2854604D02*
G01*
X6264656Y-2853740D01*
X6278067Y-2851048D01*
X6291021Y-2846679D01*
X6303314Y-2840583D01*
X6314694Y-2833014D01*
X6324955Y-2823972D01*
X6333998Y-2813710D01*
X6341618Y-2802331D01*
X6347663Y-2790037D01*
X6352032Y-2777083D01*
X6354724Y-2763672D01*
X6355638Y-2750007D01*
X6354724Y-2736342D01*
X6352032Y-2722930D01*
X6347663Y-2709976D01*
X6341618Y-2697683D01*
X6333998Y-2686304D01*
X6324955Y-2675991D01*
X6314694Y-2667000D01*
X6303314Y-2659380D01*
X6291021Y-2653334D01*
X6278067Y-2648915D01*
X6264656Y-2646273D01*
X6250990Y-2645359D01*
X6237325Y-2646273D01*
X6223914Y-2648915D01*
X6210960Y-2653334D01*
X6198666Y-2659380D01*
X6187287Y-2667000D01*
X6177026Y-2675991D01*
X6167983Y-2686304D01*
X6160363Y-2697683D01*
X6154318Y-2709976D01*
X6149949Y-2722930D01*
X6147257Y-2736342D01*
X6146342Y-2750007D01*
X6147257Y-2763672D01*
X6149949Y-2777083D01*
X6154318Y-2790037D01*
X6160363Y-2802331D01*
X6167983Y-2813710D01*
X6177026Y-2823972D01*
X6187287Y-2833014D01*
X6198666Y-2840583D01*
X6210960Y-2846679D01*
X6223914Y-2851048D01*
X6237325Y-2853740D01*
G37*
G36*
X4218990Y-2854604D02*
G01*
X4232656Y-2853740D01*
X4246067Y-2851048D01*
X4259021Y-2846679D01*
X4271314Y-2840583D01*
X4282694Y-2833014D01*
X4292955Y-2823972D01*
X4301998Y-2813710D01*
X4309618Y-2802331D01*
X4315663Y-2790037D01*
X4320032Y-2777083D01*
X4322724Y-2763672D01*
X4323638Y-2750007D01*
X4322724Y-2736342D01*
X4320032Y-2722930D01*
X4315663Y-2709976D01*
X4309618Y-2697683D01*
X4301998Y-2686304D01*
X4292955Y-2675991D01*
X4282694Y-2667000D01*
X4271314Y-2659380D01*
X4259021Y-2653334D01*
X4246067Y-2648915D01*
X4232656Y-2646273D01*
X4218990Y-2645359D01*
X4205325Y-2646273D01*
X4191914Y-2648915D01*
X4178960Y-2653334D01*
X4166666Y-2659380D01*
X4155287Y-2667000D01*
X4145026Y-2675991D01*
X4135983Y-2686304D01*
X4128363Y-2697683D01*
X4122318Y-2709976D01*
X4117949Y-2722930D01*
X4115257Y-2736342D01*
X4114342Y-2750007D01*
X4115257Y-2763672D01*
X4117949Y-2777083D01*
X4122318Y-2790037D01*
X4128363Y-2802331D01*
X4135983Y-2813710D01*
X4145026Y-2823972D01*
X4155287Y-2833014D01*
X4166666Y-2840583D01*
X4178960Y-2846679D01*
X4191914Y-2851048D01*
X4205325Y-2853740D01*
G37*
G36*
X8328710Y-2843834D02*
G01*
X8335314Y-2840583D01*
X8346694Y-2833014D01*
X8356955Y-2823972D01*
X8365998Y-2813710D01*
X8373618Y-2802331D01*
X8376869Y-2795727D01*
X8328710Y-2795727D01*
G37*
G36*
X7820710Y-2843834D02*
G01*
X7827314Y-2840583D01*
X7838694Y-2833014D01*
X7848955Y-2823972D01*
X7857998Y-2813710D01*
X7865618Y-2802331D01*
X7868869Y-2795727D01*
X7820710Y-2795727D01*
G37*
G36*
X8237270Y-2843834D02*
G01*
X8237270Y-2795727D01*
X8189112Y-2795727D01*
X8192363Y-2802331D01*
X8199983Y-2813710D01*
X8209025Y-2823972D01*
X8219287Y-2833014D01*
X8230666Y-2840583D01*
G37*
G36*
X7729270Y-2843834D02*
G01*
X7729270Y-2795727D01*
X7681112Y-2795727D01*
X7684363Y-2802331D01*
X7691983Y-2813710D01*
X7701025Y-2823972D01*
X7711287Y-2833014D01*
X7722666Y-2840583D01*
G37*
G36*
X2189988Y-2756357D02*
G01*
X2199792Y-2755493D01*
X2209241Y-2752953D01*
X2218182Y-2748788D01*
X2226208Y-2743149D01*
X2233168Y-2736240D01*
X2238806Y-2728163D01*
X2242921Y-2719273D01*
X2245461Y-2709773D01*
X2246325Y-2700020D01*
X2245461Y-2690215D01*
X2242921Y-2680716D01*
X2238806Y-2671826D01*
X2233168Y-2663748D01*
X2231847Y-2662478D01*
X2229662Y-2659176D01*
X2228900Y-2655316D01*
X2228900Y-2440330D01*
X2229662Y-2436418D01*
X2231847Y-2433116D01*
X2885897Y-1779066D01*
X2888792Y-1777034D01*
X2892196Y-1776120D01*
X2899765Y-1775460D01*
X2909265Y-1772920D01*
X2918155Y-1768805D01*
X2926232Y-1763166D01*
X2933141Y-1756206D01*
X2938780Y-1748180D01*
X2942945Y-1739239D01*
X2945485Y-1729790D01*
X2946349Y-1719986D01*
X2945485Y-1710182D01*
X2942945Y-1700733D01*
X2938780Y-1691792D01*
X2933141Y-1683766D01*
X2926232Y-1676806D01*
X2918155Y-1671167D01*
X2909265Y-1667052D01*
X2899765Y-1664512D01*
X2890012Y-1663649D01*
X2880207Y-1664512D01*
X2870708Y-1667052D01*
X2861818Y-1671167D01*
X2853740Y-1676806D01*
X2846832Y-1683766D01*
X2841193Y-1691792D01*
X2837027Y-1700733D01*
X2834487Y-1710182D01*
X2833827Y-1717751D01*
X2832912Y-1721154D01*
X2830880Y-1724050D01*
X2162810Y-2392121D01*
X2157679Y-2398369D01*
X2154072Y-2405126D01*
X2151888Y-2412390D01*
X2151075Y-2420467D01*
X2151075Y-2655316D01*
X2150313Y-2659176D01*
X2148128Y-2662478D01*
X2146808Y-2663748D01*
X2141169Y-2671826D01*
X2137054Y-2680716D01*
X2134514Y-2690215D01*
X2133650Y-2700020D01*
X2134514Y-2709773D01*
X2137054Y-2719273D01*
X2141169Y-2728163D01*
X2146808Y-2736240D01*
X2153767Y-2743149D01*
X2161794Y-2748788D01*
X2170734Y-2752953D01*
X2180183Y-2755493D01*
G37*
G36*
X7681112Y-2704287D02*
G01*
X7729270Y-2704287D01*
X7729270Y-2656128D01*
X7722666Y-2659380D01*
X7711287Y-2667000D01*
X7701025Y-2675991D01*
X7691983Y-2686304D01*
X7684363Y-2697683D01*
G37*
G36*
X7820710Y-2704287D02*
G01*
X7868869Y-2704287D01*
X7865618Y-2697683D01*
X7857998Y-2686304D01*
X7848955Y-2675991D01*
X7838694Y-2667000D01*
X7827314Y-2659380D01*
X7820710Y-2656128D01*
G37*
G36*
X1013764Y-2293315D02*
G01*
X1233068Y-2293315D01*
X1246581Y-2292451D01*
X1259535Y-2289860D01*
X1272032Y-2285644D01*
X1283868Y-2279802D01*
X1294841Y-2272436D01*
X1304747Y-2263749D01*
X1313434Y-2253843D01*
X1320800Y-2242870D01*
X1326642Y-2231034D01*
X1330858Y-2218537D01*
X1333449Y-2205583D01*
X1334312Y-2192426D01*
X1333449Y-2179269D01*
X1330858Y-2166315D01*
X1326642Y-2153818D01*
X1320800Y-2141982D01*
X1313434Y-2131009D01*
X1304747Y-2121103D01*
X1294841Y-2112365D01*
X1283868Y-2105050D01*
X1272032Y-2099208D01*
X1259535Y-2094992D01*
X1246581Y-2092401D01*
X1233068Y-2091486D01*
X1013764Y-2091486D01*
X1000252Y-2092401D01*
X987298Y-2094992D01*
X974801Y-2099208D01*
X962964Y-2105050D01*
X951992Y-2112365D01*
X942086Y-2121103D01*
X933348Y-2131009D01*
X926033Y-2141982D01*
X920191Y-2153818D01*
X915974Y-2166315D01*
X913384Y-2179269D01*
X912520Y-2192426D01*
X913384Y-2205583D01*
X915974Y-2218537D01*
X920191Y-2231034D01*
X926033Y-2242870D01*
X933348Y-2253843D01*
X942086Y-2263749D01*
X951992Y-2272436D01*
X962964Y-2279802D01*
X974801Y-2285644D01*
X987298Y-2289860D01*
X1000252Y-2292451D01*
G37*
G36*
X1593392Y-2220874D02*
G01*
X1607210Y-2219960D01*
X1620774Y-2217267D01*
X1633931Y-2212797D01*
X1646326Y-2206650D01*
X1657857Y-2198979D01*
X1668272Y-2189835D01*
X1677365Y-2179421D01*
X1685086Y-2167940D01*
X1691233Y-2155494D01*
X1695653Y-2142388D01*
X1698345Y-2128774D01*
X1699260Y-2114956D01*
X1698345Y-2101138D01*
X1695653Y-2087575D01*
X1691233Y-2074468D01*
X1685086Y-2062022D01*
X1677365Y-2050491D01*
X1668272Y-2040077D01*
X1657857Y-2030984D01*
X1646326Y-2023262D01*
X1633931Y-2017166D01*
X1620774Y-2012696D01*
X1607210Y-2010003D01*
X1593392Y-2009089D01*
X1579575Y-2010003D01*
X1565960Y-2012696D01*
X1552854Y-2017166D01*
X1540459Y-2023262D01*
X1528927Y-2030984D01*
X1518513Y-2040077D01*
X1509369Y-2050491D01*
X1501698Y-2062022D01*
X1495552Y-2074468D01*
X1491132Y-2087575D01*
X1488389Y-2101138D01*
X1487474Y-2114956D01*
X1488389Y-2128774D01*
X1491132Y-2142388D01*
X1495552Y-2155494D01*
X1501698Y-2167940D01*
X1509369Y-2179421D01*
X1518513Y-2189835D01*
X1528927Y-2198979D01*
X1540459Y-2206650D01*
X1552854Y-2212797D01*
X1565960Y-2217267D01*
X1579575Y-2219960D01*
G37*
G36*
X1373428Y-1943303D02*
G01*
X1386586Y-1942439D01*
X1399540Y-1939848D01*
X1412036Y-1935632D01*
X1423873Y-1929790D01*
X1434846Y-1922475D01*
X1444752Y-1913737D01*
X1453438Y-1903831D01*
X1460804Y-1892858D01*
X1466646Y-1881022D01*
X1470863Y-1868525D01*
X1473454Y-1855571D01*
X1474317Y-1842109D01*
X1474317Y-1612747D01*
X1473454Y-1599234D01*
X1470863Y-1586331D01*
X1466646Y-1573834D01*
X1460804Y-1561998D01*
X1453438Y-1551025D01*
X1444752Y-1541068D01*
X1434846Y-1532382D01*
X1423873Y-1525066D01*
X1412036Y-1519224D01*
X1399540Y-1514957D01*
X1386586Y-1512417D01*
X1373428Y-1511554D01*
X1360271Y-1512417D01*
X1347317Y-1514957D01*
X1334820Y-1519224D01*
X1322984Y-1525066D01*
X1312011Y-1532382D01*
X1302105Y-1541068D01*
X1293368Y-1551025D01*
X1286052Y-1561998D01*
X1280210Y-1573834D01*
X1275994Y-1586331D01*
X1273403Y-1599234D01*
X1272540Y-1612747D01*
X1272540Y-1842109D01*
X1273403Y-1855571D01*
X1275994Y-1868525D01*
X1280210Y-1881022D01*
X1286052Y-1892858D01*
X1293368Y-1903831D01*
X1302105Y-1913737D01*
X1312011Y-1922475D01*
X1322984Y-1929790D01*
X1334820Y-1935632D01*
X1347317Y-1939848D01*
X1360271Y-1942439D01*
G37*
G36*
X729589Y-1933041D02*
G01*
X729589Y-1828749D01*
X672541Y-1828749D01*
X672541Y-1842109D01*
X673404Y-1855571D01*
X675995Y-1868525D01*
X680212Y-1881022D01*
X686054Y-1892858D01*
X693369Y-1903831D01*
X702106Y-1913737D01*
X712012Y-1922475D01*
X722985Y-1929790D01*
G37*
G36*
X817270Y-1933041D02*
G01*
X823874Y-1929790D01*
X834847Y-1922475D01*
X844753Y-1913737D01*
X853440Y-1903831D01*
X860806Y-1892858D01*
X866648Y-1881022D01*
X870864Y-1868525D01*
X873455Y-1855571D01*
X874318Y-1842109D01*
X874318Y-1828749D01*
X817270Y-1828749D01*
G37*
G36*
X7709966Y-1816607D02*
G01*
X7723631Y-1815744D01*
X7737043Y-1813052D01*
X7750048Y-1808632D01*
X7762290Y-1802587D01*
X7773670Y-1795018D01*
X7783982Y-1785975D01*
X7792974Y-1775663D01*
X7800594Y-1764284D01*
X7806639Y-1752041D01*
X7811058Y-1739087D01*
X7813700Y-1725675D01*
X7814614Y-1712010D01*
X7813700Y-1698345D01*
X7811058Y-1684934D01*
X7806639Y-1671980D01*
X7800594Y-1659686D01*
X7792974Y-1648307D01*
X7783982Y-1637995D01*
X7773670Y-1629003D01*
X7762290Y-1621383D01*
X7750048Y-1615338D01*
X7737043Y-1610918D01*
X7723631Y-1608277D01*
X7709966Y-1607362D01*
X7696352Y-1608277D01*
X7682890Y-1610918D01*
X7669936Y-1615338D01*
X7657693Y-1621383D01*
X7646314Y-1629003D01*
X7636002Y-1637995D01*
X7626959Y-1648307D01*
X7619390Y-1659686D01*
X7613345Y-1671980D01*
X7608925Y-1684934D01*
X7606233Y-1698345D01*
X7605369Y-1712010D01*
X7606233Y-1725675D01*
X7608925Y-1739087D01*
X7613345Y-1752041D01*
X7619390Y-1764284D01*
X7626959Y-1775663D01*
X7636002Y-1785975D01*
X7646314Y-1795018D01*
X7657693Y-1802587D01*
X7669936Y-1808632D01*
X7682890Y-1813052D01*
X7696352Y-1815744D01*
G37*
G36*
X6191707Y-1805838D02*
G01*
X6198311Y-1802587D01*
X6209690Y-1795018D01*
X6219952Y-1785975D01*
X6228994Y-1775663D01*
X6236614Y-1764284D01*
X6239865Y-1757730D01*
X6191707Y-1757730D01*
G37*
G36*
X6100267Y-1805838D02*
G01*
X6100267Y-1757730D01*
X6052108Y-1757730D01*
X6055360Y-1764284D01*
X6062980Y-1775663D01*
X6072022Y-1785975D01*
X6082284Y-1795018D01*
X6093663Y-1802587D01*
G37*
G36*
X7501686Y-1805838D02*
G01*
X7508290Y-1802587D01*
X7519670Y-1795018D01*
X7529982Y-1785975D01*
X7538974Y-1775663D01*
X7546594Y-1764284D01*
X7549845Y-1757730D01*
X7501686Y-1757730D01*
G37*
G36*
X7410246Y-1805838D02*
G01*
X7410246Y-1757730D01*
X7362139Y-1757730D01*
X7365390Y-1764284D01*
X7372959Y-1775663D01*
X7382002Y-1785975D01*
X7392314Y-1795018D01*
X7403693Y-1802587D01*
G37*
G36*
X1693367Y-1710842D02*
G01*
X1707184Y-1709928D01*
X1720799Y-1707235D01*
X1733905Y-1702765D01*
X1746351Y-1696618D01*
X1757832Y-1688947D01*
X1768246Y-1679803D01*
X1777390Y-1669389D01*
X1785061Y-1657908D01*
X1791207Y-1645462D01*
X1795678Y-1632356D01*
X1798370Y-1618742D01*
X1799285Y-1604924D01*
X1798370Y-1591106D01*
X1795678Y-1577543D01*
X1791207Y-1564436D01*
X1785061Y-1551990D01*
X1777390Y-1540459D01*
X1768246Y-1530045D01*
X1757832Y-1520952D01*
X1746351Y-1513230D01*
X1733905Y-1507134D01*
X1720799Y-1502664D01*
X1707184Y-1499971D01*
X1693367Y-1499057D01*
X1679549Y-1499971D01*
X1665986Y-1502664D01*
X1652879Y-1507134D01*
X1640433Y-1513230D01*
X1628901Y-1520952D01*
X1618488Y-1530045D01*
X1609394Y-1540459D01*
X1601673Y-1551990D01*
X1595577Y-1564436D01*
X1591106Y-1577543D01*
X1588414Y-1591106D01*
X1587500Y-1604924D01*
X1588414Y-1618742D01*
X1591106Y-1632356D01*
X1595577Y-1645462D01*
X1601673Y-1657908D01*
X1609394Y-1669389D01*
X1618488Y-1679803D01*
X1628901Y-1688947D01*
X1640433Y-1696618D01*
X1652879Y-1702765D01*
X1665986Y-1707235D01*
X1679549Y-1709928D01*
G37*
G36*
X7362139Y-1666290D02*
G01*
X7410246Y-1666290D01*
X7410246Y-1618132D01*
X7403693Y-1621383D01*
X7392314Y-1629003D01*
X7382002Y-1637995D01*
X7372959Y-1648307D01*
X7365390Y-1659686D01*
G37*
G36*
X7501686Y-1666290D02*
G01*
X7549845Y-1666290D01*
X7546594Y-1659686D01*
X7538974Y-1648307D01*
X7529982Y-1637995D01*
X7519670Y-1629003D01*
X7508290Y-1621383D01*
X7501686Y-1618132D01*
G37*
G36*
X817270Y-1626057D02*
G01*
X874318Y-1626057D01*
X874318Y-1612747D01*
X873455Y-1599234D01*
X870864Y-1586331D01*
X866648Y-1573834D01*
X860806Y-1561998D01*
X853440Y-1551025D01*
X844753Y-1541068D01*
X834847Y-1532382D01*
X823874Y-1525066D01*
X817270Y-1521815D01*
G37*
G36*
X672541Y-1626057D02*
G01*
X729589Y-1626057D01*
X729589Y-1521815D01*
X722985Y-1525066D01*
X712012Y-1532382D01*
X702106Y-1541068D01*
X693369Y-1551025D01*
X686054Y-1561998D01*
X680212Y-1573834D01*
X675995Y-1586331D01*
X673404Y-1599234D01*
X672541Y-1612747D01*
G37*
G36*
X1262024Y-1093266D02*
G01*
X1262024Y-1048308D01*
X1217015Y-1048308D01*
X1218234Y-1051052D01*
X1225042Y-1062278D01*
X1233322Y-1072388D01*
X1242872Y-1081328D01*
X1253540Y-1088898D01*
G37*
G36*
X1344726Y-1093266D02*
G01*
X1353210Y-1088898D01*
X1363878Y-1081328D01*
X1373428Y-1072388D01*
X1381709Y-1062278D01*
X1388516Y-1051052D01*
X1389684Y-1048308D01*
X1344726Y-1048308D01*
G37*
G36*
X1344726Y-965606D02*
G01*
X1389684Y-965606D01*
X1388516Y-962863D01*
X1381709Y-951687D01*
X1373428Y-941527D01*
X1363878Y-932586D01*
X1353210Y-925017D01*
X1344726Y-920648D01*
G37*
G36*
X1217015Y-965606D02*
G01*
X1262024Y-965606D01*
X1262024Y-920648D01*
X1253540Y-925017D01*
X1242872Y-932586D01*
X1233322Y-941527D01*
X1225042Y-951687D01*
X1218234Y-962863D01*
G37*
G36*
X6639966Y-942898D02*
G01*
X6653022Y-941984D01*
X6665874Y-939342D01*
X6678168Y-934923D01*
X6689801Y-928928D01*
X6700520Y-921359D01*
X6710070Y-912469D01*
X6718300Y-902309D01*
X6725107Y-891133D01*
X6730339Y-879094D01*
X6733844Y-866495D01*
X6735622Y-853541D01*
X6735622Y-840435D01*
X6733844Y-827481D01*
X6730339Y-814882D01*
X6725107Y-802894D01*
X6718300Y-791718D01*
X6710070Y-781558D01*
X6700520Y-772617D01*
X6689801Y-765098D01*
X6678168Y-759053D01*
X6665874Y-754684D01*
X6653022Y-751992D01*
X6639966Y-751128D01*
X6626910Y-751992D01*
X6614109Y-754684D01*
X6601764Y-759053D01*
X6590182Y-765098D01*
X6579463Y-772617D01*
X6569913Y-781558D01*
X6561632Y-791718D01*
X6554876Y-802894D01*
X6549644Y-814882D01*
X6546088Y-827481D01*
X6544309Y-840435D01*
X6544309Y-853541D01*
X6546088Y-866495D01*
X6549644Y-879094D01*
X6554876Y-891133D01*
X6561632Y-902309D01*
X6569913Y-912469D01*
X6579463Y-921359D01*
X6590182Y-928928D01*
X6601764Y-934923D01*
X6614109Y-939342D01*
X6626910Y-941984D01*
G37*
G36*
X1303375Y-848868D02*
G01*
X1316431Y-847953D01*
X1329232Y-845312D01*
X1341577Y-840892D01*
X1353210Y-834898D01*
X1363878Y-827328D01*
X1373428Y-818388D01*
X1381709Y-808278D01*
X1388516Y-797052D01*
X1393698Y-785063D01*
X1397254Y-772464D01*
X1399032Y-759510D01*
X1399032Y-746404D01*
X1397254Y-733450D01*
X1393698Y-720852D01*
X1388516Y-708863D01*
X1381709Y-697687D01*
X1373428Y-687527D01*
X1363878Y-678586D01*
X1353210Y-671017D01*
X1341577Y-665022D01*
X1329232Y-660654D01*
X1316431Y-657961D01*
X1303375Y-657098D01*
X1290320Y-657961D01*
X1277518Y-660654D01*
X1265174Y-665022D01*
X1253540Y-671017D01*
X1242872Y-678586D01*
X1233322Y-687527D01*
X1225042Y-697687D01*
X1218234Y-708863D01*
X1213002Y-720852D01*
X1209497Y-733450D01*
X1207719Y-746404D01*
X1207719Y-759510D01*
X1209497Y-772464D01*
X1213002Y-785063D01*
X1218234Y-797052D01*
X1225042Y-808278D01*
X1233322Y-818388D01*
X1242872Y-827328D01*
X1253540Y-834898D01*
X1265174Y-840892D01*
X1277518Y-845312D01*
X1290320Y-847953D01*
G37*
G36*
X5862726Y-820775D02*
G01*
X5875782Y-819912D01*
X5888583Y-817219D01*
X5900928Y-812850D01*
X5912510Y-806856D01*
X5923229Y-799287D01*
X5932779Y-790346D01*
X5941060Y-780186D01*
X5947816Y-769010D01*
X5953048Y-757021D01*
X5956604Y-744423D01*
X5958382Y-731469D01*
X5958382Y-718362D01*
X5956604Y-705408D01*
X5953048Y-692810D01*
X5947816Y-680821D01*
X5941060Y-669594D01*
X5932779Y-659485D01*
X5923229Y-650544D01*
X5912510Y-642975D01*
X5900928Y-636981D01*
X5888583Y-632561D01*
X5875782Y-629920D01*
X5862726Y-629005D01*
X5849670Y-629920D01*
X5836818Y-632561D01*
X5824524Y-636981D01*
X5812891Y-642975D01*
X5802172Y-650544D01*
X5792622Y-659485D01*
X5784392Y-669594D01*
X5777585Y-680821D01*
X5772353Y-692810D01*
X5768848Y-705408D01*
X5767019Y-718362D01*
X5767019Y-731469D01*
X5768848Y-744423D01*
X5772353Y-757021D01*
X5777585Y-769010D01*
X5784392Y-780186D01*
X5792622Y-790346D01*
X5802172Y-799287D01*
X5812891Y-806856D01*
X5824524Y-812850D01*
X5836818Y-817219D01*
X5849670Y-819912D01*
G37*
G36*
X6639966Y-688898D02*
G01*
X6653022Y-687984D01*
X6665874Y-685342D01*
X6678168Y-680923D01*
X6689801Y-674928D01*
X6700520Y-667359D01*
X6710070Y-658469D01*
X6718300Y-648309D01*
X6725107Y-637133D01*
X6730339Y-625094D01*
X6733844Y-612495D01*
X6735622Y-599541D01*
X6735622Y-586435D01*
X6733844Y-573481D01*
X6730339Y-560882D01*
X6725107Y-548894D01*
X6718300Y-537718D01*
X6710070Y-527558D01*
X6700520Y-518617D01*
X6689801Y-511098D01*
X6678168Y-505053D01*
X6665874Y-500684D01*
X6653022Y-497992D01*
X6639966Y-497128D01*
X6626910Y-497992D01*
X6614109Y-500684D01*
X6601764Y-505053D01*
X6590182Y-511098D01*
X6579463Y-518617D01*
X6569913Y-527558D01*
X6561632Y-537718D01*
X6554876Y-548894D01*
X6549644Y-560882D01*
X6546088Y-573481D01*
X6544309Y-586435D01*
X6544309Y-599541D01*
X6546088Y-612495D01*
X6549644Y-625094D01*
X6554876Y-637133D01*
X6561632Y-648309D01*
X6569913Y-658469D01*
X6579463Y-667359D01*
X6590182Y-674928D01*
X6601764Y-680923D01*
X6614109Y-685342D01*
X6626910Y-687984D01*
G37*
G36*
X5821375Y-557225D02*
G01*
X5821375Y-512267D01*
X5776366Y-512267D01*
X5777585Y-515010D01*
X5784392Y-526186D01*
X5792622Y-536346D01*
X5802172Y-545287D01*
X5812891Y-552856D01*
G37*
G36*
X5904077Y-557225D02*
G01*
X5912510Y-552856D01*
X5923229Y-545287D01*
X5932779Y-536346D01*
X5941060Y-526186D01*
X5947816Y-515010D01*
X5949035Y-512267D01*
X5904077Y-512267D01*
G37*
G36*
X4950053Y-506120D02*
G01*
X4964633Y-506120D01*
X4979060Y-504291D01*
X4993182Y-500684D01*
X5006695Y-495300D01*
X5019446Y-488289D01*
X5031232Y-479755D01*
X5041849Y-469798D01*
X5051094Y-458571D01*
X5058918Y-446278D01*
X5065115Y-433120D01*
X5069586Y-419303D01*
X5072329Y-404977D01*
X5073243Y-390144D01*
X5073243Y-310794D01*
X5072329Y-295960D01*
X5069586Y-281635D01*
X5065115Y-267817D01*
X5058918Y-254660D01*
X5051094Y-242366D01*
X5041849Y-231140D01*
X5031232Y-221183D01*
X5019446Y-212598D01*
X5006695Y-205587D01*
X4993182Y-200253D01*
X4979060Y-196646D01*
X4964633Y-194818D01*
X4950053Y-194818D01*
X4935626Y-196646D01*
X4921554Y-200253D01*
X4907991Y-205587D01*
X4895240Y-212598D01*
X4883505Y-221183D01*
X4872888Y-231140D01*
X4863592Y-242366D01*
X4855819Y-254660D01*
X4849622Y-267817D01*
X4845100Y-281635D01*
X4842357Y-295960D01*
X4841443Y-310794D01*
X4841443Y-390144D01*
X4842357Y-404977D01*
X4845100Y-419303D01*
X4849622Y-433120D01*
X4855819Y-446278D01*
X4863592Y-458571D01*
X4872888Y-469798D01*
X4883505Y-479755D01*
X4895240Y-488289D01*
X4907991Y-495300D01*
X4921554Y-500684D01*
X4935626Y-504291D01*
G37*
G36*
X3050082Y-506120D02*
G01*
X3064611Y-506120D01*
X3079089Y-504291D01*
X3093161Y-500684D01*
X3106724Y-495300D01*
X3119475Y-488289D01*
X3131210Y-479755D01*
X3141827Y-469798D01*
X3151124Y-458571D01*
X3158896Y-446278D01*
X3165094Y-433120D01*
X3169615Y-419303D01*
X3172307Y-404977D01*
X3173272Y-390144D01*
X3173272Y-310794D01*
X3172307Y-295960D01*
X3169615Y-281635D01*
X3165094Y-267817D01*
X3158896Y-254660D01*
X3151124Y-242366D01*
X3141827Y-231140D01*
X3131210Y-221183D01*
X3119475Y-212598D01*
X3106724Y-205587D01*
X3093161Y-200253D01*
X3079089Y-196646D01*
X3064611Y-194818D01*
X3050082Y-194818D01*
X3035655Y-196646D01*
X3021533Y-200253D01*
X3008020Y-205587D01*
X2995269Y-212598D01*
X2983484Y-221183D01*
X2972866Y-231140D01*
X2963621Y-242366D01*
X2955798Y-254660D01*
X2949600Y-267817D01*
X2945130Y-281635D01*
X2942386Y-295960D01*
X2941472Y-310794D01*
X2941472Y-390144D01*
X2942386Y-404977D01*
X2945130Y-419303D01*
X2949600Y-433120D01*
X2955798Y-446278D01*
X2963621Y-458571D01*
X2972866Y-469798D01*
X2983484Y-479755D01*
X2995269Y-488289D01*
X3008020Y-495300D01*
X3021533Y-500684D01*
X3035655Y-504291D01*
G37*
G36*
X4359910Y-505358D02*
G01*
X4538776Y-505358D01*
X4545126Y-504647D01*
X4550562Y-502767D01*
X4555490Y-499668D01*
X4559554Y-495554D01*
X4562652Y-490677D01*
X4564532Y-485241D01*
X4565243Y-478891D01*
X4565243Y-220014D01*
X4564532Y-213715D01*
X4562652Y-208229D01*
X4559554Y-203352D01*
X4555490Y-199237D01*
X4550562Y-196189D01*
X4545126Y-194259D01*
X4538776Y-193548D01*
X4359910Y-193548D01*
X4353610Y-194259D01*
X4348124Y-196189D01*
X4343247Y-199237D01*
X4339132Y-203352D01*
X4336084Y-208229D01*
X4334154Y-213715D01*
X4333443Y-220014D01*
X4333443Y-478891D01*
X4334154Y-485241D01*
X4336084Y-490677D01*
X4339132Y-495554D01*
X4343247Y-499668D01*
X4348124Y-502767D01*
X4353610Y-504647D01*
G37*
G36*
X2459939Y-505358D02*
G01*
X2638806Y-505358D01*
X2645105Y-504647D01*
X2650591Y-502767D01*
X2655468Y-499668D01*
X2659583Y-495554D01*
X2662631Y-490677D01*
X2664561Y-485241D01*
X2665272Y-478891D01*
X2665272Y-220014D01*
X2664561Y-213715D01*
X2662631Y-208229D01*
X2659583Y-203352D01*
X2655468Y-199237D01*
X2650591Y-196189D01*
X2645105Y-194259D01*
X2638806Y-193548D01*
X2459939Y-193548D01*
X2453589Y-194259D01*
X2448153Y-196189D01*
X2443226Y-199237D01*
X2439162Y-203352D01*
X2436063Y-208229D01*
X2434183Y-213715D01*
X2433472Y-220014D01*
X2433472Y-478891D01*
X2434183Y-485241D01*
X2436063Y-490677D01*
X2439162Y-495554D01*
X2443226Y-499668D01*
X2448153Y-502767D01*
X2453589Y-504647D01*
G37*
G36*
X4696053Y-505104D02*
G01*
X4710633Y-505104D01*
X4725060Y-503275D01*
X4739182Y-499668D01*
X4752695Y-494334D01*
X4765446Y-487324D01*
X4777232Y-478739D01*
X4787849Y-468782D01*
X4797094Y-457606D01*
X4804918Y-445312D01*
X4811115Y-432104D01*
X4815586Y-418287D01*
X4818329Y-404012D01*
X4819243Y-389128D01*
X4819243Y-309778D01*
X4818329Y-294944D01*
X4815586Y-280670D01*
X4811115Y-266801D01*
X4804918Y-253644D01*
X4797094Y-241350D01*
X4787849Y-230124D01*
X4777232Y-220167D01*
X4765446Y-211632D01*
X4752695Y-204622D01*
X4739182Y-199237D01*
X4725060Y-195630D01*
X4710633Y-193802D01*
X4696053Y-193802D01*
X4681626Y-195630D01*
X4667554Y-199237D01*
X4653991Y-204622D01*
X4641240Y-211632D01*
X4629505Y-220167D01*
X4618888Y-230124D01*
X4609592Y-241350D01*
X4601819Y-253644D01*
X4595622Y-266801D01*
X4591100Y-280670D01*
X4588357Y-294944D01*
X4587443Y-309778D01*
X4587443Y-389128D01*
X4588357Y-404012D01*
X4591100Y-418287D01*
X4595622Y-432104D01*
X4601819Y-445312D01*
X4609592Y-457606D01*
X4618888Y-468782D01*
X4629505Y-478739D01*
X4641240Y-487324D01*
X4653991Y-494334D01*
X4667554Y-499668D01*
X4681626Y-503275D01*
G37*
G36*
X2796082Y-505104D02*
G01*
X2810611Y-505104D01*
X2825089Y-503275D01*
X2839161Y-499668D01*
X2852724Y-494334D01*
X2865475Y-487324D01*
X2877210Y-478739D01*
X2887827Y-468782D01*
X2897124Y-457606D01*
X2904896Y-445312D01*
X2911094Y-432104D01*
X2915615Y-418287D01*
X2918307Y-404012D01*
X2919272Y-389128D01*
X2919272Y-309778D01*
X2918307Y-294944D01*
X2915615Y-280670D01*
X2911094Y-266801D01*
X2904896Y-253644D01*
X2897124Y-241350D01*
X2887827Y-230124D01*
X2877210Y-220167D01*
X2865475Y-211632D01*
X2852724Y-204622D01*
X2839161Y-199237D01*
X2825089Y-195630D01*
X2810611Y-193802D01*
X2796082Y-193802D01*
X2781655Y-195630D01*
X2767533Y-199237D01*
X2754020Y-204622D01*
X2741269Y-211632D01*
X2729484Y-220167D01*
X2718866Y-230124D01*
X2709621Y-241350D01*
X2701798Y-253644D01*
X2695600Y-266801D01*
X2691130Y-280670D01*
X2688386Y-294944D01*
X2687472Y-309778D01*
X2687472Y-389128D01*
X2688386Y-404012D01*
X2691130Y-418287D01*
X2695600Y-432104D01*
X2701798Y-445312D01*
X2709621Y-457606D01*
X2718866Y-468782D01*
X2729484Y-478739D01*
X2741269Y-487324D01*
X2754020Y-494334D01*
X2767533Y-499668D01*
X2781655Y-503275D01*
G37*
G36*
X267919Y-465785D02*
G01*
X285953Y-464413D01*
X303784Y-461162D01*
X321157Y-456082D01*
X337921Y-449275D01*
X353923Y-440740D01*
X368960Y-430631D01*
X382828Y-419049D01*
X395478Y-406095D01*
X406755Y-391871D01*
X416458Y-376580D01*
X424535Y-360426D01*
X430936Y-343458D01*
X435559Y-325932D01*
X438353Y-308051D01*
X439267Y-289966D01*
X438353Y-271881D01*
X435559Y-254000D01*
X430936Y-236474D01*
X424535Y-219506D01*
X416458Y-203352D01*
X406755Y-188061D01*
X395478Y-173837D01*
X382828Y-160883D01*
X368960Y-149301D01*
X353923Y-139192D01*
X337921Y-130657D01*
X321157Y-123850D01*
X303784Y-118770D01*
X285953Y-115519D01*
X267919Y-114147D01*
X249783Y-114604D01*
X231851Y-116941D01*
X214223Y-121056D01*
X197104Y-127050D01*
X180695Y-134721D01*
X165201Y-144018D01*
X150672Y-154889D01*
X137414Y-167182D01*
X125425Y-180797D01*
X114960Y-195580D01*
X106019Y-211328D01*
X98806Y-227939D01*
X93268Y-245160D01*
X89560Y-262890D01*
X87731Y-280924D01*
X87731Y-299008D01*
X89560Y-317042D01*
X93268Y-334772D01*
X98806Y-351993D01*
X106019Y-368604D01*
X114960Y-384352D01*
X125425Y-399135D01*
X137414Y-412750D01*
X150672Y-425043D01*
X165201Y-435914D01*
X180695Y-445211D01*
X197104Y-452882D01*
X214223Y-458876D01*
X231851Y-462991D01*
X249783Y-465328D01*
G37*
G36*
X5776366Y-429564D02*
G01*
X5821375Y-429564D01*
X5821375Y-384606D01*
X5812891Y-388975D01*
X5802172Y-396544D01*
X5792622Y-405485D01*
X5784392Y-415594D01*
X5777585Y-426821D01*
G37*
G36*
X5904077Y-429564D02*
G01*
X5949035Y-429564D01*
X5947816Y-426821D01*
X5941060Y-415594D01*
X5932779Y-405485D01*
X5923229Y-396544D01*
X5912510Y-388975D01*
X5904077Y-384606D01*
G37*
G36*
X9404502Y-425856D02*
G01*
X9422587Y-424434D01*
X9440367Y-421182D01*
X9457791Y-416153D01*
X9474555Y-409295D01*
X9490506Y-400812D01*
X9505543Y-390702D01*
X9519462Y-379120D01*
X9532112Y-366115D01*
X9543338Y-351942D01*
X9553041Y-336651D01*
X9561169Y-320446D01*
X9567519Y-303479D01*
X9572142Y-286004D01*
X9574936Y-268122D01*
X9575850Y-250037D01*
X9574936Y-231902D01*
X9572142Y-214020D01*
X9567519Y-196545D01*
X9561169Y-179578D01*
X9553041Y-163372D01*
X9543338Y-148082D01*
X9532112Y-133908D01*
X9519462Y-120904D01*
X9505543Y-109321D01*
X9490506Y-99212D01*
X9474555Y-90728D01*
X9457791Y-83870D01*
X9440367Y-78841D01*
X9422587Y-75590D01*
X9404502Y-74168D01*
X9386417Y-74625D01*
X9368434Y-76962D01*
X9350806Y-81127D01*
X9333738Y-87071D01*
X9317329Y-94742D01*
X9301784Y-104089D01*
X9287306Y-114960D01*
X9273997Y-127254D01*
X9262059Y-140868D01*
X9251543Y-155600D01*
X9242653Y-171348D01*
X9235389Y-187960D01*
X9229902Y-205232D01*
X9226194Y-222961D01*
X9224314Y-240944D01*
X9224314Y-259079D01*
X9226194Y-277063D01*
X9229902Y-294792D01*
X9235389Y-312064D01*
X9242653Y-328676D01*
X9251543Y-344424D01*
X9262059Y-359156D01*
X9273997Y-372770D01*
X9287306Y-385064D01*
X9301784Y-395935D01*
X9317329Y-405282D01*
X9333738Y-412953D01*
X9350806Y-418896D01*
X9368434Y-423062D01*
X9386417Y-425399D01*
G37*

%LPD*%
G36*
X6581089Y-5611063D02*
G01*
X6576771Y-5610098D01*
X6573266Y-5607354D01*
X6571234Y-5603392D01*
X6571132Y-5598972D01*
X6572910Y-5594858D01*
X6578041Y-5587898D01*
X6584594Y-5575960D01*
X6589471Y-5563260D01*
X6592671Y-5549950D01*
X6593992Y-5536387D01*
X6593586Y-5522772D01*
X6591350Y-5509564D01*
X6591300Y-5506364D01*
X6592265Y-5503316D01*
X6594195Y-5500725D01*
X7167118Y-4927803D01*
X7172248Y-4921504D01*
X7175855Y-4914798D01*
X7178040Y-4907483D01*
X7178852Y-4899406D01*
X7178852Y-3338423D01*
X7179868Y-3334004D01*
X7182662Y-3330498D01*
X7186726Y-3328517D01*
X7191248Y-3328517D01*
X7196226Y-3331159D01*
X7207961Y-3338118D01*
X7220508Y-3343452D01*
X7233666Y-3347008D01*
X7247178Y-3348837D01*
X7260793Y-3348837D01*
X7274306Y-3347008D01*
X7287463Y-3343452D01*
X7300010Y-3338118D01*
X7311745Y-3331159D01*
X7322464Y-3322726D01*
X7331964Y-3312922D01*
X7340041Y-3301898D01*
X7342022Y-3298342D01*
X7344918Y-3294989D01*
X7348981Y-3293211D01*
X7353452Y-3293364D01*
X7357414Y-3295396D01*
X7360107Y-3298901D01*
X7361072Y-3303219D01*
X7361072Y-5112664D01*
X7360310Y-5116576D01*
X7358125Y-5119878D01*
X7043674Y-5434279D01*
X7040575Y-5436412D01*
X7036917Y-5437225D01*
X7033158Y-5436666D01*
X7026960Y-5434533D01*
X7013600Y-5431840D01*
X6999986Y-5430926D01*
X6986371Y-5431840D01*
X6973011Y-5434533D01*
X6960158Y-5439003D01*
X6947966Y-5445150D01*
X6936740Y-5452872D01*
X6926630Y-5462016D01*
X6917791Y-5472430D01*
X6910476Y-5483910D01*
X6904736Y-5496306D01*
X6900672Y-5509310D01*
X6898436Y-5522772D01*
X6897979Y-5536387D01*
X6899300Y-5549950D01*
X6902500Y-5563260D01*
X6907377Y-5575960D01*
X6913930Y-5587898D01*
X6919061Y-5594858D01*
X6920839Y-5598972D01*
X6920738Y-5603392D01*
X6918756Y-5607354D01*
X6915251Y-5610098D01*
X6910882Y-5611063D01*
X6835089Y-5611063D01*
X6830771Y-5610098D01*
X6827266Y-5607354D01*
X6825234Y-5603392D01*
X6825132Y-5598972D01*
X6826910Y-5594858D01*
X6832041Y-5587898D01*
X6837781Y-5577433D01*
X6790436Y-5577433D01*
X6790436Y-5600903D01*
X6789674Y-5604814D01*
X6787438Y-5608116D01*
X6784187Y-5610301D01*
X6780275Y-5611063D01*
X6711696Y-5611063D01*
X6707835Y-5610301D01*
X6704533Y-5608116D01*
X6702298Y-5604814D01*
X6701536Y-5600903D01*
X6701536Y-5577433D01*
X6654190Y-5577433D01*
X6659930Y-5587898D01*
X6665061Y-5594858D01*
X6666839Y-5598972D01*
X6666738Y-5603392D01*
X6664756Y-5607354D01*
X6661251Y-5610098D01*
X6656882Y-5611063D01*
G37*

%LPC*%
G36*
X6654342Y-5488533D02*
G01*
X6701536Y-5488533D01*
X6701536Y-5441340D01*
X6693966Y-5445150D01*
X6682740Y-5452872D01*
X6672630Y-5462016D01*
X6663791Y-5472430D01*
X6656476Y-5483910D01*
G37*
G36*
X6790436Y-5488533D02*
G01*
X6837629Y-5488533D01*
X6835495Y-5483910D01*
X6828180Y-5472430D01*
X6819392Y-5462016D01*
X6809231Y-5452872D01*
X6798005Y-5445150D01*
X6790436Y-5441340D01*
G37*

%LPD*%
G36*
X8348522Y-5780989D02*
G01*
X8344662Y-5780227D01*
X8341359Y-5778042D01*
X8339175Y-5774740D01*
X8338362Y-5770829D01*
X8339175Y-5766968D01*
X8341359Y-5763666D01*
X8707272Y-5397703D01*
X8710371Y-5395620D01*
X8714028Y-5394756D01*
X8717737Y-5395264D01*
X8725916Y-5398058D01*
X8739327Y-5400700D01*
X8752992Y-5401614D01*
X8766657Y-5400700D01*
X8780068Y-5398058D01*
X8793022Y-5393639D01*
X8805316Y-5387594D01*
X8816695Y-5379974D01*
X8826957Y-5370982D01*
X8835999Y-5360670D01*
X8843568Y-5349290D01*
X8849664Y-5337048D01*
X8854033Y-5324094D01*
X8856726Y-5310632D01*
X8857589Y-5296966D01*
X8856726Y-5283352D01*
X8854033Y-5269890D01*
X8849664Y-5256936D01*
X8843568Y-5244693D01*
X8835999Y-5233314D01*
X8826957Y-5223002D01*
X8816695Y-5213959D01*
X8805316Y-5206390D01*
X8793022Y-5200345D01*
X8780068Y-5195925D01*
X8766657Y-5193284D01*
X8752992Y-5192369D01*
X8739327Y-5193284D01*
X8725916Y-5195925D01*
X8712962Y-5200345D01*
X8700668Y-5206390D01*
X8689289Y-5213959D01*
X8678976Y-5223002D01*
X8669985Y-5233314D01*
X8662365Y-5244693D01*
X8656320Y-5256936D01*
X8651900Y-5269890D01*
X8649258Y-5283352D01*
X8648344Y-5296966D01*
X8649258Y-5310632D01*
X8651900Y-5324094D01*
X8654694Y-5332272D01*
X8655202Y-5335981D01*
X8654389Y-5339588D01*
X8652256Y-5342686D01*
X8266836Y-5728106D01*
X8263534Y-5730290D01*
X8259673Y-5731103D01*
X7358583Y-5731103D01*
X7354722Y-5730290D01*
X7351420Y-5728106D01*
X7349236Y-5724804D01*
X7348423Y-5720943D01*
X7349236Y-5717032D01*
X7351420Y-5713730D01*
X7397242Y-5667959D01*
X7402372Y-5661660D01*
X7405979Y-5654954D01*
X7408164Y-5647639D01*
X7408976Y-5639562D01*
X7408976Y-5601258D01*
X7409840Y-5597093D01*
X7412329Y-5593689D01*
X7415936Y-5591606D01*
X7420152Y-5591149D01*
X7424166Y-5592419D01*
X7427315Y-5595213D01*
X7430008Y-5598922D01*
X7439507Y-5608726D01*
X7450226Y-5617159D01*
X7461961Y-5624118D01*
X7474508Y-5629452D01*
X7487666Y-5633008D01*
X7501178Y-5634837D01*
X7514793Y-5634837D01*
X7528306Y-5633008D01*
X7541463Y-5629452D01*
X7554010Y-5624118D01*
X7565745Y-5617159D01*
X7576464Y-5608726D01*
X7585964Y-5598922D01*
X7594041Y-5587898D01*
X7600594Y-5575960D01*
X7605471Y-5563260D01*
X7608671Y-5549950D01*
X7609992Y-5536387D01*
X7609586Y-5522772D01*
X7607300Y-5509310D01*
X7603236Y-5496306D01*
X7597495Y-5483910D01*
X7590180Y-5472430D01*
X7581392Y-5462016D01*
X7571231Y-5452872D01*
X7560005Y-5445150D01*
X7547864Y-5439003D01*
X7534960Y-5434533D01*
X7533131Y-5434177D01*
X7529169Y-5432399D01*
X7526274Y-5429148D01*
X7525054Y-5424982D01*
X7525664Y-5420664D01*
X7528001Y-5417007D01*
X9044178Y-3900881D01*
X9049308Y-3894582D01*
X9052915Y-3887876D01*
X9055100Y-3880561D01*
X9055912Y-3872484D01*
X9055912Y-3591814D01*
X9056674Y-3587902D01*
X9058859Y-3584600D01*
X9062161Y-3582415D01*
X9066072Y-3581654D01*
X9083852Y-3581654D01*
X9087713Y-3582415D01*
X9091015Y-3584600D01*
X9093250Y-3587902D01*
X9094012Y-3591814D01*
X9094012Y-4958029D01*
X9093250Y-4961788D01*
X9091168Y-4965039D01*
X9088018Y-4967274D01*
X9084259Y-4968189D01*
X9080449Y-4967579D01*
X9077147Y-4965649D01*
X9070695Y-4959959D01*
X9059316Y-4952390D01*
X9047022Y-4946345D01*
X9034068Y-4941925D01*
X9020657Y-4939284D01*
X9006992Y-4938369D01*
X8993327Y-4939284D01*
X8979916Y-4941925D01*
X8966962Y-4946345D01*
X8954668Y-4952390D01*
X8943289Y-4959959D01*
X8932976Y-4969002D01*
X8923985Y-4979314D01*
X8916365Y-4990693D01*
X8910320Y-5002936D01*
X8905900Y-5015890D01*
X8903258Y-5029352D01*
X8902344Y-5042966D01*
X8903258Y-5056632D01*
X8905900Y-5070094D01*
X8910320Y-5083048D01*
X8916365Y-5095290D01*
X8923985Y-5106670D01*
X8932976Y-5116982D01*
X8943289Y-5125974D01*
X8954668Y-5133594D01*
X8966962Y-5139639D01*
X8979916Y-5144058D01*
X8993327Y-5146700D01*
X9006992Y-5147614D01*
X9020657Y-5146700D01*
X9034068Y-5144058D01*
X9047022Y-5139639D01*
X9059316Y-5133594D01*
X9070695Y-5125974D01*
X9077147Y-5120335D01*
X9080449Y-5118354D01*
X9084259Y-5117795D01*
X9088018Y-5118709D01*
X9091168Y-5120944D01*
X9093250Y-5124196D01*
X9094012Y-5127955D01*
X9094012Y-5182158D01*
X9093250Y-5186070D01*
X9091015Y-5189372D01*
X9087713Y-5191556D01*
X9083852Y-5192318D01*
X8928811Y-5192318D01*
X8922512Y-5193030D01*
X8917025Y-5194960D01*
X8912148Y-5198059D01*
X8908034Y-5202123D01*
X8904935Y-5207050D01*
X8903055Y-5212486D01*
X8902344Y-5218836D01*
X8902344Y-5342432D01*
X8901582Y-5346344D01*
X8899347Y-5349646D01*
X8470950Y-5778042D01*
X8467648Y-5780227D01*
X8463788Y-5780989D01*
G37*

%LPC*%
G36*
X8009178Y-5634837D02*
G01*
X8022793Y-5634837D01*
X8036306Y-5633008D01*
X8049463Y-5629452D01*
X8062010Y-5624118D01*
X8073745Y-5617159D01*
X8084464Y-5608726D01*
X8093964Y-5598922D01*
X8102041Y-5587898D01*
X8108594Y-5575960D01*
X8113471Y-5563260D01*
X8116671Y-5549950D01*
X8117992Y-5536387D01*
X8117586Y-5522772D01*
X8115300Y-5509310D01*
X8111236Y-5496306D01*
X8105495Y-5483910D01*
X8098180Y-5472430D01*
X8089392Y-5462016D01*
X8079231Y-5452872D01*
X8068005Y-5445150D01*
X8055864Y-5439003D01*
X8042960Y-5434533D01*
X8029600Y-5431840D01*
X8015986Y-5430926D01*
X8002371Y-5431840D01*
X7989011Y-5434533D01*
X7976158Y-5439003D01*
X7963966Y-5445150D01*
X7952740Y-5452872D01*
X7942630Y-5462016D01*
X7933791Y-5472430D01*
X7926476Y-5483910D01*
X7920736Y-5496306D01*
X7916672Y-5509310D01*
X7914436Y-5522772D01*
X7913979Y-5536387D01*
X7915300Y-5549950D01*
X7918500Y-5563260D01*
X7923377Y-5575960D01*
X7929930Y-5587898D01*
X7938008Y-5598922D01*
X7947507Y-5608726D01*
X7958226Y-5617159D01*
X7969961Y-5624118D01*
X7982508Y-5629452D01*
X7995666Y-5633008D01*
G37*
G36*
X7755178Y-5634837D02*
G01*
X7768793Y-5634837D01*
X7782306Y-5633008D01*
X7795463Y-5629452D01*
X7808010Y-5624118D01*
X7819745Y-5617159D01*
X7830464Y-5608726D01*
X7839964Y-5598922D01*
X7848041Y-5587898D01*
X7854594Y-5575960D01*
X7859471Y-5563260D01*
X7862671Y-5549950D01*
X7863992Y-5536387D01*
X7863586Y-5522772D01*
X7861300Y-5509310D01*
X7857236Y-5496306D01*
X7851495Y-5483910D01*
X7844180Y-5472430D01*
X7835392Y-5462016D01*
X7825231Y-5452872D01*
X7814005Y-5445150D01*
X7801864Y-5439003D01*
X7788960Y-5434533D01*
X7775600Y-5431840D01*
X7761986Y-5430926D01*
X7748371Y-5431840D01*
X7735011Y-5434533D01*
X7722158Y-5439003D01*
X7709966Y-5445150D01*
X7698740Y-5452872D01*
X7688630Y-5462016D01*
X7679791Y-5472430D01*
X7672476Y-5483910D01*
X7666736Y-5496306D01*
X7662672Y-5509310D01*
X7660436Y-5522772D01*
X7659979Y-5536387D01*
X7661300Y-5549950D01*
X7664500Y-5563260D01*
X7669377Y-5575960D01*
X7675930Y-5587898D01*
X7684008Y-5598922D01*
X7693507Y-5608726D01*
X7704226Y-5617159D01*
X7715961Y-5624118D01*
X7728508Y-5629452D01*
X7741666Y-5633008D01*
G37*
G36*
X8798712Y-5136845D02*
G01*
X8805316Y-5133594D01*
X8816695Y-5125974D01*
X8826957Y-5116982D01*
X8835999Y-5106670D01*
X8843568Y-5095290D01*
X8846820Y-5088686D01*
X8798712Y-5088686D01*
G37*
G36*
X8707272Y-5136845D02*
G01*
X8707272Y-5088686D01*
X8659114Y-5088686D01*
X8662365Y-5095290D01*
X8669985Y-5106670D01*
X8678976Y-5116982D01*
X8689289Y-5125974D01*
X8700668Y-5133594D01*
G37*
G36*
X8659114Y-4997246D02*
G01*
X8707272Y-4997246D01*
X8707272Y-4949139D01*
X8700668Y-4952390D01*
X8689289Y-4959959D01*
X8678976Y-4969002D01*
X8669985Y-4979314D01*
X8662365Y-4990693D01*
G37*
G36*
X8798712Y-4997246D02*
G01*
X8846820Y-4997246D01*
X8843568Y-4990693D01*
X8835999Y-4979314D01*
X8826957Y-4969002D01*
X8816695Y-4959959D01*
X8805316Y-4952390D01*
X8798712Y-4949139D01*
G37*

%LPD*%
G36*
X1505610Y-5801055D02*
G01*
X1501495Y-5800191D01*
X1498092Y-5797753D01*
X1495958Y-5794146D01*
X1495450Y-5790031D01*
X1496161Y-5782157D01*
X1497076Y-5778754D01*
X1499108Y-5775858D01*
X3837178Y-3437839D01*
X3842308Y-3431540D01*
X3845915Y-3424834D01*
X3848100Y-3417519D01*
X3848912Y-3409442D01*
X3848912Y-3309721D01*
X3849776Y-3305606D01*
X3852265Y-3302203D01*
X3855872Y-3300069D01*
X3860088Y-3299612D01*
X3864101Y-3300882D01*
X3867251Y-3303676D01*
X3874008Y-3312922D01*
X3883507Y-3322726D01*
X3894226Y-3331159D01*
X3905961Y-3338118D01*
X3918508Y-3343452D01*
X3931665Y-3347008D01*
X3945178Y-3348837D01*
X3950919Y-3348837D01*
X3954830Y-3349599D01*
X3958132Y-3351834D01*
X3960317Y-3355136D01*
X3961079Y-3358997D01*
X3961079Y-3989578D01*
X3961892Y-3997655D01*
X3964076Y-4004970D01*
X3967683Y-4011676D01*
X3972814Y-4017975D01*
X5318048Y-5363159D01*
X5320233Y-5366461D01*
X5320995Y-5370322D01*
X5320995Y-5464606D01*
X5320182Y-5468620D01*
X5317845Y-5471972D01*
X5314340Y-5474106D01*
X5310276Y-5474716D01*
X5306314Y-5473700D01*
X5303062Y-5471160D01*
X5295392Y-5462016D01*
X5285232Y-5452872D01*
X5274005Y-5445150D01*
X5261864Y-5439003D01*
X5248960Y-5434533D01*
X5235600Y-5431840D01*
X5221986Y-5430926D01*
X5208371Y-5431840D01*
X5195011Y-5434533D01*
X5188915Y-5436666D01*
X5185156Y-5437225D01*
X5181498Y-5436362D01*
X5178399Y-5434228D01*
X4776927Y-5032756D01*
X4770628Y-5027625D01*
X4763922Y-5024018D01*
X4756607Y-5021834D01*
X4748530Y-5021021D01*
X2470404Y-5021021D01*
X2462326Y-5021834D01*
X2455011Y-5024018D01*
X2448306Y-5027625D01*
X2442006Y-5032756D01*
X2156764Y-5318048D01*
X2153462Y-5320233D01*
X2149602Y-5320995D01*
X2090420Y-5320995D01*
X2082342Y-5321808D01*
X2075027Y-5323992D01*
X2068322Y-5327599D01*
X2062022Y-5332730D01*
X1596694Y-5798108D01*
X1593392Y-5800293D01*
X1589532Y-5801055D01*
G37*

%LPD*%
G36*
X4811979Y-6104178D02*
G01*
X4807762Y-6103213D01*
X4804257Y-6100622D01*
X4802225Y-6096762D01*
X4801971Y-6092393D01*
X4803546Y-6088380D01*
X4807610Y-6082284D01*
X4813655Y-6070041D01*
X4818024Y-6057087D01*
X4820716Y-6043625D01*
X4821631Y-6030010D01*
X4820716Y-6016345D01*
X4818024Y-6002883D01*
X4813655Y-5989929D01*
X4807610Y-5977686D01*
X4799990Y-5966307D01*
X4790948Y-5955995D01*
X4780686Y-5947003D01*
X4769307Y-5939383D01*
X4757013Y-5933338D01*
X4744059Y-5928918D01*
X4730648Y-5926277D01*
X4716983Y-5925362D01*
X4703318Y-5926277D01*
X4689906Y-5928918D01*
X4681778Y-5931662D01*
X4678070Y-5932220D01*
X4674412Y-5931357D01*
X4671364Y-5929223D01*
X4474921Y-5732780D01*
X4468622Y-5727649D01*
X4461916Y-5724042D01*
X4454601Y-5721858D01*
X4446524Y-5721045D01*
X3670300Y-5721045D01*
X3666439Y-5720283D01*
X3663137Y-5718098D01*
X3601923Y-5656884D01*
X3599738Y-5653582D01*
X3598976Y-5649722D01*
X3598976Y-5601258D01*
X3599840Y-5597093D01*
X3602329Y-5593689D01*
X3605936Y-5591606D01*
X3610152Y-5591149D01*
X3614165Y-5592419D01*
X3617315Y-5595213D01*
X3620008Y-5598922D01*
X3629507Y-5608726D01*
X3640226Y-5617159D01*
X3651961Y-5624118D01*
X3664508Y-5629452D01*
X3677665Y-5633008D01*
X3691178Y-5634837D01*
X3704793Y-5634837D01*
X3718306Y-5633008D01*
X3731463Y-5629452D01*
X3744010Y-5624118D01*
X3755745Y-5617159D01*
X3766464Y-5608726D01*
X3775964Y-5598922D01*
X3784041Y-5587898D01*
X3790594Y-5575960D01*
X3795471Y-5563260D01*
X3798671Y-5549950D01*
X3799992Y-5536387D01*
X3799586Y-5522772D01*
X3797300Y-5509310D01*
X3793236Y-5496306D01*
X3787495Y-5483910D01*
X3780180Y-5472430D01*
X3771392Y-5462016D01*
X3761232Y-5452872D01*
X3750005Y-5445150D01*
X3737864Y-5439003D01*
X3724960Y-5434533D01*
X3711600Y-5431840D01*
X3697986Y-5430926D01*
X3684371Y-5431840D01*
X3671011Y-5434533D01*
X3658158Y-5439003D01*
X3645966Y-5445150D01*
X3634740Y-5452872D01*
X3624630Y-5462016D01*
X3616401Y-5471718D01*
X3613353Y-5474157D01*
X3609543Y-5475274D01*
X3605631Y-5474868D01*
X3602177Y-5472988D01*
X3599687Y-5469890D01*
X3598570Y-5466130D01*
X3598164Y-5462320D01*
X3595979Y-5455005D01*
X3592372Y-5448300D01*
X3587242Y-5442051D01*
X3527653Y-5382717D01*
X3521456Y-5377637D01*
X3514750Y-5374030D01*
X3507435Y-5371846D01*
X3499358Y-5371033D01*
X2996234Y-5371033D01*
X2992374Y-5370271D01*
X2989122Y-5368137D01*
X2986887Y-5364886D01*
X2986074Y-5361076D01*
X2986735Y-5357215D01*
X2988868Y-5353862D01*
X2992069Y-5351627D01*
X3003499Y-5346446D01*
X3016504Y-5338622D01*
X3028492Y-5329224D01*
X3039211Y-5318455D01*
X3048609Y-5306517D01*
X3056432Y-5293512D01*
X3062681Y-5279644D01*
X3067202Y-5265115D01*
X3069945Y-5250180D01*
X3070860Y-5234990D01*
X3069945Y-5219801D01*
X3067202Y-5204866D01*
X3062681Y-5190337D01*
X3056432Y-5176469D01*
X3048609Y-5163464D01*
X3039211Y-5151526D01*
X3028492Y-5140756D01*
X3016504Y-5131409D01*
X3003499Y-5123535D01*
X2991815Y-5118252D01*
X2988614Y-5116017D01*
X2986481Y-5112664D01*
X2985820Y-5108803D01*
X2986633Y-5104993D01*
X2988868Y-5101742D01*
X2992120Y-5099608D01*
X2995980Y-5098846D01*
X4728718Y-5098846D01*
X4732578Y-5099608D01*
X4735880Y-5101793D01*
X5123230Y-5489194D01*
X5125313Y-5492191D01*
X5126228Y-5495747D01*
X5125770Y-5499354D01*
X5122672Y-5509310D01*
X5120436Y-5522772D01*
X5119979Y-5536387D01*
X5121300Y-5549950D01*
X5124500Y-5563260D01*
X5129377Y-5575960D01*
X5135930Y-5587898D01*
X5144008Y-5598922D01*
X5153507Y-5608726D01*
X5164226Y-5617159D01*
X5175961Y-5624118D01*
X5188508Y-5629452D01*
X5201666Y-5633008D01*
X5215178Y-5634837D01*
X5228793Y-5634837D01*
X5242306Y-5633008D01*
X5255463Y-5629452D01*
X5268010Y-5624118D01*
X5279745Y-5617159D01*
X5290464Y-5608726D01*
X5299964Y-5598922D01*
X5302656Y-5595213D01*
X5305806Y-5592419D01*
X5309819Y-5591149D01*
X5314035Y-5591606D01*
X5317642Y-5593689D01*
X5320131Y-5597144D01*
X5320995Y-5601258D01*
X5320995Y-5649468D01*
X5321808Y-5657545D01*
X5323992Y-5664860D01*
X5327599Y-5671566D01*
X5332730Y-5677814D01*
X5502249Y-5847080D01*
X5508498Y-5852210D01*
X5515203Y-5855817D01*
X5522518Y-5858002D01*
X5530596Y-5858814D01*
X8483600Y-5858814D01*
X8491677Y-5858002D01*
X8498992Y-5855817D01*
X8505698Y-5852210D01*
X8511997Y-5847080D01*
X8954414Y-5404612D01*
X8957716Y-5402427D01*
X8961628Y-5401614D01*
X9056522Y-5401614D01*
X9060383Y-5402427D01*
X9063685Y-5404612D01*
X9065869Y-5407914D01*
X9066682Y-5411774D01*
X9065869Y-5415686D01*
X9063685Y-5418988D01*
X8381492Y-6101181D01*
X8378190Y-6103416D01*
X8374278Y-6104178D01*
X8367979Y-6104178D01*
X8363762Y-6103213D01*
X8360257Y-6100622D01*
X8358225Y-6096762D01*
X8357971Y-6092393D01*
X8359546Y-6088380D01*
X8363610Y-6082284D01*
X8366861Y-6075730D01*
X8318703Y-6075730D01*
X8318703Y-6094018D01*
X8317941Y-6097879D01*
X8315756Y-6101181D01*
X8312454Y-6103416D01*
X8308543Y-6104178D01*
X8237423Y-6104178D01*
X8233562Y-6103416D01*
X8230260Y-6101181D01*
X8228025Y-6097879D01*
X8227263Y-6094018D01*
X8227263Y-6075730D01*
X8176158Y-6075730D01*
X8172297Y-6074918D01*
X8168995Y-6072733D01*
X8126120Y-6029807D01*
X8124037Y-6026810D01*
X8123174Y-6023254D01*
X8122716Y-6016345D01*
X8120024Y-6002883D01*
X8115655Y-5989929D01*
X8109610Y-5977686D01*
X8101990Y-5966307D01*
X8092948Y-5955995D01*
X8082686Y-5947003D01*
X8071307Y-5939383D01*
X8059013Y-5933338D01*
X8046059Y-5928918D01*
X8032648Y-5926277D01*
X8018983Y-5925362D01*
X8005318Y-5926277D01*
X7991906Y-5928918D01*
X7978952Y-5933338D01*
X7966659Y-5939383D01*
X7955280Y-5947003D01*
X7945018Y-5955995D01*
X7935975Y-5966307D01*
X7928356Y-5977686D01*
X7922310Y-5989929D01*
X7917942Y-6002883D01*
X7915249Y-6016345D01*
X7914386Y-6030010D01*
X7915249Y-6043625D01*
X7917942Y-6057087D01*
X7922310Y-6070041D01*
X7928356Y-6082284D01*
X7932420Y-6088380D01*
X7933994Y-6092393D01*
X7933740Y-6096762D01*
X7931708Y-6100622D01*
X7928254Y-6103213D01*
X7923987Y-6104178D01*
X7859979Y-6104178D01*
X7855762Y-6103213D01*
X7852257Y-6100622D01*
X7850225Y-6096762D01*
X7849971Y-6092393D01*
X7851546Y-6088380D01*
X7855610Y-6082284D01*
X7861655Y-6070041D01*
X7866024Y-6057087D01*
X7868716Y-6043625D01*
X7869631Y-6030010D01*
X7868716Y-6016345D01*
X7866024Y-6002883D01*
X7861655Y-5989929D01*
X7855610Y-5977686D01*
X7847990Y-5966307D01*
X7838948Y-5955995D01*
X7828686Y-5947003D01*
X7817307Y-5939383D01*
X7805013Y-5933338D01*
X7792059Y-5928918D01*
X7778648Y-5926277D01*
X7764983Y-5925362D01*
X7751318Y-5926277D01*
X7737906Y-5928918D01*
X7724952Y-5933338D01*
X7712659Y-5939383D01*
X7701280Y-5947003D01*
X7691018Y-5955995D01*
X7681975Y-5966307D01*
X7674356Y-5977686D01*
X7668310Y-5989929D01*
X7663942Y-6002883D01*
X7661249Y-6016345D01*
X7660386Y-6030010D01*
X7661249Y-6043625D01*
X7663942Y-6057087D01*
X7668310Y-6070041D01*
X7674356Y-6082284D01*
X7678420Y-6088380D01*
X7679994Y-6092393D01*
X7679740Y-6096762D01*
X7677708Y-6100622D01*
X7674254Y-6103213D01*
X7669987Y-6104178D01*
X7605979Y-6104178D01*
X7601762Y-6103213D01*
X7598257Y-6100622D01*
X7596225Y-6096762D01*
X7595971Y-6092393D01*
X7597546Y-6088380D01*
X7601610Y-6082284D01*
X7604861Y-6075730D01*
X7556703Y-6075730D01*
X7556703Y-6094018D01*
X7555941Y-6097879D01*
X7553756Y-6101181D01*
X7550454Y-6103416D01*
X7546543Y-6104178D01*
X7475423Y-6104178D01*
X7471562Y-6103416D01*
X7468260Y-6101181D01*
X7466025Y-6097879D01*
X7465263Y-6094018D01*
X7465263Y-6075730D01*
X7417104Y-6075730D01*
X7420356Y-6082284D01*
X7424420Y-6088380D01*
X7425994Y-6092393D01*
X7425740Y-6096762D01*
X7423708Y-6100622D01*
X7420254Y-6103213D01*
X7415987Y-6104178D01*
X7351979Y-6104178D01*
X7347762Y-6103213D01*
X7344257Y-6100622D01*
X7342225Y-6096762D01*
X7341971Y-6092393D01*
X7343546Y-6088380D01*
X7347610Y-6082284D01*
X7353655Y-6070041D01*
X7358024Y-6057087D01*
X7360716Y-6043625D01*
X7361631Y-6030010D01*
X7360716Y-6016345D01*
X7358024Y-6002883D01*
X7353655Y-5989929D01*
X7347610Y-5977686D01*
X7339990Y-5966307D01*
X7330948Y-5955995D01*
X7320686Y-5947003D01*
X7309307Y-5939383D01*
X7297013Y-5933338D01*
X7284059Y-5928918D01*
X7270648Y-5926277D01*
X7256983Y-5925362D01*
X7243318Y-5926277D01*
X7229906Y-5928918D01*
X7216952Y-5933338D01*
X7204659Y-5939383D01*
X7193280Y-5947003D01*
X7183018Y-5955995D01*
X7173975Y-5966307D01*
X7166356Y-5977686D01*
X7160310Y-5989929D01*
X7155942Y-6002883D01*
X7153249Y-6016345D01*
X7152386Y-6030010D01*
X7153249Y-6043625D01*
X7155942Y-6057087D01*
X7160310Y-6070041D01*
X7166356Y-6082284D01*
X7170420Y-6088380D01*
X7171994Y-6092393D01*
X7171740Y-6096762D01*
X7169708Y-6100622D01*
X7166254Y-6103213D01*
X7161987Y-6104178D01*
X7097979Y-6104178D01*
X7093762Y-6103213D01*
X7090257Y-6100622D01*
X7088225Y-6096762D01*
X7087971Y-6092393D01*
X7089546Y-6088380D01*
X7093610Y-6082284D01*
X7099655Y-6070041D01*
X7104024Y-6057087D01*
X7106716Y-6043625D01*
X7107631Y-6030010D01*
X7106716Y-6016345D01*
X7104024Y-6002883D01*
X7099655Y-5989929D01*
X7093610Y-5977686D01*
X7085990Y-5966307D01*
X7076948Y-5955995D01*
X7066686Y-5947003D01*
X7055307Y-5939383D01*
X7043013Y-5933338D01*
X7030059Y-5928918D01*
X7016648Y-5926277D01*
X7002983Y-5925362D01*
X6989318Y-5926277D01*
X6975906Y-5928918D01*
X6962952Y-5933338D01*
X6950659Y-5939383D01*
X6939280Y-5947003D01*
X6929018Y-5955995D01*
X6919975Y-5966307D01*
X6912356Y-5977686D01*
X6906310Y-5989929D01*
X6901942Y-6002883D01*
X6899249Y-6016345D01*
X6898386Y-6030010D01*
X6899249Y-6043625D01*
X6901942Y-6057087D01*
X6906310Y-6070041D01*
X6912356Y-6082284D01*
X6916420Y-6088380D01*
X6917994Y-6092393D01*
X6917740Y-6096762D01*
X6915708Y-6100622D01*
X6912254Y-6103213D01*
X6907987Y-6104178D01*
X6843979Y-6104178D01*
X6839762Y-6103213D01*
X6836257Y-6100622D01*
X6834225Y-6096762D01*
X6833971Y-6092393D01*
X6835546Y-6088380D01*
X6839610Y-6082284D01*
X6845655Y-6070041D01*
X6850024Y-6057087D01*
X6852716Y-6043625D01*
X6853631Y-6030010D01*
X6852716Y-6016345D01*
X6850024Y-6002883D01*
X6845655Y-5989929D01*
X6839610Y-5977686D01*
X6831990Y-5966307D01*
X6822948Y-5955995D01*
X6812686Y-5947003D01*
X6801307Y-5939383D01*
X6789013Y-5933338D01*
X6776059Y-5928918D01*
X6762648Y-5926277D01*
X6748983Y-5925362D01*
X6735318Y-5926277D01*
X6721906Y-5928918D01*
X6708952Y-5933338D01*
X6696659Y-5939383D01*
X6685280Y-5947003D01*
X6675018Y-5955995D01*
X6665975Y-5966307D01*
X6658356Y-5977686D01*
X6652310Y-5989929D01*
X6647942Y-6002883D01*
X6645249Y-6016345D01*
X6644386Y-6030010D01*
X6645249Y-6043625D01*
X6647942Y-6057087D01*
X6652310Y-6070041D01*
X6658356Y-6082284D01*
X6662420Y-6088380D01*
X6663994Y-6092393D01*
X6663740Y-6096762D01*
X6661708Y-6100622D01*
X6658254Y-6103213D01*
X6653987Y-6104178D01*
X6589979Y-6104178D01*
X6585762Y-6103213D01*
X6582257Y-6100622D01*
X6580225Y-6096762D01*
X6579971Y-6092393D01*
X6581546Y-6088380D01*
X6585610Y-6082284D01*
X6591655Y-6070041D01*
X6596024Y-6057087D01*
X6598716Y-6043625D01*
X6599631Y-6030010D01*
X6598716Y-6016345D01*
X6596024Y-6002883D01*
X6591655Y-5989929D01*
X6585610Y-5977686D01*
X6577990Y-5966307D01*
X6568948Y-5955995D01*
X6558686Y-5947003D01*
X6547307Y-5939383D01*
X6535013Y-5933338D01*
X6522059Y-5928918D01*
X6508648Y-5926277D01*
X6494983Y-5925362D01*
X6481318Y-5926277D01*
X6467906Y-5928918D01*
X6454952Y-5933338D01*
X6442659Y-5939383D01*
X6431280Y-5947003D01*
X6421018Y-5955995D01*
X6411976Y-5966307D01*
X6404356Y-5977686D01*
X6398310Y-5989929D01*
X6393942Y-6002883D01*
X6391249Y-6016345D01*
X6390386Y-6030010D01*
X6391249Y-6043625D01*
X6393942Y-6057087D01*
X6398310Y-6070041D01*
X6404356Y-6082284D01*
X6408420Y-6088380D01*
X6409994Y-6092393D01*
X6409740Y-6096762D01*
X6407708Y-6100622D01*
X6404254Y-6103213D01*
X6399987Y-6104178D01*
X6335979Y-6104178D01*
X6331762Y-6103213D01*
X6328257Y-6100622D01*
X6326225Y-6096762D01*
X6325971Y-6092393D01*
X6327546Y-6088380D01*
X6331610Y-6082284D01*
X6337655Y-6070041D01*
X6342024Y-6057087D01*
X6344716Y-6043625D01*
X6345631Y-6030010D01*
X6344716Y-6016345D01*
X6342024Y-6002883D01*
X6337655Y-5989929D01*
X6331610Y-5977686D01*
X6323990Y-5966307D01*
X6314948Y-5955995D01*
X6304686Y-5947003D01*
X6293307Y-5939383D01*
X6281013Y-5933338D01*
X6268059Y-5928918D01*
X6254648Y-5926277D01*
X6240983Y-5925362D01*
X6227318Y-5926277D01*
X6213906Y-5928918D01*
X6200952Y-5933338D01*
X6188659Y-5939383D01*
X6177280Y-5947003D01*
X6167018Y-5955995D01*
X6157976Y-5966307D01*
X6150356Y-5977686D01*
X6144310Y-5989929D01*
X6139942Y-6002883D01*
X6137249Y-6016345D01*
X6136386Y-6030010D01*
X6137249Y-6043625D01*
X6139942Y-6057087D01*
X6144310Y-6070041D01*
X6150356Y-6082284D01*
X6154420Y-6088380D01*
X6155994Y-6092393D01*
X6155740Y-6096762D01*
X6153708Y-6100622D01*
X6150254Y-6103213D01*
X6145987Y-6104178D01*
X6081979Y-6104178D01*
X6077762Y-6103213D01*
X6074257Y-6100622D01*
X6072225Y-6096762D01*
X6071971Y-6092393D01*
X6073546Y-6088380D01*
X6077610Y-6082284D01*
X6083655Y-6070041D01*
X6088024Y-6057087D01*
X6090716Y-6043625D01*
X6091631Y-6030010D01*
X6090716Y-6016345D01*
X6088024Y-6002883D01*
X6083655Y-5989929D01*
X6077610Y-5977686D01*
X6069990Y-5966307D01*
X6060948Y-5955995D01*
X6050686Y-5947003D01*
X6039307Y-5939383D01*
X6027013Y-5933338D01*
X6014059Y-5928918D01*
X6000648Y-5926277D01*
X5986983Y-5925362D01*
X5973318Y-5926277D01*
X5959906Y-5928918D01*
X5946952Y-5933338D01*
X5934659Y-5939383D01*
X5923280Y-5947003D01*
X5913018Y-5955995D01*
X5903976Y-5966307D01*
X5896356Y-5977686D01*
X5890310Y-5989929D01*
X5885942Y-6002883D01*
X5883249Y-6016345D01*
X5882386Y-6030010D01*
X5883249Y-6043625D01*
X5885942Y-6057087D01*
X5890310Y-6070041D01*
X5896356Y-6082284D01*
X5900420Y-6088380D01*
X5901994Y-6092393D01*
X5901740Y-6096762D01*
X5899708Y-6100622D01*
X5896254Y-6103213D01*
X5891987Y-6104178D01*
X5827979Y-6104178D01*
X5823762Y-6103213D01*
X5820257Y-6100622D01*
X5818225Y-6096762D01*
X5817971Y-6092393D01*
X5819546Y-6088380D01*
X5823610Y-6082284D01*
X5829655Y-6070041D01*
X5834024Y-6057087D01*
X5836716Y-6043625D01*
X5837631Y-6030010D01*
X5836716Y-6016345D01*
X5834024Y-6002883D01*
X5829655Y-5989929D01*
X5823610Y-5977686D01*
X5815990Y-5966307D01*
X5806948Y-5955995D01*
X5796686Y-5947003D01*
X5785307Y-5939383D01*
X5773013Y-5933338D01*
X5760059Y-5928918D01*
X5746648Y-5926277D01*
X5732983Y-5925362D01*
X5719318Y-5926277D01*
X5705906Y-5928918D01*
X5692952Y-5933338D01*
X5680659Y-5939383D01*
X5669280Y-5947003D01*
X5659018Y-5955995D01*
X5649976Y-5966307D01*
X5642356Y-5977686D01*
X5636310Y-5989929D01*
X5631942Y-6002883D01*
X5629249Y-6016345D01*
X5628386Y-6030010D01*
X5629249Y-6043625D01*
X5631942Y-6057087D01*
X5636310Y-6070041D01*
X5642356Y-6082284D01*
X5646420Y-6088380D01*
X5647994Y-6092393D01*
X5647740Y-6096762D01*
X5645708Y-6100622D01*
X5642254Y-6103213D01*
X5637987Y-6104178D01*
X5573979Y-6104178D01*
X5569762Y-6103213D01*
X5566257Y-6100622D01*
X5564225Y-6096762D01*
X5563971Y-6092393D01*
X5565546Y-6088380D01*
X5569610Y-6082284D01*
X5575655Y-6070041D01*
X5580024Y-6057087D01*
X5582716Y-6043625D01*
X5583631Y-6030010D01*
X5582716Y-6016345D01*
X5580024Y-6002883D01*
X5575655Y-5989929D01*
X5569610Y-5977686D01*
X5561990Y-5966307D01*
X5552948Y-5955995D01*
X5542686Y-5947003D01*
X5531307Y-5939383D01*
X5519013Y-5933338D01*
X5506059Y-5928918D01*
X5492648Y-5926277D01*
X5478983Y-5925362D01*
X5465318Y-5926277D01*
X5451906Y-5928918D01*
X5438952Y-5933338D01*
X5426659Y-5939383D01*
X5415280Y-5947003D01*
X5405018Y-5955995D01*
X5395976Y-5966307D01*
X5388356Y-5977686D01*
X5382310Y-5989929D01*
X5377942Y-6002883D01*
X5375249Y-6016345D01*
X5374386Y-6030010D01*
X5375249Y-6043625D01*
X5377942Y-6057087D01*
X5382310Y-6070041D01*
X5388356Y-6082284D01*
X5392420Y-6088380D01*
X5393994Y-6092393D01*
X5393740Y-6096762D01*
X5391708Y-6100622D01*
X5388254Y-6103213D01*
X5383987Y-6104178D01*
X5319979Y-6104178D01*
X5315762Y-6103213D01*
X5312257Y-6100622D01*
X5310225Y-6096762D01*
X5309971Y-6092393D01*
X5311546Y-6088380D01*
X5315610Y-6082284D01*
X5321655Y-6070041D01*
X5326024Y-6057087D01*
X5328716Y-6043625D01*
X5329631Y-6030010D01*
X5328716Y-6016345D01*
X5326024Y-6002883D01*
X5321655Y-5989929D01*
X5315610Y-5977686D01*
X5307990Y-5966307D01*
X5298948Y-5955995D01*
X5288686Y-5947003D01*
X5277307Y-5939383D01*
X5265013Y-5933338D01*
X5252059Y-5928918D01*
X5238648Y-5926277D01*
X5224983Y-5925362D01*
X5211318Y-5926277D01*
X5197906Y-5928918D01*
X5184952Y-5933338D01*
X5172659Y-5939383D01*
X5161280Y-5947003D01*
X5151018Y-5955995D01*
X5141976Y-5966307D01*
X5134356Y-5977686D01*
X5128310Y-5989929D01*
X5123942Y-6002883D01*
X5121249Y-6016345D01*
X5120386Y-6030010D01*
X5121249Y-6043625D01*
X5123942Y-6057087D01*
X5128310Y-6070041D01*
X5134356Y-6082284D01*
X5138420Y-6088380D01*
X5139994Y-6092393D01*
X5139740Y-6096762D01*
X5137708Y-6100622D01*
X5134254Y-6103213D01*
X5129987Y-6104178D01*
X5065979Y-6104178D01*
X5061762Y-6103213D01*
X5058257Y-6100622D01*
X5056225Y-6096762D01*
X5055971Y-6092393D01*
X5057546Y-6088380D01*
X5061610Y-6082284D01*
X5067655Y-6070041D01*
X5072024Y-6057087D01*
X5074716Y-6043625D01*
X5075631Y-6030010D01*
X5074716Y-6016345D01*
X5072024Y-6002883D01*
X5067655Y-5989929D01*
X5061610Y-5977686D01*
X5053990Y-5966307D01*
X5044948Y-5955995D01*
X5034686Y-5947003D01*
X5023307Y-5939383D01*
X5011013Y-5933338D01*
X4998059Y-5928918D01*
X4984648Y-5926277D01*
X4970983Y-5925362D01*
X4957318Y-5926277D01*
X4943906Y-5928918D01*
X4930952Y-5933338D01*
X4918659Y-5939383D01*
X4907280Y-5947003D01*
X4897018Y-5955995D01*
X4887976Y-5966307D01*
X4880356Y-5977686D01*
X4874310Y-5989929D01*
X4869942Y-6002883D01*
X4867249Y-6016345D01*
X4866386Y-6030010D01*
X4867249Y-6043625D01*
X4869942Y-6057087D01*
X4874310Y-6070041D01*
X4880356Y-6082284D01*
X4884420Y-6088380D01*
X4885994Y-6092393D01*
X4885740Y-6096762D01*
X4883708Y-6100622D01*
X4880254Y-6103213D01*
X4875987Y-6104178D01*
G37*

%LPC*%
G36*
X7417104Y-5984290D02*
G01*
X7465263Y-5984290D01*
X7465263Y-5936132D01*
X7458659Y-5939383D01*
X7447280Y-5947003D01*
X7437018Y-5955995D01*
X7427975Y-5966307D01*
X7420356Y-5977686D01*
G37*
G36*
X8179104Y-5984290D02*
G01*
X8227263Y-5984290D01*
X8227263Y-5936132D01*
X8220659Y-5939383D01*
X8209280Y-5947003D01*
X8199018Y-5955995D01*
X8189975Y-5966307D01*
X8182356Y-5977686D01*
G37*
G36*
X7556703Y-5984290D02*
G01*
X7604861Y-5984290D01*
X7601610Y-5977686D01*
X7593990Y-5966307D01*
X7584948Y-5955995D01*
X7574686Y-5947003D01*
X7563307Y-5939383D01*
X7556703Y-5936132D01*
G37*
G36*
X8318703Y-5984290D02*
G01*
X8366861Y-5984290D01*
X8363610Y-5977686D01*
X8355990Y-5966307D01*
X8346948Y-5955995D01*
X8336686Y-5947003D01*
X8325307Y-5939383D01*
X8318703Y-5936132D01*
G37*
G36*
X3945178Y-5634837D02*
G01*
X3958793Y-5634837D01*
X3972306Y-5633008D01*
X3985463Y-5629452D01*
X3998010Y-5624118D01*
X4009745Y-5617159D01*
X4020464Y-5608726D01*
X4029964Y-5598922D01*
X4038041Y-5587898D01*
X4044594Y-5575960D01*
X4049471Y-5563260D01*
X4052671Y-5549950D01*
X4053992Y-5536387D01*
X4053586Y-5522772D01*
X4051300Y-5509310D01*
X4047236Y-5496306D01*
X4041495Y-5483910D01*
X4034180Y-5472430D01*
X4025392Y-5462016D01*
X4015232Y-5452872D01*
X4004005Y-5445150D01*
X3991864Y-5439003D01*
X3978960Y-5434533D01*
X3965600Y-5431840D01*
X3951986Y-5430926D01*
X3938371Y-5431840D01*
X3925011Y-5434533D01*
X3912158Y-5439003D01*
X3899966Y-5445150D01*
X3888740Y-5452872D01*
X3878630Y-5462016D01*
X3869791Y-5472430D01*
X3862476Y-5483910D01*
X3856736Y-5496306D01*
X3852672Y-5509310D01*
X3850436Y-5522772D01*
X3849979Y-5536387D01*
X3851300Y-5549950D01*
X3854500Y-5563260D01*
X3859377Y-5575960D01*
X3865930Y-5587898D01*
X3874008Y-5598922D01*
X3883507Y-5608726D01*
X3894226Y-5617159D01*
X3905961Y-5624118D01*
X3918508Y-5629452D01*
X3931665Y-5633008D01*
G37*
G36*
X4961178Y-5634837D02*
G01*
X4974793Y-5634837D01*
X4988306Y-5633008D01*
X5001463Y-5629452D01*
X5014010Y-5624118D01*
X5025745Y-5617159D01*
X5036464Y-5608726D01*
X5045964Y-5598922D01*
X5054041Y-5587898D01*
X5060594Y-5575960D01*
X5065471Y-5563260D01*
X5068671Y-5549950D01*
X5069992Y-5536387D01*
X5069586Y-5522772D01*
X5067300Y-5509310D01*
X5063236Y-5496306D01*
X5057495Y-5483910D01*
X5050180Y-5472430D01*
X5041392Y-5462016D01*
X5031232Y-5452872D01*
X5020005Y-5445150D01*
X5007864Y-5439003D01*
X4994960Y-5434533D01*
X4981600Y-5431840D01*
X4967986Y-5430926D01*
X4954371Y-5431840D01*
X4941011Y-5434533D01*
X4928158Y-5439003D01*
X4915966Y-5445150D01*
X4904740Y-5452872D01*
X4894630Y-5462016D01*
X4885791Y-5472430D01*
X4878476Y-5483910D01*
X4872736Y-5496306D01*
X4868672Y-5509310D01*
X4866436Y-5522772D01*
X4865979Y-5536387D01*
X4867300Y-5549950D01*
X4870500Y-5563260D01*
X4875377Y-5575960D01*
X4881930Y-5587898D01*
X4890008Y-5598922D01*
X4899507Y-5608726D01*
X4910226Y-5617159D01*
X4921961Y-5624118D01*
X4934508Y-5629452D01*
X4947666Y-5633008D01*
G37*
G36*
X4199178Y-5634837D02*
G01*
X4212793Y-5634837D01*
X4226306Y-5633008D01*
X4239463Y-5629452D01*
X4252010Y-5624118D01*
X4263745Y-5617159D01*
X4274464Y-5608726D01*
X4283964Y-5598922D01*
X4292041Y-5587898D01*
X4298594Y-5575960D01*
X4303471Y-5563260D01*
X4306671Y-5549950D01*
X4307992Y-5536387D01*
X4307586Y-5522772D01*
X4305300Y-5509310D01*
X4301236Y-5496306D01*
X4295495Y-5483910D01*
X4288180Y-5472430D01*
X4279392Y-5462016D01*
X4269232Y-5452872D01*
X4258005Y-5445150D01*
X4245864Y-5439003D01*
X4232960Y-5434533D01*
X4219600Y-5431840D01*
X4205986Y-5430926D01*
X4192371Y-5431840D01*
X4179011Y-5434533D01*
X4166158Y-5439003D01*
X4153966Y-5445150D01*
X4142740Y-5452872D01*
X4132630Y-5462016D01*
X4123791Y-5472430D01*
X4116476Y-5483910D01*
X4110736Y-5496306D01*
X4106672Y-5509310D01*
X4104436Y-5522772D01*
X4103979Y-5536387D01*
X4105300Y-5549950D01*
X4108500Y-5563260D01*
X4113377Y-5575960D01*
X4119930Y-5587898D01*
X4128008Y-5598922D01*
X4137507Y-5608726D01*
X4148226Y-5617159D01*
X4159961Y-5624118D01*
X4172508Y-5629452D01*
X4185665Y-5633008D01*
G37*
G36*
X4707178Y-5634837D02*
G01*
X4720793Y-5634837D01*
X4734306Y-5633008D01*
X4747463Y-5629452D01*
X4760010Y-5624118D01*
X4771745Y-5617159D01*
X4782464Y-5608726D01*
X4791964Y-5598922D01*
X4800041Y-5587898D01*
X4806594Y-5575960D01*
X4811471Y-5563260D01*
X4814671Y-5549950D01*
X4815992Y-5536387D01*
X4815586Y-5522772D01*
X4813300Y-5509310D01*
X4809236Y-5496306D01*
X4803495Y-5483910D01*
X4796180Y-5472430D01*
X4787392Y-5462016D01*
X4777232Y-5452872D01*
X4766005Y-5445150D01*
X4753864Y-5439003D01*
X4740960Y-5434533D01*
X4727600Y-5431840D01*
X4713986Y-5430926D01*
X4700371Y-5431840D01*
X4687011Y-5434533D01*
X4674158Y-5439003D01*
X4661966Y-5445150D01*
X4650740Y-5452872D01*
X4640630Y-5462016D01*
X4631791Y-5472430D01*
X4624476Y-5483910D01*
X4618736Y-5496306D01*
X4614672Y-5509310D01*
X4612436Y-5522772D01*
X4611979Y-5536387D01*
X4613300Y-5549950D01*
X4616500Y-5563260D01*
X4621377Y-5575960D01*
X4627930Y-5587898D01*
X4636008Y-5598922D01*
X4645507Y-5608726D01*
X4656226Y-5617159D01*
X4667961Y-5624118D01*
X4680508Y-5629452D01*
X4693666Y-5633008D01*
G37*
G36*
X4453178Y-5634837D02*
G01*
X4466793Y-5634837D01*
X4480306Y-5633008D01*
X4493463Y-5629452D01*
X4506010Y-5624118D01*
X4517745Y-5617159D01*
X4528464Y-5608726D01*
X4537964Y-5598922D01*
X4546041Y-5587898D01*
X4552594Y-5575960D01*
X4557471Y-5563260D01*
X4560671Y-5549950D01*
X4561992Y-5536387D01*
X4561586Y-5522772D01*
X4559300Y-5509310D01*
X4555236Y-5496306D01*
X4549495Y-5483910D01*
X4542180Y-5472430D01*
X4533392Y-5462016D01*
X4523232Y-5452872D01*
X4512005Y-5445150D01*
X4499864Y-5439003D01*
X4486960Y-5434533D01*
X4473600Y-5431840D01*
X4459986Y-5430926D01*
X4446371Y-5431840D01*
X4433011Y-5434533D01*
X4420158Y-5439003D01*
X4407966Y-5445150D01*
X4396740Y-5452872D01*
X4386630Y-5462016D01*
X4377791Y-5472430D01*
X4370476Y-5483910D01*
X4364736Y-5496306D01*
X4360672Y-5509310D01*
X4358436Y-5522772D01*
X4357979Y-5536387D01*
X4359300Y-5549950D01*
X4362500Y-5563260D01*
X4367377Y-5575960D01*
X4373930Y-5587898D01*
X4382008Y-5598922D01*
X4391507Y-5608726D01*
X4402226Y-5617159D01*
X4413961Y-5624118D01*
X4426508Y-5629452D01*
X4439666Y-5633008D01*
G37*

%LPD*%
D10*
X1439926Y-5780023D02*
G01*
X3810000Y-3409950D01*
X3810000Y-3139947D01*
X3910075Y-3039871D01*
X6030975Y-3039871D01*
X6237986Y-3246881D01*
X9007093Y-5296915D02*
G01*
X8484108Y-5819902D01*
X5530088Y-5819902D01*
X5359908Y-5649976D01*
X5359908Y-5350002D01*
X3999991Y-3990086D01*
X3999991Y-3400044D01*
X3999991Y-3246881D01*
X3951986Y-3246881D01*
D11*
X3839997Y-4380001D02*
G01*
X3839989Y-4379993D01*
X3839989Y-3639995D01*
D10*
X1099997Y-5489989D02*
G01*
X1099997Y-3889992D01*
X1459997Y-3529992D01*
X1459997Y-3119993D01*
X219961Y-4279900D02*
G01*
X269999Y-4230115D01*
X269999Y-3540000D01*
X910005Y-2899994D01*
X2949981Y-2899994D01*
X1420113Y-4929886D02*
G01*
X1825752Y-5335523D01*
X3590036Y-3571239D01*
X3590036Y-3119881D01*
X3720084Y-2990087D01*
X5290058Y-2990087D01*
X5488940Y-2790952D01*
X5488940Y-2750057D01*
D11*
X2899994Y-1329994D02*
G01*
X1839993Y-2389995D01*
X829998Y-2389995D01*
X338007Y-2881985D01*
X150012Y-2881985D01*
X3443986Y-5532881D02*
G01*
X3290061Y-5687060D01*
X3290061Y-6139942D01*
X3329940Y-6180073D01*
X8168893Y-6180073D01*
X8028940Y-2750057D02*
G01*
X8179054Y-2599944D01*
X8739886Y-2599944D01*
X9169908Y-3029965D01*
X9169908Y-5420105D01*
X8409940Y-6180073D01*
X8168893Y-6180073D01*
X8019034Y-6029960D01*
X3443991Y-3246996D02*
G01*
X3196988Y-2999994D01*
X929998Y-2999994D01*
X349999Y-3579992D01*
X349999Y-4459998D01*
X150012Y-4659985D01*
D10*
X2889981Y-1719988D02*
G01*
X2189988Y-2419982D01*
X2189988Y-2699994D01*
X8752984Y-5296999D02*
G01*
X8279996Y-5769988D01*
X5759988Y-5769988D01*
X5619988Y-5629988D01*
X5619988Y-5449989D01*
X4099991Y-3929992D01*
X4099991Y-3179993D01*
X4189991Y-3089993D01*
X4539990Y-3089993D01*
X4696993Y-3246996D01*
X4713991Y-3246996D01*
X8763000Y-3477005D02*
G01*
X7450074Y-4789931D01*
X7450074Y-5160010D01*
X7139940Y-5469889D01*
X7139940Y-5599937D01*
X7089902Y-5649976D01*
X6199886Y-5649976D01*
X6100063Y-5549900D01*
X6100063Y-4940045D01*
X5469989Y-4309971D01*
X5469989Y-4259991D01*
X4569990Y-3359993D01*
X4569990Y-3199993D01*
X4509990Y-3139993D01*
X4312993Y-3139993D01*
X4205991Y-3246996D01*
X9017000Y-3477005D02*
G01*
X9017000Y-3872992D01*
X7370063Y-5519928D01*
X7370063Y-5640070D01*
X7290054Y-5720079D01*
X5990081Y-5720079D01*
X5869940Y-5599937D01*
X5869940Y-4780026D01*
X4459986Y-3370071D01*
X4459986Y-3246881D01*
X7709979Y-2219990D02*
G01*
X7599974Y-2329995D01*
X7299985Y-2329995D01*
X6549986Y-1579996D01*
X6109987Y-1579996D01*
X5234995Y-2454988D01*
X5234995Y-2749994D01*
X7455915Y-2219960D02*
G01*
X7455915Y-2205989D01*
X6769861Y-1519936D01*
X5979922Y-1519936D01*
X4980940Y-2518918D01*
X4980940Y-2750057D01*
X7709915Y-1965960D02*
G01*
X7595870Y-2080005D01*
X7400036Y-2080005D01*
X6789927Y-1469897D01*
X5929884Y-1469897D01*
X4726940Y-2673095D01*
X4726940Y-2750057D01*
X7455979Y-1965990D02*
G01*
X6909986Y-1419997D01*
X5839988Y-1419997D01*
X5679988Y-1579996D01*
X4626993Y-1579996D01*
X3456995Y-2749994D01*
X6145999Y-2219990D02*
G01*
X6289987Y-2076002D01*
X6289987Y-1889996D01*
X6329987Y-1849996D01*
X6559986Y-1849996D01*
X7399985Y-2689994D01*
X7399985Y-5133002D01*
X6999991Y-5532996D01*
X6400038Y-2219960D02*
G01*
X6880097Y-2700020D01*
X6880097Y-4891023D01*
X6237986Y-5532881D01*
X6400038Y-1965960D02*
G01*
X7139940Y-2705862D01*
X7139940Y-4899913D01*
X7119620Y-4920234D01*
X6506972Y-5532881D01*
X6491986Y-5532881D01*
X6145999Y-1965990D02*
G01*
X6019987Y-2092002D01*
X6019987Y-2299995D01*
X6209987Y-2489995D01*
X6498996Y-2489995D01*
X6758995Y-2749994D01*
D11*
X150012Y-4659985D02*
G01*
X416999Y-4926972D01*
X416999Y-5839988D01*
X150012Y-2881985D02*
G01*
X150012Y-3135985D01*
D10*
X5221986Y-5532881D02*
G01*
X4749038Y-5059934D01*
X2469895Y-5059934D01*
X2169922Y-5359907D01*
X2089911Y-5359907D01*
X1609852Y-5839968D01*
X1409954Y-5839968D01*
X1359915Y-5789929D01*
X1359915Y-4650071D01*
X1519996Y-4489991D01*
X1519996Y-3769992D01*
X1449997Y-3699992D01*
X3049996Y-2899996D02*
G01*
X3049996Y-2090003D01*
X2889986Y-1929993D01*
X4717034Y-6029960D02*
G01*
X4447031Y-5759957D01*
X3649979Y-5759957D01*
X3560063Y-5670042D01*
X3560063Y-5469889D01*
X3499865Y-5409945D01*
X2560065Y-5409945D01*
X2080006Y-5890005D01*
X1359915Y-5890005D01*
X1230121Y-5759957D01*
X1230121Y-4660137D01*
X1439926Y-4450079D01*
X1439926Y-4320031D01*
X3839997Y-4380001D02*
G01*
X3700007Y-4519990D01*
X2969994Y-4519990D01*
D12*
G01*
X1123416Y-2192502D03*
D13*
G01*
X773404Y-1727428D03*
G01*
X1373352Y-1727428D03*
D14*
G01*
X1693367Y-1604949D03*
G01*
X1593367Y-2114981D03*
D15*
G01*
X4918354Y-1459966D03*
G01*
X5428386Y-1459966D03*
D16*
G01*
X162991Y-5839993D03*
D17*
G01*
X416991Y-5839993D03*
D18*
G01*
X9016974Y-3477005D03*
D19*
G01*
X8762974Y-3477005D03*
G01*
X9016974Y-3223005D03*
G01*
X8762974Y-3223005D03*
D18*
G01*
X9006992Y-5296992D03*
D19*
G01*
X8752992Y-5296992D03*
G01*
X9006992Y-5042992D03*
G01*
X8752992Y-5042992D03*
G01*
X6146012Y-1711985D03*
G01*
X6400012Y-1711985D03*
G01*
X6146012Y-1965985D03*
G01*
X6400012Y-1965985D03*
G01*
X6146012Y-2219985D03*
D18*
G01*
X6399987Y-2219985D03*
D19*
G01*
X7455992Y-1711985D03*
G01*
X7709992Y-1711985D03*
G01*
X7455992Y-1965985D03*
G01*
X7709992Y-1965985D03*
G01*
X7455992Y-2219985D03*
D18*
G01*
X7709992Y-2219985D03*
D19*
G01*
X8272983Y-6030010D03*
G01*
X8018983Y-6030010D03*
G01*
X7764983Y-6030010D03*
G01*
X7510983Y-6030010D03*
G01*
X7256983Y-6030010D03*
G01*
X7002983Y-6030010D03*
G01*
X6748983Y-6030010D03*
G01*
X6494983Y-6030010D03*
G01*
X6240983Y-6030010D03*
G01*
X5986983Y-6030010D03*
G01*
X5732983Y-6030010D03*
G01*
X5478983Y-6030010D03*
G01*
X5224983Y-6030010D03*
G01*
X4970983Y-6030010D03*
G01*
X4716983Y-6030010D03*
G01*
X4462983Y-6030010D03*
G01*
X4208983Y-6030010D03*
G01*
X3954983Y-6030010D03*
G01*
X3700983Y-6030010D03*
D18*
G01*
X3446983Y-6029985D03*
D19*
G01*
X8282990Y-2750007D03*
G01*
X8028990Y-2750007D03*
G01*
X7774990Y-2750007D03*
G01*
X7520990Y-2750007D03*
G01*
X7266990Y-2750007D03*
G01*
X7012990Y-2750007D03*
G01*
X6758990Y-2750007D03*
G01*
X6504990Y-2750007D03*
G01*
X6250990Y-2750007D03*
G01*
X5996990Y-2750007D03*
G01*
X5742990Y-2750007D03*
G01*
X5488990Y-2750007D03*
G01*
X5234990Y-2750007D03*
G01*
X4980990Y-2750007D03*
G01*
X4726990Y-2750007D03*
G01*
X4472990Y-2750007D03*
G01*
X4218990Y-2750007D03*
G01*
X3964990Y-2750007D03*
G01*
X3710990Y-2750007D03*
D18*
G01*
X3456990Y-2750007D03*
D19*
G01*
X150012Y-5167985D03*
G01*
X150012Y-4913985D03*
G01*
X150012Y-4659985D03*
G01*
X150012Y-4405985D03*
G01*
X150012Y-4151985D03*
G01*
X150012Y-3897985D03*
G01*
X150012Y-3643985D03*
G01*
X150012Y-3389985D03*
G01*
X150012Y-3135985D03*
D18*
G01*
X150012Y-2881985D03*
D20*
G01*
X1303375Y-752957D03*
G01*
X1303375Y-1006957D03*
G01*
X5862700Y-724915D03*
G01*
X5862700Y-470915D03*
G01*
X6639991Y-592988D03*
G01*
X6639991Y-846988D03*
D21*
G01*
X2494991Y-5234990D03*
G01*
X2494991Y-5884976D03*
G01*
X2944977Y-5884976D03*
G01*
X2944977Y-5234990D03*
D22*
G01*
X4703343Y-349478D03*
G01*
X4957368Y-350469D03*
D23*
G01*
X4449343Y-349478D03*
D22*
G01*
X2803347Y-349478D03*
G01*
X3057372Y-350469D03*
D23*
G01*
X2549347Y-349478D03*
D24*
G01*
X8015986Y-5533009D03*
G01*
X7761986Y-5533009D03*
G01*
X7507986Y-5533009D03*
G01*
X7253986Y-5533009D03*
G01*
X6999986Y-5533009D03*
G01*
X6745986Y-5533009D03*
G01*
X6491986Y-5533009D03*
G01*
X6237986Y-5533009D03*
G01*
X5983986Y-5533009D03*
G01*
X5729986Y-5533009D03*
G01*
X5475986Y-5533009D03*
G01*
X5221986Y-5533009D03*
G01*
X4967986Y-5533009D03*
G01*
X4713986Y-5533009D03*
G01*
X4459986Y-5533009D03*
G01*
X4205986Y-5533009D03*
G01*
X3951986Y-5533009D03*
G01*
X3697986Y-5533009D03*
G01*
X3443986Y-5533009D03*
G01*
X8015986Y-3247009D03*
G01*
X7761986Y-3247009D03*
G01*
X7507986Y-3247009D03*
G01*
X7253986Y-3247009D03*
G01*
X6999986Y-3247009D03*
G01*
X6745986Y-3247009D03*
G01*
X6491986Y-3247009D03*
G01*
X6237986Y-3247009D03*
G01*
X5983986Y-3247009D03*
G01*
X5729986Y-3247009D03*
G01*
X5475986Y-3247009D03*
G01*
X5221986Y-3247009D03*
G01*
X4967986Y-3247009D03*
G01*
X4713986Y-3247009D03*
G01*
X4459986Y-3247009D03*
G01*
X4205986Y-3247009D03*
G01*
X3951986Y-3247009D03*
G01*
X3697986Y-3247009D03*
G01*
X3443986Y-3247009D03*
D21*
G01*
X2899994Y-1329994D03*
D25*
G01*
X2889986Y-1719986D03*
G01*
X2189988Y-2699994D03*
G01*
X1440002Y-5779998D03*
G01*
X1419987Y-4929987D03*
G01*
X219989Y-4280001D03*
G01*
X2949981Y-2899994D03*
G01*
X1440002Y-4319981D03*
G01*
X1450009Y-3699992D03*
G01*
X1099997Y-5489981D03*
G01*
X1459992Y-3119983D03*
D21*
G01*
X3839997Y-4380001D03*
G01*
X3839997Y-3639997D03*
D25*
G01*
X3049981Y-2899994D03*
G01*
X2889986Y-1929993D03*
G01*
X2969996Y-4519980D03*
D21*
G01*
X2410002Y-3789984D03*
M02*
