G04 Layer: TopSolderMaskLayer*
G04 EasyEDA v6.5.23, 2023-06-13 20:56:30*
G04 d7613748035a41f38142119238425102,0997c0c323a540828c61b468e30a80a1,10*
G04 Gerber Generator version 0.2*
G04 Scale: 100 percent, Rotated: No, Reflected: No *
G04 Dimensions in millimeters *
G04 leading zeros omitted , absolute positions ,4 integer and 5 decimal *
%FSLAX45Y45*%
%MOMM*%

%AMMACRO1*1,1,$1,$2,$3*1,1,$1,$4,$5*1,1,$1,0-$2,0-$3*1,1,$1,0-$4,0-$5*20,1,$1,$2,$3,$4,$5,0*20,1,$1,$4,$5,0-$2,0-$3,0*20,1,$1,0-$2,0-$3,0-$4,0-$5,0*20,1,$1,0-$4,0-$5,$2,$3,0*4,1,4,$2,$3,$4,$5,0-$2,0-$3,0-$4,0-$5,$2,$3,0*%
%ADD10MACRO1,0.1016X0.6885X-0.5663X-0.6885X-0.5663*%
%ADD11MACRO1,0.1016X0.6885X0.5663X-0.6885X0.5663*%
%ADD12C,1.6240*%
%ADD13MACRO1,0.1016X-0.6885X0.5663X0.6885X0.5663*%
%ADD14MACRO1,0.1016X-0.6885X-0.5663X0.6885X-0.5663*%
%ADD15MACRO1,0.1016X0.5663X0.6885X0.5663X-0.6885*%
%ADD16MACRO1,0.1016X-0.5663X0.6885X-0.5663X-0.6885*%
%ADD17MACRO1,0.1016X0.705X0.675X0.705X-0.675*%
%ADD18MACRO1,0.1016X-0.705X0.675X-0.705X-0.675*%
%ADD19MACRO1,0.1016X-0.705X-0.675X-0.705X0.675*%
%ADD20MACRO1,0.1016X0.705X-0.675X0.705X0.675*%
%ADD21MACRO1,0.1016X0.675X-0.705X-0.675X-0.705*%
%ADD22MACRO1,0.1016X0.675X0.705X-0.675X0.705*%
%ADD23MACRO1,0.1016X-0.675X0.705X0.675X0.705*%
%ADD24MACRO1,0.1016X-0.675X-0.705X0.675X-0.705*%
%ADD25MACRO1,0.1016X0.648X-0.8788X-0.648X-0.8788*%
%ADD26MACRO1,0.1016X0.648X0.8788X-0.648X0.8788*%
%ADD27MACRO1,0.1016X0.8788X0.648X0.8788X-0.648*%
%ADD28MACRO1,0.1016X-0.8788X0.648X-0.8788X-0.648*%
%ADD29O,3.8015926X1.6015970000000002*%
%ADD30O,1.6015970000000002X3.9015924*%
%ADD31MACRO1,0.1016X-1X1X1X1*%
%ADD32MACRO1,0.1016X-1X-1X-1X1*%
%ADD33MACRO1,0.1016X-0.475X0.575X0.475X0.575*%
%ADD34MACRO1,0.1016X0.475X-0.575X-0.475X-0.575*%
%ADD35C,1.7016*%
%ADD36C,1.9016*%
%ADD37MACRO1,0.1016X-0.85X0.7874X0.85X0.7874*%
%ADD38C,1.8016*%
%ADD39MACRO1,0.1016X-0.7874X-0.7874X-0.7874X0.7874*%
%ADD40C,1.6764*%
%ADD41MACRO1,0.1016X-0.7874X0.7874X0.7874X0.7874*%
%ADD42MACRO1,0.1016X0.7874X0.7874X0.7874X-0.7874*%
%ADD43C,1.5016*%
%ADD44MACRO1,0.1016X-0.625X0.35X0.625X0.35*%
%ADD45MACRO1,0.1016X-0.468X0.25X0.468X0.25*%
%ADD46MACRO1,0.1016X-0.5663X-0.6885X-0.5663X0.6885*%
%ADD47MACRO1,0.1016X0.5663X-0.6885X0.5663X0.6885*%
%ADD48C,2.1016*%
%ADD49O,1.9015964X2.7015948*%
%ADD50MACRO1,0.1016X-0.9X1.3X0.9X1.3*%
%ADD51O,0.6700012X2.051812*%
%ADD52O,0.0148X2.051812*%

%LPD*%
D10*
G01*
X5593334Y-1069919D03*
D11*
G01*
X5593334Y-1269928D03*
D10*
G01*
X6320028Y-620085D03*
D11*
G01*
X6320028Y-820094D03*
D12*
G01*
X8015986Y-5532881D03*
G01*
X7761986Y-5532881D03*
G01*
X7507986Y-5532881D03*
G01*
X7253986Y-5532881D03*
G01*
X6999986Y-5532881D03*
G01*
X6745986Y-5532881D03*
G01*
X6491986Y-5532881D03*
G01*
X6237986Y-5532881D03*
G01*
X5983986Y-5532881D03*
G01*
X5729986Y-5532881D03*
G01*
X5475986Y-5532881D03*
G01*
X5221986Y-5532881D03*
G01*
X4967986Y-5532881D03*
G01*
X4713986Y-5532881D03*
G01*
X4459986Y-5532881D03*
G01*
X4205986Y-5532881D03*
G01*
X3951986Y-5532881D03*
G01*
X3697986Y-5532881D03*
G01*
X3443986Y-5532881D03*
G01*
X8015986Y-3246881D03*
G01*
X7761986Y-3246881D03*
G01*
X7507986Y-3246881D03*
G01*
X7253986Y-3246881D03*
G01*
X6999986Y-3246881D03*
G01*
X6745986Y-3246881D03*
G01*
X6491986Y-3246881D03*
G01*
X6237986Y-3246881D03*
G01*
X5983986Y-3246881D03*
G01*
X5729986Y-3246881D03*
G01*
X5475986Y-3246881D03*
G01*
X5221986Y-3246881D03*
G01*
X4967986Y-3246881D03*
G01*
X4713986Y-3246881D03*
G01*
X4459986Y-3246881D03*
G01*
X4205986Y-3246881D03*
G01*
X3951986Y-3246881D03*
G01*
X3697986Y-3246881D03*
G01*
X3443986Y-3246881D03*
D13*
G01*
X2969994Y-4119996D03*
D14*
G01*
X2969994Y-3919987D03*
D10*
G01*
X2959994Y-3259988D03*
D11*
G01*
X2959994Y-3459998D03*
D15*
G01*
X7059980Y-1279997D03*
D16*
G01*
X7259990Y-1279997D03*
D15*
G01*
X5659983Y-2489995D03*
D16*
G01*
X5859993Y-2489995D03*
D15*
G01*
X1963491Y-459993D03*
D16*
G01*
X2163500Y-459993D03*
D17*
G01*
X4993363Y-639960D03*
D18*
G01*
X5193367Y-639960D03*
D19*
G01*
X4043370Y-329961D03*
D20*
G01*
X3843365Y-329961D03*
D17*
G01*
X4993363Y-839960D03*
D18*
G01*
X5193367Y-839960D03*
D17*
G01*
X3053367Y-859960D03*
D18*
G01*
X3253371Y-859960D03*
D19*
G01*
X2153373Y-229961D03*
D20*
G01*
X1953369Y-229961D03*
D17*
G01*
X3053367Y-649960D03*
D18*
G01*
X3253371Y-649960D03*
D19*
G01*
X2093374Y-929960D03*
D20*
G01*
X1893369Y-929960D03*
D21*
G01*
X2393370Y-1919955D03*
D22*
G01*
X2393370Y-2119960D03*
D21*
G01*
X2593370Y-1919955D03*
D22*
G01*
X2593370Y-2119960D03*
D19*
G01*
X2769997Y-3009993D03*
D20*
G01*
X2569992Y-3009993D03*
D17*
G01*
X8269980Y-5519988D03*
D18*
G01*
X8469985Y-5519988D03*
D19*
G01*
X8979984Y-4649990D03*
D20*
G01*
X8779979Y-4649990D03*
D17*
G01*
X149997Y-2479995D03*
D18*
G01*
X350001Y-2479995D03*
D19*
G01*
X1609999Y-2629994D03*
D20*
G01*
X1409994Y-2629994D03*
D19*
G01*
X8969984Y-2829994D03*
D20*
G01*
X8769979Y-2829994D03*
D19*
G01*
X6379989Y-1339997D03*
D20*
G01*
X6179985Y-1339997D03*
D23*
G01*
X3179993Y-5449991D03*
D24*
G01*
X3179993Y-5249986D03*
D25*
G01*
X4713366Y-661335D03*
D26*
G01*
X4713366Y-998584D03*
D27*
G01*
X3064744Y-1069959D03*
D28*
G01*
X3401993Y-1069959D03*
D29*
G01*
X1123416Y-2192502D03*
D30*
G01*
X773404Y-1727428D03*
G01*
X1373352Y-1727428D03*
D31*
G01*
X4923365Y-1089959D03*
G01*
X5363364Y-1089959D03*
G01*
X4073367Y-759960D03*
G01*
X4513366Y-759960D03*
D32*
G01*
X2703370Y-1099959D03*
G01*
X2703370Y-659960D03*
D33*
G01*
X2419235Y-2779994D03*
G01*
X2080755Y-2779994D03*
D34*
G01*
X8110743Y-2479995D03*
G01*
X8449223Y-2479995D03*
D35*
G01*
X1693367Y-1604949D03*
G01*
X1593367Y-2114981D03*
D36*
G01*
X4918354Y-1459966D03*
G01*
X5428386Y-1459966D03*
D37*
G01*
X163000Y-5839988D03*
D38*
G01*
X416991Y-5839993D03*
D39*
G01*
X9016982Y-3476993D03*
D40*
G01*
X8762974Y-3477005D03*
G01*
X9016974Y-3223005D03*
G01*
X8762974Y-3223005D03*
D39*
G01*
X9006982Y-5296989D03*
D40*
G01*
X8752992Y-5296992D03*
G01*
X9006992Y-5042992D03*
G01*
X8752992Y-5042992D03*
G01*
X6146012Y-1711985D03*
G01*
X6400012Y-1711985D03*
G01*
X6146012Y-1965985D03*
G01*
X6400012Y-1965985D03*
G01*
X6146012Y-2219985D03*
D39*
G01*
X6399987Y-2219995D03*
D40*
G01*
X7455992Y-1711985D03*
G01*
X7709992Y-1711985D03*
G01*
X7455992Y-1965985D03*
G01*
X7709992Y-1965985D03*
G01*
X7455992Y-2219985D03*
D39*
G01*
X7709984Y-2219995D03*
D40*
G01*
X8272983Y-6030010D03*
G01*
X8018983Y-6030010D03*
G01*
X7764983Y-6030010D03*
G01*
X7510983Y-6030010D03*
G01*
X7256983Y-6030010D03*
G01*
X7002983Y-6030010D03*
G01*
X6748983Y-6030010D03*
G01*
X6494983Y-6030010D03*
G01*
X6240983Y-6030010D03*
G01*
X5986983Y-6030010D03*
G01*
X5732983Y-6030010D03*
G01*
X5478983Y-6030010D03*
G01*
X5224983Y-6030010D03*
G01*
X4970983Y-6030010D03*
G01*
X4716983Y-6030010D03*
G01*
X4462983Y-6030010D03*
G01*
X4208983Y-6030010D03*
G01*
X3954983Y-6030010D03*
G01*
X3700983Y-6030010D03*
D41*
G01*
X3446988Y-6029987D03*
D40*
G01*
X8282990Y-2750007D03*
G01*
X8028990Y-2750007D03*
G01*
X7774990Y-2750007D03*
G01*
X7520990Y-2750007D03*
G01*
X7266990Y-2750007D03*
G01*
X7012990Y-2750007D03*
G01*
X6758990Y-2750007D03*
G01*
X6504990Y-2750007D03*
G01*
X6250990Y-2750007D03*
G01*
X5996990Y-2750007D03*
G01*
X5742990Y-2750007D03*
G01*
X5488990Y-2750007D03*
G01*
X5234990Y-2750007D03*
G01*
X4980990Y-2750007D03*
G01*
X4726990Y-2750007D03*
G01*
X4472990Y-2750007D03*
G01*
X4218990Y-2750007D03*
G01*
X3964990Y-2750007D03*
G01*
X3710990Y-2750007D03*
D41*
G01*
X3456988Y-2749994D03*
D40*
G01*
X150012Y-5167985D03*
G01*
X150012Y-4913985D03*
G01*
X150012Y-4659985D03*
G01*
X150012Y-4405985D03*
G01*
X150012Y-4151985D03*
G01*
X150012Y-3897985D03*
G01*
X150012Y-3643985D03*
G01*
X150012Y-3389985D03*
G01*
X150012Y-3135985D03*
D42*
G01*
X149999Y-2881993D03*
D43*
G01*
X1303375Y-752957D03*
G01*
X1303375Y-1006957D03*
G01*
X5862700Y-724915D03*
G01*
X5862700Y-470915D03*
G01*
X6639991Y-592988D03*
G01*
X6639991Y-846988D03*
D44*
G01*
X959998Y-4504987D03*
G01*
X959998Y-4314996D03*
G01*
X759998Y-4409992D03*
D45*
G01*
X1360208Y-3749992D03*
G01*
X1539786Y-3684993D03*
G01*
X1539786Y-3814991D03*
G01*
X1360208Y-4379991D03*
G01*
X1539786Y-4314992D03*
G01*
X1539786Y-4444989D03*
G01*
X1360208Y-3129993D03*
G01*
X1539786Y-3064995D03*
G01*
X1539786Y-3194992D03*
G01*
X1350208Y-4999989D03*
G01*
X1529786Y-4934991D03*
G01*
X1529786Y-5064988D03*
G01*
X1350208Y-5619988D03*
G01*
X1529786Y-5554990D03*
G01*
X1529786Y-5684987D03*
G01*
X6880197Y-909998D03*
G01*
X7059775Y-844999D03*
G01*
X7059775Y-974996D03*
D46*
G01*
X4493371Y-1189959D03*
D47*
G01*
X4293361Y-1189959D03*
D46*
G01*
X3933372Y-539960D03*
D47*
G01*
X3733363Y-539960D03*
D46*
G01*
X2983374Y-1919958D03*
D47*
G01*
X2783365Y-1919958D03*
D46*
G01*
X2983374Y-1709958D03*
D47*
G01*
X2783365Y-1709958D03*
D15*
G01*
X1983366Y-1909958D03*
D16*
G01*
X2183376Y-1909958D03*
D13*
G01*
X1923371Y-1519963D03*
D14*
G01*
X1923371Y-1319954D03*
D13*
G01*
X3179993Y-5879993D03*
D14*
G01*
X3179993Y-5679983D03*
D15*
G01*
X1709991Y-4239991D03*
D16*
G01*
X1910001Y-4239991D03*
D46*
G01*
X2779999Y-2609994D03*
D47*
G01*
X2579989Y-2609994D03*
D46*
G01*
X2779999Y-2809994D03*
D47*
G01*
X2579989Y-2809994D03*
D15*
G01*
X679993Y-4679990D03*
D16*
G01*
X880003Y-4679990D03*
D10*
G01*
X1683372Y-999954D03*
D11*
G01*
X1683372Y-1199964D03*
D46*
G01*
X2403375Y-729960D03*
D47*
G01*
X2203366Y-729960D03*
D15*
G01*
X1709991Y-3899992D03*
D16*
G01*
X1910001Y-3899992D03*
D15*
G01*
X1709991Y-3609992D03*
D16*
G01*
X1910001Y-3609992D03*
D15*
G01*
X1709991Y-4519990D03*
D16*
G01*
X1910001Y-4519990D03*
D15*
G01*
X1709991Y-2989994D03*
D16*
G01*
X1910001Y-2989994D03*
D15*
G01*
X1709991Y-3269993D03*
D16*
G01*
X1910001Y-3269993D03*
D15*
G01*
X1699991Y-5139989D03*
D16*
G01*
X1900001Y-5139989D03*
D15*
G01*
X1699991Y-4859990D03*
D16*
G01*
X1900001Y-4859990D03*
D15*
G01*
X1699991Y-5759988D03*
D16*
G01*
X1900001Y-5759988D03*
D15*
G01*
X1699991Y-5479989D03*
D16*
G01*
X1900001Y-5479989D03*
D48*
G01*
X2494991Y-5234990D03*
G01*
X2494991Y-5884976D03*
G01*
X2944977Y-5884976D03*
G01*
X2944977Y-5234990D03*
D49*
G01*
X4703343Y-349478D03*
G01*
X4957368Y-350469D03*
D50*
G01*
X4449353Y-349465D03*
D49*
G01*
X2803347Y-349478D03*
G01*
X3057372Y-350469D03*
D50*
G01*
X2549357Y-349465D03*
D51*
G01*
X2142870Y-1690471D03*
G01*
X2269870Y-1690471D03*
G01*
X2396870Y-1690471D03*
G01*
X2523870Y-1690471D03*
G01*
X2142870Y-1149451D03*
G01*
X2269870Y-1149451D03*
G01*
X2396870Y-1149451D03*
G01*
X2523870Y-1149451D03*
M02*
